<svg xmlns="http://www.w3.org/2000/svg" width="200" height="205" viewBox="0 0 200 205">
  <defs>
    <style>
      .cls-1 {
        fill: #d6dbe9;
        fill-rule: evenodd;
      }
    </style>
  </defs>
  <path id="case-icn_solution.svg" class="cls-1" d="M1543.74,2667s-25.23-6.71-33.17-8.82c-2.06-.55-4.12-1.12-6.17-1.69-4.74-1.31-9.64-2.67-14.52-3.74a39.376,39.376,0,0,0-8.03-.63c-0.91-.01-1.81-0.02-2.71-0.05h0a2.564,2.564,0,0,0-1.88,1.38,9.8,9.8,0,0,1-9.29,5.41l-2.23.01c-1.9,0-3.8.01-5.71,0.01s-3.85-.01-5.78-0.03c-6.27-.06-10.18-3.95-10.2-10.15-0.04-12.64-.04-25.52,0-38.29,0.02-6.23,3.92-10.12,10.17-10.15h14.13a9.312,9.312,0,0,1,8.74,5.19,2.965,2.965,0,0,0,2.91,1.69c0.38,0.03.75,0.04,1.13,0.04a23.236,23.236,0,0,0,8.79-1.86,47.818,47.818,0,0,1,16.02-3.58c0.41-.01.81-0.02,1.21-0.02,7.8,0,15.2,2.83,22.64,8.64,0.19,0.15.39,0.29,0.59,0.44a6.61,6.61,0,0,1,1.3,1.12c2.03,2.59,4.69,3.74,8.61,3.74,0.42,0,.84-0.01,1.27-0.03,1.66-.09,3.46-0.13,5.67-0.13,1.32,0,2.64.02,3.96,0.03s2.64,0.03,3.97.03c0.64,0,1.28-.01,1.92-0.01h0.23a13.17,13.17,0,0,1,9.15,3.24,2.288,2.288,0,0,0,1.55.67,3.14,3.14,0,0,0,1.5-.49l11.5-5.9q8.16-4.185,16.33-8.38a15.837,15.837,0,0,1,7.31-1.95,13.257,13.257,0,0,1,3.68.53,12.629,12.629,0,0,1,8.92,9.07,13.3,13.3,0,0,1-3.75,12.83,27.1,27.1,0,0,1-3.39,2.68q-8.925,6.36-17.85,12.7-13.515,9.6-27.01,19.23a41.344,41.344,0,0,1-15.62,7.22h-5.89Zm-61.5-21.7c0.68,0,1.24.03,1.76,0.08,0.54,0.05,1.08.1,1.62,0.14a41.855,41.855,0,0,1,6.81.98c13.06,3.42,26.32,6.99,39.14,10.45l9.91,2.67a20.038,20.038,0,0,0,5.13.7,18.333,18.333,0,0,0,9.05-2.44,56.574,56.574,0,0,0,5.04-3.09c8.39-5.93,16.9-11.98,25.13-17.83l5.13-3.65q2.235-1.59,4.47-3.17c4.1-2.9,8.33-5.89,12.44-8.91,3.11-2.28,4.02-5.95,2.2-8.91a6.066,6.066,0,0,0-5.31-2.88,8.8,8.8,0,0,0-3.43.74c-0.32.14-.64,0.29-0.95,0.45l-6.79,3.48q-10.41,5.34-20.85,10.65a2.579,2.579,0,0,0-1.59,2.83,14.05,14.05,0,0,1-3.51,10.63,14.274,14.274,0,0,1-10.54,4.23c-3.46.02-6.92,0.02-10.37,0.02q-4.38,0-8.75-.01h-6.73c-0.63,0-1.22,0-1.81.01h-1.77c-1.39,0-2.46-.02-3.45-0.07a3.071,3.071,0,0,1-2.94-2.81,3.122,3.122,0,0,1,2.31-3.56,8.225,8.225,0,0,1,2.2-.22c3.59,0,7.19-.01,10.79-0.01l5.78,0.01q7.47,0,14.93-.02a7.506,7.506,0,0,0,5.4-2.07,6.531,6.531,0,0,0,1.87-4.75c-0.02-3.95-3.04-6.72-7.34-6.74-1.73-.01-3.45-0.01-5.17-0.01h-7.76c-0.52,0-1.04-.01-1.57-0.02s-1.06-.02-1.6-0.02c-0.74,0-1.35.02-1.93,0.07-0.42.03-.84,0.05-1.24,0.05a12.709,12.709,0,0,1-9.27-4.06c-6.68-6.52-14.14-9.83-22.16-9.83a35.2,35.2,0,0,0-12.9,2.64,33.943,33.943,0,0,1-12.41,2.82c-0.53,0-1.06-.02-1.58-0.06h-0.01a1.451,1.451,0,0,0-.75.22,0.746,0.746,0,0,1-.12.07l-0.43.18v31.07h0.71c0.59,0,1.16-.01,1.71-0.02C1481.25,2645.32,1481.75,2645.3,1482.24,2645.3Zm-27.39-38.38c-3.32,0-4.13.8-4.14,4.07q-0.015,6.555,0,13.1v10.81q-0.015,6.66,0,13.33c0.01,2.95.99,3.95,3.88,3.97q3.3,0.015,6.61.02,3.24,0,6.5-.02c2.78-.02,3.87-1.09,3.87-3.82q0.03-18.81,0-37.63c0-2.78-1.03-3.82-3.81-3.83-1.99,0-3.97-.01-5.96-0.01C1459.73,2606.91,1454.85,2606.92,1454.85,2606.92Zm105.07-7.5c-2.92,0-5.89-.03-9.07-0.09a12.526,12.526,0,0,1-12.49-12.4l-0.01-.19a2.773,2.773,0,0,1,0-.5c0.48-3.72-.61-6.03-3.89-8.24a11.111,11.111,0,0,1-4.94-9.38,12.643,12.643,0,0,1,5.64-10.47c1.07-.71,2.16-1.77,1.15-3.64-0.61-1.14-1.22-2.29-1.82-3.44-1.46-2.78-2.97-5.65-4.64-8.38-1.26-2.04-2.65-4.04-4-5.97a73.683,73.683,0,0,1-5.96-9.53c-5.85-11.95-5.96-27.13-.3-39.62,3.83-8.46,11.99-19.52,29.08-24.18,1.51-.41,3.09-0.7,4.63-0.98,0.71-.14,1.42-0.27,2.13-0.41h9.14c0.9,0.2,1.82.37,2.71,0.53a31.166,31.166,0,0,1,5.89,1.48,110.15,110.15,0,0,1,12.55,6.09,3.992,3.992,0,0,1,2.13,2.51,3.17,3.17,0,0,1-.56,2.57,2.9,2.9,0,0,1-2.46,1.37,5.391,5.391,0,0,1-2.94-1.08,39.1,39.1,0,0,0-22.09-6.88,37.534,37.534,0,0,0-24.93,9.43c-8.59,7.61-12.73,17.49-12.68,30.19a38.845,38.845,0,0,0,7.29,22.44c0.83,1.19,1.71,2.37,2.57,3.51a72.274,72.274,0,0,1,4.69,6.82c2.15,3.71,3.96,7.7,5.72,11.57l0.77,1.69a2.392,2.392,0,0,0,2.43,1.78c3.76-.01,7.51-0.01,11.26-0.02,5.71,0,11.62-.01,17.43-0.05a2.845,2.845,0,0,0,2.26-1.71,52.107,52.107,0,0,1,7.79-15.13l0.4-.55c2.26-3.15,4.59-6.41,6.78-9.7a37.154,37.154,0,0,0,6.15-22.17l-0.02-.7c-0.03-.7-0.05-1.4-0.05-2.09,0.01-2.12,1.25-3.54,3.15-3.61h0.16a3.291,3.291,0,0,1,3.33,3.31c0.66,9.91-.96,18.13-4.97,25.11-2.16,3.75-4.71,7.39-7.17,10.9-0.8,1.15-1.61,2.3-2.4,3.45-3.14,4.58-5.48,8.6-6.69,13.33l-0.12.49,1.76,1.17a12.44,12.44,0,0,1,5.63,11.1,12.3,12.3,0,0,1-6.81,10.26,3.116,3.116,0,0,0-1.96,3.24,40.449,40.449,0,0,1-.2,5.92,12.292,12.292,0,0,1-11.78,10.73C1566.5,2599.38,1563.25,2599.42,1559.92,2599.42Zm-14.77-17.82c0,0.65-.02,1.29-0.04,1.92a27.254,27.254,0,0,0,.1,4.25,5.385,5.385,0,0,0,5.34,4.86c3,0.05,6.16.07,9.38,0.07,3.02,0,6.09-.01,9.39-0.06a5.239,5.239,0,0,0,5.24-4.19,34.682,34.682,0,0,0,.37-4.76c0.02-.68.04-1.37,0.08-2.05l0.04-.74h-29.9v0.7Zm13.95-7.48,11.02,0.01q3.63,0,7.26-.02a6.525,6.525,0,0,0,4.72-1.75,5.476,5.476,0,0,0,1.53-3.99c-0.02-3.4-2.56-5.69-6.33-5.7q-7.515-.015-15.02-0.02-9.855,0-19.71.05a7.741,7.741,0,0,0-3.4.82,5.652,5.652,0,0,0,2.86,10.57q3.78,0.03,7.57.03c1.7,0,8.04-.01,9.5-0.01v0.01Zm0.86-55.07c-2.07-.01-3.32-1.53-3.33-4.06-0.03-7.84-.03-15.75,0-23.52,0.01-2.5,1.29-4.05,3.34-4.05,2.09,0.01,3.29,1.5,3.31,4.08,0.02,2.76.02,5.53,0.01,8.29v7.08c0.01,2.71.01,5.43-.01,8.14-0.02,2.57-1.23,4.04-3.3,4.04h-0.02Zm71.26,39.01a2.545,2.545,0,0,1-1.35-.39c-4.7-2.88-9.21-5.96-14.52-9.7a3.008,3.008,0,0,1-.51-4.26,3.336,3.336,0,0,1,2.68-1.52,2.785,2.785,0,0,1,1.51.46c4.85,3.1,9.63,6.31,14.18,9.52a4.126,4.126,0,0,1,1.08,1.6,4.848,4.848,0,0,0,.21.45C1634.42,2556.6,1632.76,2558.06,1631.22,2558.06Zm-129.12-77.21c-0.14-.05-0.29-0.11-0.45-0.17a9.135,9.135,0,0,1-1.65-.78c-3.66-2.41-7.53-5-12.53-8.4a4.223,4.223,0,0,1-1.99-2.63,3.06,3.06,0,0,1,.6-2.38,3.009,3.009,0,0,1,2.54-1.37,4.787,4.787,0,0,1,2.55.87c4.75,3.14,8.95,5.97,12.87,8.64a3.157,3.157,0,0,1,1.48,3.9C1505.04,2479.98,1504.04,2480.66,1502.1,2480.85Zm115.43,0.03a3.37,3.37,0,0,1-2.7-1.5,3.051,3.051,0,0,1,.56-4.29c1.29-1.03,2.71-1.96,4.08-2.87,0.5-.33,1-0.66,1.5-1l1.4-.94c2.1-1.43,4.28-2.9,6.45-4.3a9.379,9.379,0,0,1,1.65-.75c0.13-.04.25-0.09,0.35-0.13,1.88,0.11,2.92.76,3.44,2.18a2.806,2.806,0,0,1-.88,3.53c-5.05,3.52-9.8,6.69-14.54,9.7A2.38,2.38,0,0,1,1617.53,2480.88Zm-130.23,34.03c-2.59,0-5.23-.02-7.83-0.05a3.772,3.772,0,0,1-2.72-1.05,3.176,3.176,0,0,1-.86-2.33c0.03-1.9,1.43-3.17,3.55-3.22,1.05-.03,2.1-0.04,3.15-0.04,0.8,0,1.61,0,2.41.01s1.62,0.01,2.42.01c0.85,0,1.65-.01,2.44-0.01,0.81-.01,1.62-0.01,2.42-0.01q1.515,0,3.03.03c2.23,0.06,3.64,1.38,3.6,3.35a3.3,3.3,0,0,1-3.55,3.25C1492.69,2514.89,1489.98,2514.91,1487.3,2514.91Zm1.41,43.08a3.176,3.176,0,0,1-2.68-1.46,3.215,3.215,0,0,1,1.02-4.67c3.48-2.37,7.05-4.75,10.5-7.05l2.88-1.92a3.779,3.779,0,0,1,2.03-.71,2.309,2.309,0,0,1,1.47.53,8.528,8.528,0,0,1,1.62,2c0.19,0.29.38,0.58,0.59,0.87-0.22.32-.41,0.63-0.6,0.93a6.342,6.342,0,0,1-1.46,1.86c-4.58,3.24-9.28,6.34-13.34,8.99A3.779,3.779,0,0,1,1488.71,2557.99Zm143.86-43.08c-2.77,0-5.53-.02-8.21-0.07a3.191,3.191,0,0,1-3.3-3.42,3.169,3.169,0,0,1,3.39-3.15c0.96-.03,1.99-0.04,3.24-0.04,0.83,0,1.66,0,2.49.01s1.67,0.01,2.51.01h0.7v-0.01c0.57,0,1.13-.01,1.7-0.01,0.8,0,1.6-.01,2.4-0.01,1.01,0,2.02.01,3.03,0.04,2.14,0.06,3.49,1.3,3.51,3.23a3.194,3.194,0,0,1-3.38,3.35C1637.92,2514.89,1635.2,2514.91,1632.57,2514.91Zm-72.6,22.36a3.276,3.276,0,0,1-3.31-3.22,3.34,3.34,0,0,1,.98-2.4,3.261,3.261,0,0,1,2.32-1,3.305,3.305,0,0,1,3.29,3.35,3.223,3.223,0,0,1-3.25,3.27h-0.03Zm35.98-47.62a3.3,3.3,0,0,1-2.32-5.65,3.206,3.206,0,0,1,2.3-.99h0.09a3.349,3.349,0,0,1,3.21,3.38A3.265,3.265,0,0,1,1595.95,2489.65Z" transform="translate(-1444.03 -2462)"/>
</svg>
