<svg xmlns="http://www.w3.org/2000/svg" width="29" height="32" viewBox="0 0 29 32">
  <defs>
    <style>
      .cls-1 {
        fill: #0322AD;
        fill-rule: evenodd;
      }
    </style>
  </defs>
  <path id="contact-icn_soudan01.svg" class="cls-1" d="M1754.09,9146l-0.81-.43c-0.54-.29-1.07-0.58-1.6-0.88-1.56-.89-3.11-1.79-4.67-2.69-1.95-1.13-3.91-2.25-5.86-3.37a2.1,2.1,0,0,1-1.15-1.96q0.015-6.675,0-13.37a2.123,2.123,0,0,1,1.15-1.95q6.075-3.48,12.14-6.99a2.376,2.376,0,0,1,1.21-.36,2.461,2.461,0,0,1,1.21.35q6.045,3.51,12.12,6.98a2.159,2.159,0,0,1,1.17,2q-0.015,6.66,0,13.31a2.164,2.164,0,0,1-1.17,2.01q-3.735,2.13-7.45,4.28l-4.67,2.69a4.967,4.967,0,0,1-.52.25l-0.29.13h-0.81Zm5.03-16.95c-1.16.67-2.31,1.34-3.48,1.98a0.38,0.38,0,0,0-.25.43q0.015,4.92.01,9.86v2.47l2.61-1.51q4.425-2.55,8.86-5.09a0.575,0.575,0,0,0,.34-0.57c-0.01-3.25-.01-6.51-0.01-9.76v-2.47Zm-17.32-2.23c0,3.27,0,6.53-.01,9.8a0.561,0.561,0,0,0,.34.57q4.425,2.52,8.84,5.08l2.63,1.51v-2.58q0-4.8.01-9.6a0.586,0.586,0,0,0-.37-0.64q-4.455-2.535-8.89-5.1l-2.55-1.47v2.43Zm3.24-2.58c3.03,1.75,6.07,3.49,9.1,5.25a0.759,0.759,0,0,0,.36.12h0a0.7,0.7,0,0,0,.36-0.11q4.635-2.685,9.28-5.36l2.53-1.45-2.71-1.57c-3.05-1.75-6.11-3.51-9.15-5.28a0.649,0.649,0,0,0-.31-0.1,0.588,0.588,0,0,0-.3.1q-3.66,2.115-7.33,4.23l-4.53,2.61Z" transform="translate(-1740 -9114)"/>
</svg>
