<svg xmlns="http://www.w3.org/2000/svg" width="144" height="143.5" viewBox="0 0 144 143.5">
  <defs>
    <style>
      .cls-1 {
        fill: #bfc8dd;
        fill-rule: evenodd;
      }
    </style>
  </defs>
  <path id="contact-icn_contact02.svg" class="cls-1" d="M1478.58,9956.5c-0.45-.24-0.91-0.46-1.37-0.68a23.087,23.087,0,0,1-3.13-1.72c-1.68-1.17-2.38-3.15-3.06-5.06l-0.02-.06v-85.59c0.97-3.65,3.65-5.77,6.14-7.37,2.37-1.52,4.72-3.14,6.99-4.71,1.6-1.11,3.2-2.21,4.82-3.29a2.715,2.715,0,0,0,1.37-2.53c-0.04-7.02-.03-14.15-0.03-21.04v-3.77c0.01-4.94,2.74-7.66,7.69-7.66l30.81,0.01q17.685,0,35.38-.03a8.561,8.561,0,0,1,6.47,2.68l0.81,0.82c6.74,6.8,13.71,13.83,20.72,20.6,2.78,2.69,3.86,5.3,3.49,8.47a2.336,2.336,0,0,0,1.23,2.36c1.9,1.27,3.78,2.56,5.66,3.85,2.5,1.71,5.09,3.49,7.66,5.19a10.025,10.025,0,0,1,4.78,9.11c-0.04,18.27-.04,36.84-0.03,54.81v18.76c0,0.77.01,1.54,0.01,2.31,0.01,1.82.01,3.72-.02,5.57a9.1,9.1,0,0,1-6.32,8.5c-0.3.1-.61,0.22-0.91,0.34l-0.31.13H1478.58Zm64.39-50.56a8.146,8.146,0,0,0-4.93,1.85q-28.44,21.495-56.88,43.01c-0.21.17-.41,0.35-0.65,0.57-0.12.12-.26,0.24-0.42,0.38l-0.88.79h127.64l-1.32-1.15-0.49-.42-8.67-6.55q-24.225-18.33-48.44-36.62A8.178,8.178,0,0,0,1542.97,9905.94Zm11.93,2.19,55.38,41.9,0.22-.56c0.56-1.44.8-82.09,0.26-83.79l-0.2-.61Zm-79.86-42.48c-0.42,4.02-.44,81.71.45,83.82l0.23,0.54,55.35-41.88-55.95-43.29Zm23.27-48.72c-3.25,0-4.09.84-4.09,4.1v10.45q0,20.715-.03,41.43a3.185,3.185,0,0,0,1.37,2.82q9.435,7.26,18.84,14.55l6.41,4.97,13.53,10.45,0.28-.24a12.587,12.587,0,0,1,8.32-3.39,12.759,12.759,0,0,1,8.37,3.35l0.24,0.2,0.48-.27a2.1,2.1,0,0,0,.31-0.19l4.25-3.29c11.2-8.66,22.79-17.62,34.15-26.47a3.1,3.1,0,0,0,.97-2.25c0.05-7.88.04-15.89,0.04-23.64v-4.13c-0.01-.31-0.02-0.62-0.04-0.98l-0.05-.99h-19.15c-4.51-.01-7.31-2.8-7.32-7.29q-0.015-6.045-.01-12.09l0.01-7.1h-66.88Zm97.44,54.65,13.53-10.48-13.53-9.23v19.71ZM1476.7,9861.1l13.48,10.43V9851.9Zm92.4-35.56c0,3.55,0,7.07.01,10.59,0,2.29,1.07,3.37,3.37,3.37,1.97,0.01,3.95.01,5.93,0.01l8.34-.01a2.715,2.715,0,0,0,.58-0.06l0.2-.02,0.92-.12-19.35-19.24v5.48Zm-59.39,44.36c-0.14,0-.27,0-0.41-0.01a2.025,2.025,0,0,1-2.07-2.06,1.916,1.916,0,0,1,2.1-1.83q4.17-.015,8.34-0.02h58.53a7.143,7.143,0,0,1,.8.04,1.769,1.769,0,0,1,1.71,1.7,1.723,1.723,0,0,1-1.32,2,5.832,5.832,0,0,1-1.68.17H1529.6Zm0.69-14.45a7.371,7.371,0,0,1-1.71-.13,1.895,1.895,0,0,1,.15-3.71,6.736,6.736,0,0,1,1.17-.07l65.62-.01a3.728,3.728,0,0,1,2.67.72,1.631,1.631,0,0,1,.43,1.25c-0.01.91-.38,1.95-3.15,1.95H1510.4Zm55.8,28.86h-47.18a2.04,2.04,0,0,1-2.15-1.98,1.99,1.99,0,0,1,2.18-1.91q3.87-.015,7.72-0.01h39.77c1.87,0,2.31.82,2.49,1.53a1.8,1.8,0,0,1-.27,1.45,2.021,2.021,0,0,1-1.36.89,4.213,4.213,0,0,1-.62.04Z" transform="translate(-1471 -9813)"/>
</svg>
