<svg xmlns="http://www.w3.org/2000/svg" width="144" height="143.5" viewBox="0 0 144 143.5">
  <defs>
    <style>
      .cls-1 {
        fill: #bfc8dd;
        fill-rule: evenodd;
      }
    </style>
  </defs>
  <path id="contact-icn_soudan02.svg" class="cls-1" d="M2061.78,9956a4.416,4.416,0,0,1-2.33-.72q-8.04-4.845-16.07-9.66-5.145-3.105-10.3-6.2a4.016,4.016,0,0,1-2.08-3.7v-30.44a4.021,4.021,0,0,1,2.1-3.69l6.27-3.77q10.05-6.045,20.09-12.09a4.1,4.1,0,0,1,4.58-.02l1.48,0.9c2.38,1.43,4.85,2.92,7.3,4.33a2.924,2.924,0,0,0,1.37.34,1.882,1.882,0,0,0,1.02-.26c4.94-3.22,9.94-6.55,14.76-9.77l2.39-1.59a1.589,1.589,0,0,0,.37-0.36c0.04-.04.09-0.1,0.14-0.16l0.62-.68-3.15-1.91q-2.6-1.56-5.17-3.12c-0.94-.56-1.87-1.12-2.8-1.69-2.46-1.49-5.01-3.04-7.56-4.5a4.759,4.759,0,0,1-2.61-4.55c0.04-9.35.05-18.98,0.01-29.45a4.692,4.692,0,0,1,2.55-4.44c5.86-3.5,11.81-7.07,17.56-10.54q4.05-2.43,8.09-4.86c0.4-.23.8-0.45,1.22-0.67,0.14-.08.29-0.16,0.43-0.23h1.89c0.14,0.07.28,0.15,0.42,0.22,0.43,0.23.83,0.44,1.22,0.67q4.785,2.865,9.56,5.74,8.1,4.875,16.21,9.73a4.577,4.577,0,0,1,2.43,4.37c-0.03,10.59-.03,20.22.01,29.45a4.794,4.794,0,0,1-2.61,4.55c-3.29,1.93-6.61,3.93-9.81,5.87-1.15.69-2.3,1.39-3.45,2.08-1.05.63-2.09,1.27-3.15,1.91l-2.36,1.44,0.74,0.68c0.08,0.07.14,0.13,0.19,0.18a3.264,3.264,0,0,0,.4.34l2.5,1.67c4.75,3.16,9.67,6.43,14.53,9.61a2.047,2.047,0,0,0,1.07.27,2.841,2.841,0,0,0,1.33-.32c2.52-1.45,5.5-3.18,8.42-5.04a4.769,4.769,0,0,1,2.61-.85,5.239,5.239,0,0,1,2.69.85c9.01,5.47,17.2,10.39,25.03,15.05a6.416,6.416,0,0,1,3.07,3.24v32.6a6.416,6.416,0,0,1-3.07,3.24c-9.49,5.65-17.36,10.39-24.79,14.92a4.98,4.98,0,0,1-5.81-.01c-7.5-4.58-15.53-9.42-25.29-15.21a4.834,4.834,0,0,1-2.61-4.68c0.05-2.24.04-4.52,0.02-6.73,0-.98-0.01-1.95-0.01-2.93v-0.76h-20.88l-0.01,6.05c0,1.61,0,3.22.01,4.83a4.249,4.249,0,0,1-2.17,3.94q-13.185,7.92-26.37,15.85A4.251,4.251,0,0,1,2061.78,9956Zm26.24-47.68q-0.315.18-.6,0.33c-0.38.21-.71,0.39-1.03,0.59-1.88,1.13-3.75,2.25-5.62,3.38-5.16,3.11-10.5,6.33-15.77,9.45a2.986,2.986,0,0,0-1.6,2.9c0.04,6.03.03,12.16,0.03,18.09v8.75l1.81-1.05c0.37-.21.66-0.38,0.94-0.55,1.77-1.07,3.53-2.13,5.29-3.2,5.34-3.23,10.87-6.57,16.32-9.82a2.735,2.735,0,0,0,1.48-2.67c-0.03-5.82-.03-11.75-0.04-17.47v-6.72c0-.29-0.02-0.57-0.04-0.89-0.01-.15-0.03-0.32-0.04-0.51l-0.06-1.21Zm-53.61.57c-0.02.09-.03,0.16-0.04,0.22a2.032,2.032,0,0,0-.06.44v3.84c0,7.09,0,14.42.05,21.63a2.871,2.871,0,0,0,1.33,2.1c2.68,1.66,5.43,3.3,8.09,4.89,0.9,0.54,1.81,1.08,2.72,1.62l13.35,8.01,0.13-1.18a3.534,3.534,0,0,1,.05-0.41,4.407,4.407,0,0,0,.05-0.6v-6.64c0-6.03,0-12.26.03-18.39a2.454,2.454,0,0,0-1.45-2.27q-6.7-4.02-13.4-8.05l-8.58-5.16c-0.27-.16-0.54-0.29-0.81-0.42-0.12-.05-0.24-0.11-0.37-0.18l-0.92-.46Zm136.17-.59c-0.2.1-.38,0.2-0.55,0.28-0.35.18-.65,0.34-0.95,0.52-2,1.2-4,2.41-6,3.61-5.12,3.08-10.42,6.27-15.64,9.38a2.854,2.854,0,0,0-1.55,2.79c0.03,6.1.03,12.3,0.03,18.3v8.46l1.1-.57c0.2-.1.37-0.19,0.53-0.27a8.7,8.7,0,0,0,.81-0.42c1.95-1.18,3.88-2.36,5.82-3.54,4.73-2.87,9.61-5.84,14.48-8.64a5.463,5.463,0,0,0,3.11-5.52c-0.14-5.63-.12-11.15-0.09-17q0.015-3.33.01-6.71v-1.27Zm-53.81,5.23c0,7.11,0,14.46.04,21.66a2.786,2.786,0,0,0,1.36,1.96c3.81,2.32,7.69,4.64,11.45,6.89l2.77,1.66c2,1.19,3.99,2.39,6.04,3.61l3.86,2.31,0.16-1.13c0.02-.17.04-0.29,0.06-0.39a3.443,3.443,0,0,0,.06-0.53v-3.91c0.01-6.98.01-14.19-.05-21.29a3.046,3.046,0,0,0-1.45-2.2c-6.49-3.95-13.11-7.93-19.52-11.78l-2.58-1.55c-0.24-.14-0.48-0.25-0.74-0.37a3.947,3.947,0,0,1-.37-0.17l-1.09-.51v5.74Zm-19.62-32.61a2.861,2.861,0,0,0-1.57.59c-2.79,1.89-5.65,3.78-8.41,5.61-1.05.7-2.1,1.39-3.14,2.09-1.28.84-2.55,1.69-3.89,2.58l-2.83,1.89,4.55,2.74c2.88,1.73,5.59,3.36,8.36,5.01a4.4,4.4,0,0,1,2.34,4.13c-0.01,2.31-.01,4.66-0.01,6.93,0,1,.01,1.99.01,2.98v5.72h20.88v-2.35c0-1.25.01-2.49,0.02-3.74,0.02-2.91.03-5.91-.05-8.87a5.181,5.181,0,0,1,2.98-5.18c2.46-1.37,4.9-2.87,7.26-4.31,0.95-.58,1.9-1.16,2.86-1.73,0.25-.16.48-0.32,0.72-0.49,0.11-.08.22-0.16,0.34-0.24l0.77-.53-0.68-.64c-0.06-.06-0.12-0.11-0.16-0.16a2.366,2.366,0,0,0-.34-0.29q-2.265-1.515-4.53-3.01c-4.08-2.72-8.31-5.53-12.45-8.32a2.251,2.251,0,0,0-1.27-.43,2.185,2.185,0,0,0-1.41.58,7.029,7.029,0,0,1-4.47,1.89,7.172,7.172,0,0,1-4.53-1.91A2.079,2.079,0,0,0,2097.15,9880.92Zm-35.31,7.73a2.98,2.98,0,0,0-1.41.36c-4.28,2.54-8.62,5.16-12.81,7.69l-12.4,7.49,5.04,3.03c7.04,4.23,13.69,8.23,20.51,12.27a1.632,1.632,0,0,0,.82.2,3.291,3.291,0,0,0,1.57-.44c4.75-2.8,9.56-5.68,14.21-8.48l1.73-1.03c1.87-1.13,3.74-2.25,5.64-3.4l3.39-2.05-0.88-.67a1.412,1.412,0,0,1-.17-0.14,3.976,3.976,0,0,0-.33-0.24l-3.31-1.99c-6.76-4.07-13.74-8.27-20.63-12.37A1.933,1.933,0,0,0,2061.84,9888.65Zm82.37-.13a2.586,2.586,0,0,0-1.39.49q-4.635,2.8-9.27,5.6l-15.87,9.58,5.07,3.05c7.01,4.21,13.62,8.19,20.4,12.21a1.894,1.894,0,0,0,.96.23h0a2.962,2.962,0,0,0,1.44-.37c5.23-3.1,10.54-6.29,15.66-9.37l2.94-1.77c1.23-.74,2.46-1.48,3.72-2.24l2.7-1.63-0.88-.67c-0.1-.07-0.17-0.14-0.24-0.19a3.907,3.907,0,0,0-.41-0.3l-5.82-3.5c-5.85-3.52-11.91-7.15-17.84-10.76A2.243,2.243,0,0,0,2144.21,9888.52Zm-68.67-47.31c0,7.33,0,14.26.05,21.35a2.853,2.853,0,0,0,1.37,2.08c3.78,2.32,7.64,4.62,11.38,6.86l2.35,1.41c2.1,1.26,4.21,2.52,6.41,3.83l4.23,2.52s-0.01-6.91-.01-8.82c0-5.91-.01-12.03.03-18.04a2.969,2.969,0,0,0-1.64-2.89c-5.2-3.09-10.47-6.26-15.57-9.33q-3.21-1.935-6.42-3.86a5.056,5.056,0,0,0-.74-0.36q-0.165-.075-0.36-0.15l-1.07-.49Zm53.72-5.39c-0.16.08-.31,0.16-0.44,0.23a8.251,8.251,0,0,0-.73.39c-1.95,1.17-3.9,2.35-5.85,3.52-5.25,3.16-10.68,6.43-16.03,9.62a2.848,2.848,0,0,0-1.56,2.79c0.03,6.1.03,12.3,0.03,18.3l-0.01,8.57,1.14-.63c0.23-.14.44-0.25,0.63-0.35,0.37-.21.66-0.37,0.95-0.54q2.85-1.725,5.71-3.45c5.21-3.16,10.59-6.41,15.9-9.59a2.771,2.771,0,0,0,1.5-2.66c-0.04-5.82-.04-11.72-0.04-17.44q0-3.39-.01-6.78c0-.29-0.02-0.58-0.04-0.88-0.01-.15-0.03-0.31-0.04-0.48l-0.07-1.17ZM2102.98,9816a2.661,2.661,0,0,0-1.41.51q-3.9,2.355-7.79,4.7l-5.8,3.5c-2.4,1.45-4.8,2.9-7.24,4.38l-4.28,2.59,6.54,3.93c6.46,3.88,12.57,7.55,18.78,11.33a2.169,2.169,0,0,0,1.16.35,2.8,2.8,0,0,0,1.5-.54l0.04-.02q7.185-4.32,14.35-8.62l8.5-5.09c0.24-.15.47-0.31,0.71-0.48,0.1-.07.21-0.15,0.32-0.23l0.82-.55-0.75-.65a1.294,1.294,0,0,1-.17-0.15,2.327,2.327,0,0,0-.35-0.27q-2.925-1.77-5.85-3.52c-5.89-3.53-11.97-7.19-17.94-10.82A2.13,2.13,0,0,0,2102.98,9816Z" transform="translate(-2031 -9812.5)"/>
</svg>
