<svg xmlns="http://www.w3.org/2000/svg" width="143" height="144" viewBox="0 0 143 144">
  <defs>
    <style>
      .cls-1 {
        fill: #bfc8dd;
        fill-rule: evenodd;
      }
    </style>
  </defs>
  <path id="entry-icn02.svg" class="cls-1" d="M1326.81,11512h-45.24c-5.22,0-9.26-3.1-10.04-7.6a38.781,38.781,0,0,1-.27-7.3c0.02-.7.04-1.4,0.04-2.1a1.12,1.12,0,0,1,1.25-1,1.3,1.3,0,0,1,1.34,1.3c0.07,1.4.06,2.9,0.06,4.3v1.7c0.03,5.2,2.78,8,7.97,8h50.31l-1.17-1.3a3.345,3.345,0,0,0-.46-0.5,7.411,7.411,0,0,0-.73-0.8l-3.69-3.7c-4.04-4-8.21-8.2-12.35-12.3-1.58-1.5-2.11-2.9-1.78-4.6a2.1,2.1,0,0,0-.46-1.7c-0.9-1-1.84-1.9-2.74-2.8-0.31-.3-1.37-1.4-1.37-1.4l-0.53.4a41.483,41.483,0,0,1-23.7,7.5h0a41.146,41.146,0,0,1-32.67-16.1,40.663,40.663,0,0,1,56.93-56.9,40.108,40.108,0,0,1,15.76,25.9,40.641,40.641,0,0,1-7.06,30.4l-0.38.5,0.46,0.4c0.32,0.3.63,0.7,0.95,1q1.365,1.35,2.82,2.7a2.746,2.746,0,0,0,1.38.4h0.39a2.739,2.739,0,0,1,.89-0.1,4.408,4.408,0,0,1,3.12,1.4l3.94,3.9c5.06,5,10.29,10.2,15.39,15.4a8.673,8.673,0,0,1,1.6,10.2,3.341,3.341,0,0,0-.29.5l-0.72,1.5h30.57a6.742,6.742,0,0,0,6.26-6.3c0.07-.7.07-1.4,0.07-2v-103.2h-19.65c-4.64,0-7.31-2.7-7.31-7.3-0.01-3.8-.01-7.7-0.01-11.5l0.01-5.4c-0.01-2.4-.35-2.8-2.81-2.8H1281.9c-5.11,0-7.94,2.9-7.95,8v19.8a8.135,8.135,0,0,1-.05,1.2,1.159,1.159,0,0,1-1.31,1.2h-0.06a1.153,1.153,0,0,1-1.27-1.1,9.43,9.43,0,0,1-.06-1.3v-0.2c0-1.9.02-3.8,0.04-5.7,0.03-4.1.07-8.4-.09-12.7-0.24-6.4,2.57-10.4,8.36-11.9h75.65c3.09,0.7,5.34,2.8,7.39,4.9,6.11,6.2,12.62,12.7,19.36,19.3a10.9,10.9,0,0,1,3.52,8.4c-0.02,22.4-.02,45.1-0.02,67.1,0.01,11.2.01,22.4,0,33.5,0,6.8-4.02,10.8-10.76,10.8h-47.84Zm-4.11-32.9a2.262,2.262,0,0,0-1.48.8c-1.71,1.8-3.54,3.6-5.42,5.4a2.531,2.531,0,0,0-.96,1.7,2.457,2.457,0,0,0,.94,1.8c4.02,3.9,8.08,8,12.01,11.9,1.54,1.6,3.08,3.1,4.62,4.6a5.023,5.023,0,0,0,.66.7c0.62,0.6,1.25,1.3,1.96,1.9a6.206,6.206,0,0,0,3.78,1.4,5.688,5.688,0,0,0,2.76-.7c2.09-1,3.27-2.8,3.72-5.5l0.04-.3-0.12-.2c-0.18-.4-0.35-0.7-0.52-1.1a8.272,8.272,0,0,0-1.52-2.6c-4.1-4.2-8.32-8.4-12.4-12.4q-3.3-3.3-6.58-6.6A2.312,2.312,0,0,0,1322.7,11479.1Zm-39.61-69.4a37.852,37.852,0,0,0-26.96,64.5,37.1,37.1,0,0,0,26.54,11.2h0.17a38.122,38.122,0,0,0,27.03-11,37.831,37.831,0,0,0-26.61-64.7h-0.17Zm26.79,68.6,4.31,4.7,4.27-4.4-4.21-4.4Zm48.57-98.8v10.8c0,3.2,1.42,4.6,4.75,4.6h14.99c0.1,0,.21-0.1.3-0.1l1.66-.1-21.7-21.6v6.4Zm-48.79,18.2h-20.73c-2.82,0-4.33-1.6-4.36-4.4-0.02-2.3-.02-4.7,0-7.1,0.03-2.9,1.46-4.3,4.37-4.3h41.16c3.19,0,4.55,1.3,4.57,4.5,0.01,2.3.03,4.6,0,7-0.04,2.8-1.52,4.3-4.28,4.3h-20.73Zm19.81-2.8h0.2c0.11,0,.23.1,0.33,0.1h0a1.386,1.386,0,0,0,.66-0.2,1.69,1.69,0,0,0,1.21-1.4c0.05-2,.04-4.1.04-6.2v-2.5h-44.59v0.7c0,0.8.01,1.5,0.02,2.2,0.01,1.7.03,3.3-.05,4.9a2.062,2.062,0,0,0,2.42,2.5c8.05-.1,15.88-0.1,22.48-0.1h17.28Zm22.25,44H1333.9a2.388,2.388,0,0,1-1.63-.4,1.512,1.512,0,0,1-.31-1c0.01-.3.03-1.3,1.91-1.3h35.63c1.35,0,2.04.5,2.05,1.3a1.152,1.152,0,0,1-.32.9,2.137,2.137,0,0,1-1.7.5h-17.81Zm-18,12.9a1.508,1.508,0,0,1-1.68-.9,1.234,1.234,0,0,1,.06-1.1,1.985,1.985,0,0,1,1.62-.8h35.95a2,2,0,0,1,.78.1,1.246,1.246,0,0,1,1.07,1.4,1.185,1.185,0,0,1-1.25,1.2,0.94,0.94,0,0,1-.55.1h-36Zm31.74-25.7h-31.05a6.423,6.423,0,0,1-1.43-.1,1.162,1.162,0,0,1-1-1.4,1.116,1.116,0,0,1,1.21-1.2h36.59c1.36,0,1.47.4,1.53,0.7a2.156,2.156,0,0,1-.21,1.5,2.925,2.925,0,0,1-1.6.5h-4.04Zm-23.04,38.5h-8.69c-1.74,0-1.76-1-1.77-1.3a1.482,1.482,0,0,1,.34-1,1.783,1.783,0,0,1,1.34-.4h17.81a1.711,1.711,0,0,1,1.3.4,1.474,1.474,0,0,1,.33,1c-0.02.3-.06,1.3-1.69,1.3h-8.97Zm-59.37,15a31.967,31.967,0,0,1-31.52-25.8,2.441,2.441,0,0,1,.15-1.8,1.482,1.482,0,0,1,.77-0.5h0.36c0.25,0,1.03,0,1.39,1.7a29.145,29.145,0,0,0,6.61,13.5l0.7,0.8,0.54-.9c2.32-4,6.16-4.7,10.21-5.4,1.05-.2,2.13-0.4,3.17-0.6l0.51-.1,0.07-.6a4.676,4.676,0,0,0-1.4-4.7,10.985,10.985,0,0,1-2.34-3.3c-0.22-.5-0.4-0.9-0.59-1.4a6.615,6.615,0,0,0-2.19-3.4,3.232,3.232,0,0,1-.41-1.8c-0.06-2.8-.07-5.8-0.02-9.8a8.644,8.644,0,0,1,8.35-8.7c1.49-.1,3.08-0.1,5-0.1h5.78a4.536,4.536,0,0,1,4.29,3,3.687,3.687,0,0,0,1.53,1.4,4.358,4.358,0,0,1,2.93,4.1c0.04,2.4.04,4.8,0.04,7.2q-0.015,1.5,0,3a3.2,3.2,0,0,1-1.38,2.7,3.545,3.545,0,0,0-1.11,1.8,10.287,10.287,0,0,1-3.13,5.4,4.245,4.245,0,0,0-1.48,4.7l0.11,0.4,0.46,0.1c1.03,0.3,2.09.4,3.11,0.6,4.16,0.7,8.08,1.4,10.46,5.6l0.52,0.9,0.71-.8c0.11-.1.21-0.2,0.31-0.3a7.91,7.91,0,0,1,.63-0.7c6.94-9.3,8.3-19.2,4.04-29.5-4.29-10.3-12.5-16.5-23.75-17.8a20.906,20.906,0,0,0-3.53-.2,29.387,29.387,0,0,0-18.79,6.8,28.718,28.718,0,0,0-10.01,17.2c-0.23,1.3-.71,2-1.44,2a0.293,0.293,0,0,1-.25-0.1,1.183,1.183,0,0,1-.88-0.4,2.762,2.762,0,0,1-.16-2c2.09-10.4,7.76-18,16.88-22.7a32.564,32.564,0,0,1,14.87-3.7,32.014,32.014,0,0,1,21.01,7.9,32.456,32.456,0,0,1,10.91,20.6,31.644,31.644,0,0,1-6.65,23.5,32.368,32.368,0,0,1-21.36,12C1285.74,11479.5,1284.39,11479.6,1283.05,11479.6Zm-8.16-16h-0.27l-0.78.2a46.333,46.333,0,0,0-6.21,1.5,6.6,6.6,0,0,0-2.73,2.1l-0.05.1a2.375,2.375,0,0,0-.69,1.8,2.9,2.9,0,0,0,1.24,1.8,30.184,30.184,0,0,0,17.84,5.8,29.62,29.62,0,0,0,17.57-5.9,2.3,2.3,0,0,0,1.13-1.7,1.959,1.959,0,0,0-.57-1.5l-0.16-.2a7.843,7.843,0,0,0-3.2-2.5,35.6,35.6,0,0,0-5.51-1.4,5.345,5.345,0,0,1-1.24-.2H1291a2.874,2.874,0,0,0-1.58.7,11.026,11.026,0,0,1-6.54,2.4,10.163,10.163,0,0,1-6.43-2.4A3.192,3.192,0,0,0,1274.89,11463.6Zm4.08-4.3c-0.02.2-.05,0.4-0.08,0.6a5.558,5.558,0,0,0-.13,1.4,2.109,2.109,0,0,0,.94,1.7,7.491,7.491,0,0,0,3.2.8,6.972,6.972,0,0,0,3.36-.9,1.615,1.615,0,0,0,.87-1.4,12.116,12.116,0,0,0-.19-1.6c-0.03-.2-0.06-0.4-0.08-0.6l-0.09-.6h-7.72Zm-6.97-16.2a2.385,2.385,0,0,0,1.19,3.2,2.633,2.633,0,0,1,.71,1.2,3.192,3.192,0,0,1,.17.8c0.03,0.3.06,0.6,0.12,0.9a9.147,9.147,0,0,0,8.85,6.9h0.3a9,9,0,0,0,8.55-7.4l0.03-.2c0.23-1.4.42-2.2,1.46-2.6a1.707,1.707,0,0,0,.82-1.4c0.03-.9.03-1.8,0.02-2.7v-1.7l-1.12-.1a17.651,17.651,0,0,0-3.23-.3,7.906,7.906,0,0,0-4.15,1,13.141,13.141,0,0,1-6.96,1.8h-6.6Zm3.79-3.3h2.49a11.744,11.744,0,0,0,6.54-1.7,9.1,9.1,0,0,1,4.76-1.2,3.237,3.237,0,0,1,.97.1,12.485,12.485,0,0,1,1.93.1l1.62,0.1,0.03-.8c0.06-1.5.11-2.6-1.65-2.8a2.7,2.7,0,0,1-2.57-2.4,2.273,2.273,0,0,0-1.91-1.7c-1.74,0-3.6-.1-5.44-0.1-1.95,0-3.68.1-5.29,0.1a5.931,5.931,0,0,0-5.43,5.5,26.673,26.673,0,0,0-.03,2.7c0.01,0.4.01,0.9,0.01,1.3v0.8h3.97Z" transform="translate(-1242.44 -11368)"/>
</svg>
