<svg xmlns="http://www.w3.org/2000/svg" width="21" height="16" viewBox="0 0 21 16">
  <defs>
    <style>
      .cls-1 {
        fill: #fff;
        fill-rule: evenodd;
      }
    </style>
  </defs>
  <path id="header-icn_contact.svg" class="cls-1" d="M2345.38,420.349a2.263,2.263,0,0,1-2.25-1.561,2.323,2.323,0,0,1-.12-0.735q-0.015-5.706-.01-11.414a2.288,2.288,0,0,1,2.36-2.294c1.07,0,7.46,0,7.46,0h8.79a2.3,2.3,0,0,1,2.27,1.563,2.416,2.416,0,0,1,.08.259l0.04,0.14v12.08l-0.04.134a2.19,2.19,0,0,1-.07.245,2.293,2.293,0,0,1-2.12,1.582l-0.15,0h-16.24Zm16.31-1.176a0.2,0.2,0,0,0,.06,0c0.04-.006.07-0.014,0.11-0.022l-6.5-5.992-0.69.636a1.625,1.625,0,0,1-2.33.008l-0.7-.643-6.5,6a2.038,2.038,0,0,0,.31.018h16.1Zm1.07-.809a1.417,1.417,0,0,0,.05-0.368V406.7a1.37,1.37,0,0,0-.05-0.371l-6.52,6.019Zm-18.51-12.03a1,1,0,0,0-.05.279q-0.015,5.734,0,11.471a0.979,0.979,0,0,0,.05.275l6.52-6.013Zm8.91,6.605a0.522,0.522,0,0,0,.34.166h0a0.53,0.53,0,0,0,.35-0.172l8-7.384a1.624,1.624,0,0,0-.24-0.023q-5.16,0-10.32,0h-5.96l-0.05-.253v0.253a0.19,0.19,0,0,0-.04,0l-0.09.022Z" transform="translate(-2343 -404.344)"/>
</svg>
