<svg xmlns="http://www.w3.org/2000/svg" width="21" height="16" viewBox="0 0 21 16">
  <defs>
    <style>
      .cls-1 {
        fill: #fff;
        fill-rule: evenodd;
      }
    </style>
  </defs>
  <path id="header-icn_contact.svg" class="cls-1" d="M2345.38,420.349a2.263,2.263,0,0,1-2.25-1.561,2.322,2.322,0,0,1-.12-0.734q-0.015-5.707-.01-11.415a2.289,2.289,0,0,1,2.36-2.294c1.07,0,7.46,0,7.46,0h8.79a2.3,2.3,0,0,1,2.27,1.564,2.489,2.489,0,0,1,.08.259l0.04,0.14v12.081l-0.04.134a2.236,2.236,0,0,1-.07.244,2.292,2.292,0,0,1-2.12,1.582l-0.15,0h-16.24Zm16.31-1.175a0.192,0.192,0,0,0,.06-0.006c0.04-.006.07-0.014,0.11-0.022l-6.5-5.992-0.69.636a1.625,1.625,0,0,1-2.33.008l-0.7-.643-6.5,6a2.038,2.038,0,0,0,.31.018h16.1Zm1.07-.81a1.411,1.411,0,0,0,.05-0.368V406.7a1.357,1.357,0,0,0-.05-0.37l-6.52,6.019Zm-18.51-12.03a1.011,1.011,0,0,0-.05.279q-0.015,5.736,0,11.471a0.979,0.979,0,0,0,.05.275l6.52-6.012Zm8.91,6.606a0.52,0.52,0,0,0,.34.165h0a0.53,0.53,0,0,0,.35-0.172l8.01-7.383a1.755,1.755,0,0,0-.25-0.024q-5.16,0-10.32,0h-5.96l-0.05-.252v0.252a0.19,0.19,0,0,0-.04,0l-0.09.022Z" transform="translate(-2343 -404.344)"/>
</svg>
