<svg xmlns="http://www.w3.org/2000/svg" width="24" height="27" viewBox="0 0 24 27">
  <defs>
    <style>
      .cls-1 {
        fill: #fff;
        fill-rule: evenodd;
      }
    </style>
  </defs>
  <path id="hero_bnr-icn_soudan.svg" class="cls-1" d="M2216.66,1173l-0.67-.37c-0.44-.24-0.89-0.48-1.32-0.73l-3.87-2.28c-1.62-.95-3.23-1.9-4.85-2.84a1.773,1.773,0,0,1-.95-1.65q0.015-5.64,0-11.28a1.768,1.768,0,0,1,.95-1.64c3.36-1.96,6.7-3.93,10.05-5.91a1.817,1.817,0,0,1,2,0q5.01,2.955,10.03,5.89a1.822,1.822,0,0,1,.97,1.69q-0.015,5.61,0,11.23a1.843,1.843,0,0,1-.97,1.69c-2.06,1.2-4.11,2.4-6.17,3.61l-3.86,2.27a3.418,3.418,0,0,1-.43.21l-0.24.11h-0.67Zm4.16-14.3c-0.95.56-1.91,1.13-2.88,1.67a0.318,0.318,0,0,0-.2.36c0.01,2.77,0,5.55,0,8.32v2.08l2.16-1.26c2.45-1.44,4.89-2.88,7.34-4.31a0.471,0.471,0,0,0,.28-0.48q-0.015-4.11-.01-8.23v-2.08Zm-14.33-1.88q0,4.125-.01,8.27a0.466,0.466,0,0,0,.28.47l7.32,4.29,2.17,1.28v-2.18q0-4.05.01-8.1a0.48,0.48,0,0,0-.3-0.54c-2.46-1.42-4.91-2.86-7.36-4.3l-2.11-1.25v2.06Zm2.68-2.18q3.765,2.2,7.53,4.43a0.618,0.618,0,0,0,.3.1h0a0.671,0.671,0,0,0,.3-0.09c2.55-1.52,5.12-3.02,7.68-4.52l2.09-1.23-2.24-1.32q-3.795-2.22-7.58-4.45a0.508,0.508,0,0,0-.25-0.09,0.479,0.479,0,0,0-.25.08q-3.03,1.8-6.07,3.58l-3.74,2.2Z" transform="translate(-2205 -1146)"/>
</svg>
