<svg version="1.1" id="レイヤー_1" xmlns="http://www.w3.org/2000/svg" xmlns:xlink="http://www.w3.org/1999/xlink" x="0px" y="0px" viewBox="0 0 1792 1792" style="enable-background:new 0 0 1792 1792;" xml:space="preserve">
<style type="text/css">
	.st0{fill:#666666;}
</style>
<path class="st0" d="M832,960v384c0,53.3-18.7,98.7-56,136s-82.7,56-136,56H256c-53.3,0-98.7-18.7-136-56s-56-82.7-56-136V640
	c0-69.3,13.5-135.5,40.5-198.5S168,324,214,278s100.5-82.5,163.5-109.5S506.7,128,576,128h64c17.3,0,32.3,6.3,45,19s19,27.7,19,45
	v128c0,17.3-6.3,32.3-19,45s-27.7,19-45,19h-64c-70.7,0-131,25-181,75s-75,110.3-75,181v32c0,26.7,9.3,49.3,28,68s41.3,28,68,28h224
	c53.3,0,98.7,18.7,136,56S832,906.7,832,960z M1728,960v384c0,53.3-18.7,98.7-56,136s-82.7,56-136,56h-384c-53.3,0-98.7-18.7-136-56
	c-37.3-37.3-56-82.7-56-136V640c0-69.3,13.5-135.5,40.5-198.5S1064,324,1110,278s100.5-82.5,163.5-109.5S1402.7,128,1472,128h64
	c17.3,0,32.3,6.3,45,19s19,27.7,19,45v128c0,17.3-6.3,32.3-19,45s-27.7,19-45,19h-64c-70.7,0-131,25-181,75s-75,110.3-75,181v32
	c0,26.7,9.3,49.3,28,68s41.3,28,68,28h224c53.3,0,98.7,18.7,136,56S1728,906.7,1728,960z"/>
</svg>
