<svg version="1.1" id="レイヤー_1" xmlns="http://www.w3.org/2000/svg" xmlns:xlink="http://www.w3.org/1999/xlink" x="0px" y="0px" viewBox="0 0 1792 1792" style="enable-background:new 0 0 1792 1792;" xml:space="preserve">
<style type="text/css">
	.st0{fill:#666666;}
</style>
<path class="st0" d="M832,320v704c0,69.3-13.5,135.5-40.5,198.5S728,1340,682,1386s-100.5,82.5-163.5,109.5S389.3,1536,320,1536h-64
	c-17.3,0-32.3-6.3-45-19s-19-27.7-19-45v-128c0-17.3,6.3-32.3,19-45s27.7-19,45-19h64c70.7,0,131-25,181-75s75-110.3,75-181v-32
	c0-26.7-9.3-49.3-28-68s-41.3-28-68-28H256c-53.3,0-98.7-18.7-136-56s-56-82.7-56-136V320c0-53.3,18.7-98.7,56-136s82.7-56,136-56
	h384c53.3,0,98.7,18.7,136,56S832,266.7,832,320z M1728,320v704c0,69.3-13.5,135.5-40.5,198.5S1624,1340,1578,1386
	s-100.5,82.5-163.5,109.5S1285.3,1536,1216,1536h-64c-17.3,0-32.3-6.3-45-19s-19-27.7-19-45v-128c0-17.3,6.3-32.3,19-45
	s27.7-19,45-19h64c70.7,0,131-25,181-75s75-110.3,75-181v-32c0-26.7-9.3-49.3-28-68s-41.3-28-68-28h-224c-53.3,0-98.7-18.7-136-56
	c-37.3-37.3-56-82.7-56-136V320c0-53.3,18.7-98.7,56-136c37.3-37.3,82.7-56,136-56h384c53.3,0,98.7,18.7,136,56S1728,266.7,1728,320
	z"/>
</svg>
