<svg xmlns="http://www.w3.org/2000/svg" width="200" height="200" viewBox="0 0 200 200">
  <defs>
    <style>
      .cls-1 {
        fill: #d9e1e7;
        fill-rule: evenodd;
      }
    </style>
  </defs>
  <path id="infographics-icn08.svg" class="cls-1" d="M1771.77,3828.75c-1.73,0-3.5-.04-5.27-0.11a6.393,6.393,0,0,1-5.97-4.39c-0.31-.77-0.58-1.62-0.83-2.44-0.62-1.98-1.26-4.03-2.63-5.45a10.7,10.7,0,0,0-4.41-2.26,15.384,15.384,0,0,1-3.18-1.32,9.474,9.474,0,0,0-5.12-1.59,12.845,12.845,0,0,0-5.52,1.47c-2.8,1.33-4.72,2.1-6.29,2.1-1.98,0-3.54-1.17-6.92-4.47-1.47-1.43-3-3.06-4.67-4.98a6.066,6.066,0,0,1-1.04-6.66c0.41-1.04.87-2.09,1.32-3.11,0.59-1.35,1.2-2.74,1.71-4.15a4.885,4.885,0,0,0-.04-3.18c-1.17-3.13-2.51-6.37-3.97-9.64a4.565,4.565,0,0,0-2.11-2.12c-1.67-.77-3.4-1.44-5.08-2.09-0.62-.24-1.24-0.48-1.87-0.73a6.463,6.463,0,0,1-4.46-6.12c-0.14-3.45-.14-6.87,0-10.16a6.411,6.411,0,0,1,4.48-6.1l1.09-.42c1.94-.74,3.95-1.51,5.87-2.39a4.568,4.568,0,0,0,2.09-2.16c1.38-3.1,2.72-6.34,3.97-9.64a4.567,4.567,0,0,0,.1-3c-0.61-1.65-1.32-3.27-2.01-4.85-0.32-.74-0.65-1.49-0.97-2.24a6.286,6.286,0,0,1,1.21-7.28c2.36-2.49,4.79-4.92,7.2-7.2a6.277,6.277,0,0,1,4.38-1.9,7.52,7.52,0,0,1,3.05.7l0.65,0.29c2.1,0.92,4.27,1.87,6.46,2.68a3.3,3.3,0,0,0,1.17.19,4.823,4.823,0,0,0,1.65-.3c3.63-1.41,6.78-2.72,9.63-4.01a5.064,5.064,0,0,0,2.27-2.17,29.1,29.1,0,0,0,1.96-4.84c1.26-4.15,3.56-6.28,7.21-6.71h9.76c3.72,0.53,6.01,2.7,7,6.62,1.33,5.3,4.14,8.09,8.84,8.8a6.127,6.127,0,0,1,2.72,1.19,6.11,6.11,0,0,0,3.83,1.42h0a8.756,8.756,0,0,0,4.13-1.24,34.935,34.935,0,0,1,3.59-1.59c0.4-.17.81-0.33,1.21-0.49a7.059,7.059,0,0,1,2.71-.59,5.486,5.486,0,0,1,3.75,1.5c2.83,2.58,5.57,5.32,8.15,8.15a5.8,5.8,0,0,1,.91,6.46c-0.35.83-.71,1.66-1.07,2.49-0.68,1.55-1.38,3.16-1.97,4.78a4.8,4.8,0,0,0,.05,3.15c1.11,2.95,2.41,6.1,3.98,9.64a4.184,4.184,0,0,0,1.92,2.05c1.66,0.76,3.37,1.44,5.02,2.1,0.76,0.3,1.52.6,2.27,0.91,2.7,1.1,4.12,3,4.21,5.64,0.13,3.82.12,7.56-.03,11.13a5.825,5.825,0,0,1-3.86,5.27c-0.96.42-1.96,0.81-2.93,1.19-1.43.57-2.92,1.16-4.35,1.83a5.178,5.178,0,0,0-2.3,2.39c-1.3,2.82-2.59,5.91-3.95,9.45a4.577,4.577,0,0,0-.11,2.98c0.74,2.01,1.62,4,2.47,5.92l0.52,1.17a6.2,6.2,0,0,1-1.17,7.27c-2.33,2.48-4.8,4.95-7.33,7.33a6.092,6.092,0,0,1-4.24,1.78,7.729,7.729,0,0,1-2.9-.62c-0.87-.35-1.73-0.73-2.59-1.1-1.46-.64-2.98-1.29-4.51-1.84a4.169,4.169,0,0,0-1.41-.23,5.249,5.249,0,0,0-1.78.32c-3.19,1.2-6.37,2.51-9.46,3.91a4.853,4.853,0,0,0-2.3,2.19c-0.83,1.78-1.55,3.65-2.24,5.45-0.19.5-.38,1-0.58,1.5a6.319,6.319,0,0,1-5.98,4.36C1775.2,3828.72,1773.48,3828.75,1771.77,3828.75Zm-27.31-23.92a5.346,5.346,0,0,1,2.2.57c4.18,1.87,8.33,3.58,12.34,5.1a4.368,4.368,0,0,1,2.89,2.66c1.01,2.7,2.12,5.58,3.42,8.41a3.43,3.43,0,0,0,2.52,1.77c0.94,0.05,1.95.08,3.26,0.08,0.55,0,1.09,0,1.63-.01s1.08-.01,1.62-0.01c0.4,0,.8.01,1.19,0.01h0.08a2.51,2.51,0,0,0,2.6-1.86c0.57-1.52,1.19-3.06,1.8-4.55,0.53-1.31,1.08-2.67,1.6-4.02a3.987,3.987,0,0,1,2.63-2.41c2.01-.77,4.02-1.62,5.97-2.44,2.19-.92,4.46-1.87,6.71-2.72a5.2,5.2,0,0,1,1.9-.29c0.63,0,1.26.07,1.68,0.11a4.322,4.322,0,0,1,1.3.5,7.172,7.172,0,0,0,1.33.56,10.774,10.774,0,0,1,2.5,1.2,7.966,7.966,0,0,0,3.87,1.45,3.6,3.6,0,0,0,1.57-.35,15.673,15.673,0,0,0,4.63-3.88c0.58-.63,1.18-1.28,1.79-1.85a0.929,0.929,0,0,0,.33-0.53,5.98,5.98,0,0,1,.16-0.64,3.111,3.111,0,0,0,.13-1.93c-1.06-2.81-2.23-5.56-3.47-8.18a4.436,4.436,0,0,1,.22-4.4l0.6-1.15a37.061,37.061,0,0,0,3.52-8.32c0.82-3.44,2.6-5.31,6.34-6.68,7.94-2.89,8.22-3.34,7.46-11.93l-0.02-.15v-0.12a1.31,1.31,0,0,0-.19-0.79c-0.11-.16-0.22-0.34-0.33-0.52a3.381,3.381,0,0,0-1.37-1.48c-3.1-1.39-6.22-2.6-8.59-3.5a4.01,4.01,0,0,1-2.41-2.63c-0.75-1.91-1.55-3.82-2.33-5.67-0.95-2.29-1.95-4.65-2.83-7.01a5.557,5.557,0,0,1-.21-3.41,59.323,59.323,0,0,1,2.34-5.73c0.35-.78.7-1.57,1.04-2.36,0.12-.28.23-0.57,0.36-0.9l0.35-.87-0.19-.3c-0.06-.1-0.12-0.21-0.19-0.32a4.585,4.585,0,0,0-.66-0.96c-0.8-.86-1.61-1.71-2.42-2.55-1-1.05-2-2.09-2.98-3.16a2.487,2.487,0,0,0-1.88-.92,3.706,3.706,0,0,0-1.5.39c-1.45.66-2.94,1.29-4.39,1.9-1.28.54-2.61,1.09-3.9,1.67a3.584,3.584,0,0,1-1.53.35,5.424,5.424,0,0,1-2.21-.57c-3.88-1.76-7.91-3.43-12.33-5.12a4.176,4.176,0,0,1-2.82-2.47c-1.32-3.5-2.39-6.15-3.49-8.58a3.219,3.219,0,0,0-2.36-1.76c-1.34-.08-2.69-0.09-3.72-0.09-0.5,0-2.52.01-3.02,0.01-0.38,0-.76,0-1.15-0.01h0a2.727,2.727,0,0,0-2.75,2.08c-0.6,1.6-1.25,3.22-1.88,4.79-0.48,1.2-.96,2.4-1.42,3.6a4.035,4.035,0,0,1-2.67,2.39c-4.67,1.81-8.77,3.5-12.51,5.18a5.363,5.363,0,0,1-2.15.55,3.758,3.758,0,0,1-1.59-.37c-1.36-.62-2.75-1.2-4.1-1.77-1.32-.56-2.69-1.13-4.01-1.73a3.414,3.414,0,0,0-1.43-.36,2.478,2.478,0,0,0-1.79.8c-1.79,1.76-3.71,3.63-5.66,5.41a2.6,2.6,0,0,0-.55,3.38c0.63,1.38,1.23,2.8,1.81,4.18,0.57,1.35,1.16,2.74,1.78,4.1a4.142,4.142,0,0,1-.23,3.74c-1.92,4.27-3.57,8.24-5.05,12.15a4.481,4.481,0,0,1-2.71,3.07c-1.33.49-2.65,1.03-3.93,1.55-1.4.57-2.85,1.17-4.29,1.68a2.767,2.767,0,0,0-2.07,2.96c0.02,0.92.02,1.85,0.01,2.78-0.01,1.55-.02,3.14.09,4.71a3.452,3.452,0,0,0,1.78,2.53c2.86,1.29,5.85,2.43,8.42,3.39a4.329,4.329,0,0,1,2.65,2.9c1.52,3.99,3.24,8.13,5.11,12.33a4.1,4.1,0,0,1,.2,3.74c-1.4,3.1-2.56,5.83-3.53,8.35a3.048,3.048,0,0,0,.35,2.73,83,83,0,0,0,5.75,6,2.957,2.957,0,0,0,1.92.63,2.856,2.856,0,0,0,.97-0.16c3.16-1.2,6.23-2.55,8.55-3.59A3.643,3.643,0,0,1,1744.46,3804.83ZM1680.31,3896c-2.7-.67-4.3-2.52-5.34-6.15-0.64-2.22-2.14-3.16-3.9-4.08a12.211,12.211,0,0,0-5.68-1.57,11.033,11.033,0,0,0-5.57,1.62,4.082,4.082,0,0,1-2.06.57,5.257,5.257,0,0,1-3.51-1.54c-1.21-1.11-2.39-2.3-3.54-3.45l-1.07-1.07c-2.11-2.1-2.5-4.42-1.15-6.89,1.37-2.51,2.61-5.85.03-9.41a2.275,2.275,0,0,1-.35-0.98,4.713,4.713,0,0,0-3.82-3.9c-3.8-1.12-5.64-2.69-6.35-5.42v-8.09c0.7-2.66,2.6-4.34,5.97-5.26,2.59-.71,3.96-2.12,4.31-4.42a1.53,1.53,0,0,1,.24-0.61c2.58-3.55,1.33-6.89-.04-9.41-1.35-2.46-.95-4.78,1.17-6.89l1.14-1.14c1.12-1.12,2.29-2.29,3.47-3.38a5.3,5.3,0,0,1,3.53-1.53,4.567,4.567,0,0,1,2.23.61,10.193,10.193,0,0,0,10.69.15c1.95-1.02,3.79-1.99,4.41-4.61a12.647,12.647,0,0,1,1.06-2.58,4.492,4.492,0,0,1,3.8-2.86c1.58-.1,3.15-0.14,4.67-0.14,1.31,0,2.61.03,3.88,0.1a4.173,4.173,0,0,1,4.05,3.12c1.02,4.1,3.45,6.57,7.9,8a9.975,9.975,0,0,0,3.06.64,4.88,4.88,0,0,0,2.61-.76,11.54,11.54,0,0,1,1.77-.8c0.22-.08.43-0.16,0.65-0.25a6.525,6.525,0,0,1,2.43-.52,5.019,5.019,0,0,1,3.44,1.42c1.71,1.58,3.43,3.3,5.1,5.1a4.689,4.689,0,0,1,.93,5.75c-2.09,3.64-2.11,6.99-.08,10.85,1.04,1.99,2.02,3.56,4.34,4.16a13.438,13.438,0,0,1,2.78,1.14,4.539,4.539,0,0,1,2.87,3.8,73.014,73.014,0,0,1,.08,8.34,4.428,4.428,0,0,1-3.34,4.34c-3.99,1.03-6.39,3.37-7.77,7.6-0.7,2.14-1.13,3.95.11,6.02a12.908,12.908,0,0,1,.87,1.95l0.18,0.47a4.985,4.985,0,0,1-.83,5.54c-1.65,1.83-3.46,3.64-5.36,5.38a5.088,5.088,0,0,1-3.38,1.43,4.5,4.5,0,0,1-2.22-.61,10.742,10.742,0,0,0-5.43-1.58,11.705,11.705,0,0,0-5.45,1.49c-2.04,1.07-3.53,2.01-4.16,4.33-0.92,3.37-2.6,5.27-5.27,5.98h-8.1Zm-14.65-18.15a5.144,5.144,0,0,1,2.15.58,82.159,82.159,0,0,0,7.84,3.24,4.079,4.079,0,0,1,2.86,2.65,29.845,29.845,0,0,0,1.92,4.64,3.335,3.335,0,0,0,2.35,1.6c1.02,0.08,1.72.14,2.33,0.14,2.53,0,2.96-1.07,4.23-4.23,0.11-.27.2-0.5,0.3-0.72,0.21-.5.43-1.02,0.6-1.56a3.666,3.666,0,0,1,2.72-2.48c0.42-.14.84-0.27,1.27-0.4a20.067,20.067,0,0,0,5.09-2.09,6.451,6.451,0,0,1,3.56-1.16,8.59,8.59,0,0,1,3.83,1.06,9.3,9.3,0,0,0,3.64,1.29c1.31,0,2.14-.88,3.79-2.62l0.18-.19a2.494,2.494,0,0,0,.56-3.16c-0.37-.74-0.69-1.53-1-2.3-0.3-.72-0.6-1.47-0.95-2.2a3.762,3.762,0,0,1,.16-3.68l0.4-.76a25.452,25.452,0,0,0,2.39-5.67,5.921,5.921,0,0,1,4.68-4.94,6.114,6.114,0,0,0,.89-0.35,3.174,3.174,0,0,1,.71-0.27c2.89-.53,3.27-2.54,3.26-4.63-0.01-2.03-.41-3.98-3.17-4.48a3.051,3.051,0,0,1-.69-0.27,4.665,4.665,0,0,0-.91-0.36c-2.84-.69-4.34-2.29-4.73-5.03a6.561,6.561,0,0,0-1.09-2.86c-2.66-3.57-2.68-7.25-.04-11.58,0.09-.15.89-1.51,0.3-2.21l-0.2-.24a18.711,18.711,0,0,0-3.52-3.48,1.45,1.45,0,0,0-.83-0.23,6.241,6.241,0,0,0-2.54.85,10.321,10.321,0,0,1-5.1,1.62,7.084,7.084,0,0,1-4.49-1.7,2.983,2.983,0,0,0-1.39-.62c-4.71-.69-7.54-3.45-8.66-8.45a2.183,2.183,0,0,0-1.51-1.66l-0.68-.05c-0.71-.06-1.45-0.13-2.18-0.13a8.331,8.331,0,0,0-2.24.27c-0.88.24-1.31,1.3-1.73,2.32-0.1.26-.21,0.51-0.31,0.73a29.834,29.834,0,0,0-1.27,3.17,3.782,3.782,0,0,1-2.59,2.42c-1.24.46-2.47,0.98-3.66,1.48-1.47.62-2.99,1.26-4.51,1.78a6.359,6.359,0,0,1-1.99.28,13.882,13.882,0,0,1-1.6-.11,5.4,5.4,0,0,1-1.67-.63c-0.29-.15-0.57-0.29-0.86-0.42a9.292,9.292,0,0,0-3.24-1.02c-1.15,0-1.88.7-3.34,2.11l-0.24.23a3.162,3.162,0,0,0-.69,4.18c0.62,1.29,1.15,2.6,1.72,3.99,0.2,0.51.41,1.02,0.62,1.53-0.07.18-.14,0.37-0.21,0.55-0.21.55-.41,1.07-0.64,1.57-0.2.42-.44,0.83-0.69,1.26a8.527,8.527,0,0,0-1.22,2.8c-0.79,4.6-3.41,7.26-8.27,8.38-0.07.02-1.72,0.41-1.8,1.37a20.878,20.878,0,0,0,.02,5.24c0.19,1.16,2.27,1.76,2.68,1.87,4.37,1.14,6.52,3.33,6.97,7.09a2.651,2.651,0,0,0,.48,1.23c2.82,3.82,2.86,7.77.11,12.1a2.316,2.316,0,0,0,.02,2.37c0.17,0.19.34,0.4,0.52,0.6a10.159,10.159,0,0,0,3.24,2.9,1.652,1.652,0,0,0,.68.14h0a5.651,5.651,0,0,0,2.24-.75c0.35-.17.69-0.33,0.99-0.44a24.522,24.522,0,0,0,2.61-1.1A3.275,3.275,0,0,1,1665.66,3877.85Zm106.21-75.84a39.589,39.589,0,0,1-39.78-39.79,38.914,38.914,0,0,1,11.66-27.81,39.613,39.613,0,0,1,28.04-11.59h0.13a39.6,39.6,0,0,1-.04,79.19h-0.01Zm-0.05-73.83a34.25,34.25,0,1,0-.11,68.5h0.09a34.188,34.188,0,0,0,24.26-58.29,33.856,33.856,0,0,0-24.08-10.21h-0.16Zm-87.62,144.29a22.756,22.756,0,0,1-22.64-22.79,22.835,22.835,0,0,1,22.72-22.76h0.12a22.605,22.605,0,0,1,22.74,22.88,22.838,22.838,0,0,1-22.88,22.67h-0.06Zm0.27-40.2a17.273,17.273,0,1,0,.12,0h-0.12Z" transform="translate(-1638 -3696)"/>
</svg>
