<svg xmlns="http://www.w3.org/2000/svg" width="200" height="200" viewBox="0 0 200 200">
  <defs>
    <style>
      .cls-1 {
        fill: #d9e1e7;
        fill-rule: evenodd;
      }
    </style>
  </defs>
  <path id="infographics-icn09.svg" class="cls-1" d="M1345.28,3923c-2.73-.97-4.82-2.92-7.03-4.98-0.48-.45-0.97-0.91-1.46-1.35a4,4,0,0,0-2.58-1.26,3.444,3.444,0,0,0-2.67,1.81,13.411,13.411,0,0,1-7.29,5.78h-5.12c-4.21-1.42-6.78-4.01-7.85-7.93a3.183,3.183,0,0,0-3.15-2.31c-5.36-.48-8.67-3.16-10.12-8.17a3.037,3.037,0,0,0-3.06-2.42c-5.14-.18-8.44-2.73-10.12-7.79a3.257,3.257,0,0,0-3.14-2.57,10.774,10.774,0,0,1-8.75-4.9,10.577,10.577,0,0,1-.99-9.66,2.509,2.509,0,0,0-1.6-3.61,70,70,0,0,0-15.99-4.04,4.176,4.176,0,0,0-.59-0.04,2.959,2.959,0,0,0-2.88,2.21c-1.07,2.92-2.78,4.13-5.91,4.19-0.53.01-1.05,0.02-1.57,0.02-0.64,0-1.28-.01-1.92-0.01h-0.19c-0.59-.01-1.17-0.01-1.76-0.01-1.04,0-1.9.01-2.7,0.04-0.16.01-.31,0.01-0.47,0.01a6.438,6.438,0,0,1-6.37-3.82v-54.43a6.367,6.367,0,0,1,6.35-3.83c0.16,0,.31,0,0.47.01,0.83,0.03,1.73.05,2.82,0.05,0.69,0,1.37-.01,2.06-0.02h0.2c0.61,0,1.22-.01,1.83-0.01,0.41,0,.83.01,1.24,0.01,3.12,0.04,4.89,1.29,5.91,4.17a3.377,3.377,0,0,0,3.31,2.58,2.484,2.484,0,0,0,.38-0.02c0.22-.01.43-0.02,0.64-0.02s0.41,0.01.61,0.01c0.23,0.01.45,0.01,0.67,0.01h0.16c1.34-.02,2.49-0.03,3.17-0.95s0.35-2.04-.04-3.33a68.066,68.066,0,0,1-2.07-31.84c5.01-27.31,20.59-46.49,46.32-57.02,6.34-2.6,13.12-3.76,18.94-4.56h14.06c0.46,0.07,1.66.24,1.66,0.24,1.14,0.16,2.32.33,3.46,0.54a73.124,73.124,0,0,1,58.39,91.35c-0.12.47-.24,0.88-0.35,1.24-0.41,1.42-.71,2.44-0.04,3.34,0.75,1,2.07,1,4.45,1h0.36c1.24,0,3.32,0,4.18-2.61,0.94-2.81,2.75-4.09,5.89-4.13,0.41,0,.81-0.01,1.22-0.01,0.68,0,1.36.01,2.04,0.01s1.39,0.02,2.08.02c1.09,0,1.98-.02,2.81-0.05,0.16-.01.31-0.01,0.47-0.01a6.375,6.375,0,0,1,6.35,3.83v54.43a6.438,6.438,0,0,1-6.37,3.82c-0.15,0-.31,0-0.47-0.01-0.82-.03-1.69-0.05-2.75-0.05-0.62,0-1.24.01-1.86,0.01l-0.38.01c-0.62,0-1.23.01-1.85,0.01-0.3,0-.61,0-0.91-0.01-3.5-.03-5.12-1.15-6.4-4.41a2.851,2.851,0,0,0-2.68-2.19c-0.13,0-.26.01-0.41,0.02a72.029,72.029,0,0,0-9.33,1.56,2.605,2.605,0,0,0-2.1,3.34,9.006,9.006,0,0,1,.24,3.4c-0.84,5.13-3.85,8.33-8.94,9.51l-0.27.06a3.119,3.119,0,0,0-2.85,2.55c-0.81,5.28-3.86,8.37-9.34,9.47a3.011,3.011,0,0,0-2.61,2.59c-0.95,5.27-3.99,8.33-9.3,9.34a2.965,2.965,0,0,0-2.6,2.62c-0.79,4.67-3.43,7.67-8.05,9.17h-5.49Zm-18.12-23.67a6.142,6.142,0,0,0-4.68,2.24c-1.75,2.05-3.54,4.29-5.48,6.88a6.265,6.265,0,0,0,.92,8.97,5.9,5.9,0,0,0,3.63,1.23,6.737,6.737,0,0,0,5.12-2.51c1.37-1.64,2.7-3.35,3.99-5l1.21-1.54a6.373,6.373,0,0,0-2.26-9.77A6.427,6.427,0,0,0,1327.16,3899.33Zm-22.28-30.79a9.957,9.957,0,0,1,2.14.24c4.74,1.06,7.68,4.4,8.5,9.66,0.19,1.17.47,2.95,2.66,3.48,5.16,1.28,7.96,4.61,8.55,10.2a3.122,3.122,0,0,0,2.67,2.95,10.622,10.622,0,0,1,8.01,13.47,3.136,3.136,0,0,0,.95,3.59c0.62,0.54,1.23,1.08,1.85,1.63,1.36,1.22,2.74,2.45,4.18,3.59a6,6,0,0,0,3.76,1.28,6.086,6.086,0,0,0,5.16-9.49c-1.83-2.99-1.4-3.41-.69-4.12a1.534,1.534,0,0,1,1.11-.6,7.3,7.3,0,0,1,3.04,1.31,6.42,6.42,0,0,0,3.34.98,6.306,6.306,0,0,0,3.12-.86,5.772,5.772,0,0,0,2.94-5.54,7.4,7.4,0,0,0-1.71-4.18l-0.09-.12a2.066,2.066,0,0,1,.12-2.94,2,2,0,0,1,1.45-.67,2.905,2.905,0,0,1,1.53.53q0.255,0.165.51,0.36a12.285,12.285,0,0,0,1.03.69,6.356,6.356,0,0,0,3.05.79,6.235,6.235,0,0,0,4.43-1.85,6.034,6.034,0,0,0,.93-7.27,10.414,10.414,0,0,0-.65-0.98c-0.15-.2-0.27-0.37-0.39-0.55a2.239,2.239,0,0,1,.1-2.95,1.907,1.907,0,0,1,1.47-.69,2.833,2.833,0,0,1,1.46.46c0.18,0.12.36,0.25,0.53,0.38,0.26,0.19.5,0.37,0.76,0.53a6.392,6.392,0,0,0,3.37.97,6.164,6.164,0,0,0,6.01-4.84c0.84-3.62-1.77-5.78-2.62-6.5-12.85-10.68-26.41-20.86-39.53-30.7-2.89-2.17-5.76-4.32-8.62-6.48a3.616,3.616,0,0,0-2.18-.83,3.928,3.928,0,0,0-2.64,1.29l-0.48.46c-4.87,4.62-9.91,9.4-14.95,14.01a11.274,11.274,0,0,1-7.54,3.05,10.778,10.778,0,0,1-6.93-2.57,10.53,10.53,0,0,1-3.85-7.49,11.5,11.5,0,0,1,3.27-8.61c3.39-3.62,6.83-7.23,10.16-10.73l0.31-.32q3.075-3.24,6.15-6.47a0.934,0.934,0,0,1,.18-0.16,2.348,2.348,0,0,0,1.04-2.65,2.208,2.208,0,0,0-2.27-1.43c-0.12,0-.24,0-0.35.01h-0.32c-0.33-.02-0.65-0.04-0.96-0.04a13.643,13.643,0,0,0-6.25,1.61q-3.93,2-7.88,3.97l-0.63.31c-3.82,1.92-7.77,3.9-11.65,5.88a14.705,14.705,0,0,1-6.87,1.73h-0.27c-1.66-.03-3.44-0.04-5.59-0.04-1.43,0-2.87,0-4.3.01-1.33,0-2.66.01-3.98,0.01l-8.82.01c-2.33,0-4.67-.01-7-0.03h-0.09a3.457,3.457,0,0,0-2.64.91,3.533,3.533,0,0,0-.85,2.71c0.06,2.12.04,4.27,0.03,6.35v0.17c0,0.85-.01,1.7-0.01,2.55v23.46c0,0.98,0,3.26,2.68,3.58a76.624,76.624,0,0,1,19.88,5.14,3.842,3.842,0,0,0,1.48.32,3.1,3.1,0,0,0,2.54-1.39c0.49-.65,1-1.28,1.5-1.91,0.49-.6.97-1.21,1.43-1.82a11.031,11.031,0,0,1,8.88-4.65,10.505,10.505,0,0,1,9.63,6.18,2.911,2.911,0,0,0,2.78,2.01,3.89,3.89,0,0,0,.98-0.13A8.327,8.327,0,0,1,1304.88,3868.54Zm10.94,17.76a5.592,5.592,0,0,0-4.17,1.84,81.51,81.51,0,0,0-8.57,10.89,5.734,5.734,0,0,0-.2,5.9,6.227,6.227,0,0,0,5.44,3.25h0.15a5.448,5.448,0,0,0,4.27-1.84,111.1,111.1,0,0,0,8.4-10.69,5.9,5.9,0,0,0-1.32-7.88A6.31,6.31,0,0,0,1315.82,3886.3Zm-11.36-13.07a5.17,5.17,0,0,0-4.06,1.88l-0.69.84c-3.25,4.02-6.61,8.17-9.76,12.41-1.99,2.68-.86,6.36,1.45,8.12a6.452,6.452,0,0,0,3.84,1.31,5.355,5.355,0,0,0,4.16-1.9c3.51-4.15,7.21-8.63,10.51-13.27a5.641,5.641,0,0,0,.44-5.94,6.368,6.368,0,0,0-5.67-3.44C1304.66,3873.24,1304.56,3873.23,1304.46,3873.23Zm-15.35-7.96a5.093,5.093,0,0,0-3.81,1.69,104.321,104.321,0,0,0-8.78,11.18,5.9,5.9,0,0,0,1.61,7.85,6.346,6.346,0,0,0,3.83,1.3,5.371,5.371,0,0,0,4-1.69,74.879,74.879,0,0,0,8.85-11.2,5.683,5.683,0,0,0,.25-5.78,6.394,6.394,0,0,0-5.57-3.33A2.8,2.8,0,0,0,1289.11,3865.27Zm-51.54-46.76a3.314,3.314,0,0,0-2.49.89,4.154,4.154,0,0,0-.94,3.06c0.05,5.46.04,11.02,0.04,16.4q-0.015,3.075-.01,6.12v6.05c0.01,5.46.02,11.1-.03,16.68a3.91,3.91,0,0,0,.91,2.84,3.245,3.245,0,0,0,2.42.87c0.13,0,.27-0.01.42-0.02,0.47-.03.98-0.04,1.61-0.04,0.44,0,.88.01,1.32,0.01,0.46,0.01.91,0.02,1.37,0.02h0.16c3.55-.02,4.22-0.7,4.22-4.29q0.015-17.025.01-34.05v-7.47c0-.43-0.01-0.86-0.01-1.29-0.01-.83-0.02-1.63,0-2.43a3.227,3.227,0,0,0-.81-2.45,3.166,3.166,0,0,0-2.36-.86l-0.91.02c-0.72.02-1.45,0.03-2.17,0.03-0.85,0-1.58-.02-2.25-0.07C1237.9,3818.52,1237.73,3818.51,1237.57,3818.51Zm183.55,52.88,0.72-.01c3.32-.01,3.99-0.7,3.99-4.08v-28.39c-0.01-5.46-.02-11.1.03-16.68a3.875,3.875,0,0,0-.91-2.83,3.25,3.25,0,0,0-2.43-.88c-0.13,0-.27.01-0.41,0.02-0.47.03-.98,0.04-1.61,0.04-0.43,0-.87-0.01-1.31-0.01h-0.11c-0.42-.01-0.84-0.02-1.25-0.02h-0.19c-3.54.02-4.21,0.7-4.21,4.3q-0.015,19.095-.01,38.2v3.71c0,0.5.01,0.99,0.01,1.48v0.11c0.01,0.66.01,1.31,0.01,1.97a2.817,2.817,0,0,0,3.03,3.06h1.08Zm-84.11-42.94a7.782,7.782,0,0,1,4.47,1.92l4.38,3.27c14.11,10.54,28.68,21.4,42.46,32.76a4.665,4.665,0,0,0,3.04,1.21,5.437,5.437,0,0,0,1.67-.29,48.112,48.112,0,0,1,12.24-2.32,3.416,3.416,0,0,0,3.61-3.85c-0.06-3.88-.05-7.82-0.04-11.64,0-1.46.01-2.92,0.01-4.37V3829.3c-0.01-3.32-.69-4-4.08-4,0,0-14.45-.01-18.39-0.01q-8.13,0-16.25.02a14.315,14.315,0,0,1-6.6-1.55c-6.82-3.48-13.73-6.94-20.52-10.3a14.873,14.873,0,0,0-6.61-1.67,13.323,13.323,0,0,0-9.77,4.53q-4.89,5.085-9.74,10.22l-3.23,3.4c-0.51.55-1.78,1.86-1.78,1.86-1.61,1.69-3.29,3.44-4.89,5.22a6.487,6.487,0,0,0-.77,7.7,6.055,6.055,0,0,0,5.32,2.98,7.572,7.572,0,0,0,1.41-.14,7.9,7.9,0,0,0,3.91-2.36l4.48-4.17c3.65-3.39,7.29-6.78,10.96-10.15C1334.09,3829.22,1335.59,3828.45,1337.01,3828.45Zm45.22-7.76c3.46,0,6.12.01,8.63,0.05h0.1a3.994,3.994,0,0,0,4.2-3.1,76.058,76.058,0,0,0,3.27-16.12,2.872,2.872,0,0,0-.63-2.33,3.212,3.212,0,0,0-2.48-.88h-10.58l-0.68-.01-6.47-.01c-1.47,0-2.94.01-4.41,0.02-3.09.02-3.96,0.87-4.01,3.96a108.91,108.91,0,0,1-1.4,14.34c-0.16,1.08-.34,2.3.41,3.19,0.77,0.89,2.08.89,3.14,0.9h2.09Zm-113.33-.01c1.56,0,3.12.01,4.68,0.02s3.13,0.02,4.7.02c3.3,0,5.85-.04,8.26-0.15a5.532,5.532,0,0,0,4.25-1.7c0.98-1.16,1.29-2.78,1-5.11l-0.13-1a73.747,73.747,0,0,1-.82-10.6,3.768,3.768,0,0,0-.93-2.9,3.635,3.635,0,0,0-2.76-.98h-0.14c-1.34.03-2.79,0.04-4.58,0.04-0.96,0-1.92,0-2.88-.01h-14.84a3.308,3.308,0,0,0-2.57.88,2.65,2.65,0,0,0-.6,2.11,68.856,68.856,0,0,0,3.66,17.28,2.953,2.953,0,0,0,2.9,2.1h0.8Zm67.75-13.46a18.834,18.834,0,0,1,8.59,2.3c3.55,1.81,7.18,3.63,10.68,5.38l2.94,1.47a5.723,5.723,0,0,0,2.45.84c1.9,0,2.16-1.86,2.39-3.5,0.35-2.55.55-5.12,0.74-7.61,0.1-1.36.2-2.71,0.33-4.06a3.553,3.553,0,0,0-.69-2.82,3.386,3.386,0,0,0-2.62-.93h-0.09c-1.75.02-3.5,0.02-5.25,0.02h-4.13l-3.27-.01h-10.69c-2.56,0-3.97,0-4.92.97s-0.91,2.37-.84,4.9v0.13c0.07,2.47,1.56,2.98,2.8,2.98,0.14,0,.28,0,0.43-0.01C1335.89,3807.24,1336.27,3807.22,1336.65,3807.22Zm-38.11-8.91a3.593,3.593,0,0,0-2.73.87,2.7,2.7,0,0,0-.64,2.13c0.16,1.95.34,3.89,0.51,5.84,0.16,1.67.31,3.32,0.44,4.97,0.2,2.38,1.65,2.64,2.27,2.64a3.855,3.855,0,0,0,1.82-.56c1.01-.53,2.05-1.04,3.05-1.52,1.39-.68,2.82-1.38,4.21-2.16a21.631,21.631,0,0,1,10.71-3.19,17.469,17.469,0,0,1,6.29,1.21,3.112,3.112,0,0,0,1.14.24,1.97,1.97,0,0,0,1.43-.58,2.542,2.542,0,0,0,.66-1.9c-0.01-.35-0.01-0.71-0.02-1.06-0.01-1.06-.03-2.15.04-3.19a3.2,3.2,0,0,0-3.59-3.77h-0.11c-1.83.03-3.65,0.04-5.47,0.04-1.13,0-7.17-.02-7.17-0.02h-6.42Zm20.05-4.6c2.04,0,3.7.02,5.21,0.07h0.23a3.811,3.811,0,0,0,2.78-.93,3.9,3.9,0,0,0,.93-2.95c-0.08-8.06-.08-16.43-0.01-24.89a4,4,0,0,0-.93-2.97,3.753,3.753,0,0,0-2.84-.95h-0.11c-3.31.04-6.69,0.06-10.04,0.06s-6.82-.02-10.3-0.06h-0.1a3.954,3.954,0,0,0-4.29,3.3,132.542,132.542,0,0,0-3.95,26.21,2.984,2.984,0,0,0,.7,2.3,3.4,3.4,0,0,0,2.6.85c1.96-.01,3.87-0.01,5.78-0.01h7.13c1.09,0,2.18-.01,3.27-0.01h0.34C1316.19,3793.72,1317.39,3793.71,1318.59,3793.71Zm17.21-32.61a3.5,3.5,0,0,0-2.63.9,3.64,3.64,0,0,0-.89,2.7c0.05,8.52.05,17.1,0,25.49a3.648,3.648,0,0,0,.88,2.69,3.432,3.432,0,0,0,2.59.88h0.12c1.58-.02,3.29-0.04,5.39-0.04,1.25,0,2.5.01,3.75,0.01,1.18,0.01,2.34.01,3.5,0.01l6.72-.01c1.38,0,2.77.01,4.15,0.02h1.04c1.95,0,3.1-.04,3.86-0.9,0.73-.82.61-1.82,0.45-3.2-0.05-.41-0.1-0.85-0.14-1.35-0.02-.23-0.03-0.45-0.04-0.68l-0.02-.45a116.091,116.091,0,0,0-3.74-23.05,3.64,3.64,0,0,0-3.93-3.02c-3.57.03-7.09,0.04-10.6,0.04-3.47,0-6.93-.01-10.4-0.04h-0.06Zm32.78-.01a3.207,3.207,0,0,0-2.57.98,3.3,3.3,0,0,0-.31,2.87,110.371,110.371,0,0,1,3.46,25.27c0.02,2.32,1.24,3.55,3.53,3.55h0.12c1.56-.03,3.11-0.04,4.66-0.04,1.04,0,2.08.01,3.11,0.01,1.05,0,2.09.01,3.13,0.01l6.59-.01c1.68,0,3.35.01,5.02,0.01a3.2,3.2,0,0,0,2.5-.86,2.9,2.9,0,0,0,.64-2.32,70.775,70.775,0,0,0-7.89-26.88,4.235,4.235,0,0,0-4.07-2.58c-3.25.03-6.23,0.05-9.1,0.05-2.99,0-5.93-.02-8.73-0.06h-0.09Zm-86.14,32.64c1.6,0,3.2,0,4.8.03h0.1a3.13,3.13,0,0,0,3.49-3.41,110.091,110.091,0,0,1,3.48-25.46,2.694,2.694,0,0,0-2.95-3.79h-0.09c-3.58.04-6.34,0.05-8.93,0.05-2.97,0-5.66-.02-8.23-0.07h-0.16a4.885,4.885,0,0,0-4.76,3.01,71.19,71.19,0,0,0-7.64,26.33,3.017,3.017,0,0,0,.65,2.45,3.212,3.212,0,0,0,2.48.88c1.69-.01,3.32-0.02,4.95-0.02l6.37,0.01Zm98.47-37.21a1.487,1.487,0,0,1,.28.03,7.266,7.266,0,0,0,.75.06,2.1,2.1,0,0,0,2-1.15,2.382,2.382,0,0,0-.8-2.89c-0.09-.1-0.16-0.16-0.22-0.23a68.346,68.346,0,0,0-28.1-20.39c-0.13-.05-0.26-0.11-0.39-0.17a4.658,4.658,0,0,0-2.02-.56,2.886,2.886,0,0,0-.5.04l-0.64.1-0.33.57a1.851,1.851,0,0,0,.27,2.24,66.268,66.268,0,0,1,11.28,20.02,3.515,3.515,0,0,0,3.72,2.35c1.99-.01,3.92-0.01,5.85-0.01h3.14c1.9,0,3.8,0,5.7-.01h0.01Zm-65.6,0q4.41,0,8.81.04h0a3.735,3.735,0,0,0,2.75-.92,3.45,3.45,0,0,0,.85-2.67c-0.05-2.53-.04-5.11-0.03-7.6,0.01-1.04.01-2.05,0.01-3.05v-3.16q0.015-3.675,0-7.33c0-1.42-.01-3.79-2.25-3.79a7.173,7.173,0,0,0-2.51.7,24.713,24.713,0,0,0-7.76,5.23c-4.85,4.67-8.61,10.52-12.18,18.97a2.807,2.807,0,0,0-.02,2.61,2.853,2.853,0,0,0,2.52.99C1308.8,3756.53,1312.06,3756.52,1315.31,3756.52Zm27.13,0q6.15,0,12.3.03a2.649,2.649,0,0,0,2.29-.98,2.7,2.7,0,0,0,.01-2.52c-3.74-8.88-7.71-14.96-12.89-19.7a24.8,24.8,0,0,0-7.94-4.96,4.273,4.273,0,0,0-1.52-.32,2.208,2.208,0,0,0-1.63.65,3.18,3.18,0,0,0-.77,2.41c0.03,2.68.02,5.35,0.02,8.02l-0.01,3.05v3.22q0.015,3.825-.01,7.65a3.642,3.642,0,0,0,.84,2.66,3.011,3.011,0,0,0,2.21.8C1337.72,3756.53,1340.08,3756.52,1342.44,3756.52Zm-34.62-25.39a67.452,67.452,0,0,0-31.19,21.75,2.636,2.636,0,0,0-.76,2.19,1.917,1.917,0,0,0,2,1.48c0.12,0,.24-0.01.36-0.02,0.06,0,.11-0.01.16-0.01l3.71,0.01,5.4-.01c2.23,0,4.47.01,6.7,0.02a3.269,3.269,0,0,0,3.32-2.41,70.073,70.073,0,0,1,11.8-20.84l2.98-3.67Z" transform="translate(-1230 -3723)"/>
</svg>
