<svg xmlns="http://www.w3.org/2000/svg" width="200" height="189" viewBox="0 0 200 189">
  <defs>
    <style>
      .cls-1 {
        fill: #d9e1e7;
        fill-rule: evenodd;
      }
    </style>
  </defs>
  <path id="infographics-icn02.svg" class="cls-1" d="M1803.34,3203c-0.15-.06-0.3-0.11-0.45-0.17-0.46-.16-0.89-0.32-1.28-0.5-1.95-.95-3.91-1.89-5.86-2.83-5.39-2.59-10.97-5.26-16.37-8.02l-0.46-.23c-2.14-1.1-4.35-2.24-6.73-2.24a7.773,7.773,0,0,0-5.28,2.17c-0.02.01-.2,0.07-0.33,0.11a4.937,4.937,0,0,0-.72.26q-9.945,4.77-19.89,9.53l-3.99,1.92h-3.89c-1.44-.68-2.87-1.36-4.31-2.05q-5.265-2.49-10.51-5.02c-1.99-.96-3.98-1.94-5.96-2.92-2.54-1.26-5.17-2.56-7.78-3.8a4.979,4.979,0,0,0-2.07-.48,3.21,3.21,0,0,0-1.28.25c-2,.9-4,1.87-5.92,2.82-1.12.54-2.23,1.09-3.35,1.62q-7.32,3.48-14.64,6.93l-5.61,2.65h-3.16c-1.08-.47-2.17-0.94-3.25-1.4-2.54-1.09-5.16-2.22-7.67-3.43-7.16-3.46-13.02-6.4-18.46-9.26a6.949,6.949,0,0,1-4.03-6.26c-0.08-10.44-.08-21.45-0.01-32.72,0.02-2.59,1.37-4.66,4.12-6.32,5.81-3.49,11.77-7.05,18.24-10.87,2.33-1.38,4.75-2.73,7.09-4.04l0.64-.35a4.438,4.438,0,0,0,2.54-4.24c-0.04-4.85-.04-9.79-0.04-14.57,0.01-5.71.01-11.61-.07-17.42a5.581,5.581,0,0,1,2.85-5.33c3.56-2.17,7.22-4.32,10.76-6.39l3.16-1.86c1.15-.67,2.29-1.37,3.43-2.07,2.77-1.69,5.63-3.43,8.56-4.84,3.72-1.78,3.99-4.56,3.95-7.26-0.08-4.58-.07-9.23-0.06-13.74,0.01-4.45.02-9.05-.05-13.57a5.381,5.381,0,0,1,2.77-5.18c3.07-1.87,6.25-3.7,9.32-5.48,1.71-.99,3.41-1.98,5.12-2.98,1.8-1.05,3.59-2.12,5.39-3.19,2.05-1.22,4.09-2.44,6.15-3.64l0.75-.44a21.778,21.778,0,0,1,3.47-1.81,5.281,5.281,0,0,1,1.87-.34,8.844,8.844,0,0,1,4.46,1.5q10.665,6.3,21.3,12.65c0.96,0.57,1.92,1.16,2.88,1.74,1.36,0.83,2.76,1.68,4.15,2.49,1.41,0.82,1.98,2.04,1.98,4.22v8.97c0.01,6.75.01,13.72-.03,20.58a4.517,4.517,0,0,0,2.53,4.52c5.1,2.91,10.25,5.95,15.23,8.88,3.59,2.12,7.3,4.31,10.97,6.44,2.89,1.66,4.04,3.62,3.97,6.75-0.14,6.64-.12,13.38-0.11,19.9,0.01,3.79.02,7.58,0.01,11.37a4.142,4.142,0,0,0,2.51,4.17c2.54,1.34,5.05,2.87,7.49,4.34,1.18,0.72,2.36,1.43,3.55,2.13q2.61,1.53,5.23,3.05c3.09,1.79,6.28,3.64,9.38,5.52,3.05,1.84,4.47,4.05,4.47,6.94l0.01,6.87c0,8.3.01,16.87-.02,25.3-0.01,3.18-1.58,5.5-4.82,7.11l-2.07,1.03c-7.37,3.65-14.99,7.43-22.49,11.12a25.2,25.2,0,0,1-2.58,1.02c-0.35.13-.71,0.26-1.06,0.39h-3.64Zm-105.27-48.16c-4.01,2.41-7.79,4.69-11.67,6.98-1.33.79-2.71,1.55-4.05,2.29-1.27.7-2.59,1.43-3.88,2.18a3.085,3.085,0,0,0-1.34,2.45c-0.03,7.64-.03,15.19-0.03,23.19v6.93s13.33-6.52,14.62-7.16c3.66-1.8,7.46-3.66,11.21-5.43a3.748,3.748,0,0,0,2.35-3.79c-0.04-6.5-.03-13.11-0.03-19.5v-8.19c0-.41-0.04-0.78-0.08-1.22-0.02-.21-0.04-0.43-0.07-0.69l-0.17-2.17S1699.72,3153.85,1698.07,3154.84Zm66.1-.59c-2.97,1.77-5.85,3.49-8.72,5.21-1.06.64-2.12,1.29-3.17,1.95a80.61,80.61,0,0,1-7.31,4.23,4.321,4.321,0,0,0-2.73,4.56c0.05,5.93.04,11.97,0.04,17.82-0.01,2.1-.01,10.79-0.01,10.79l3.94-1.91c1.34-.64,2.58-1.24,3.82-1.85q2.55-1.26,5.08-2.53c4.12-2.06,8.39-4.19,12.64-6.15a3.935,3.935,0,0,0,2.63-4.13c-0.04-6.29-.03-12.68-0.03-18.86l0.01-12.82Zm66.45-.87c-2.05,1.22-4,2.38-5.96,3.53l-4.65,2.73c-3.69,2.15-7.5,4.39-11.23,6.61a3.118,3.118,0,0,0-1.35,2.47c-0.03,7.63-.03,15.16-0.03,23.13v6.94l4.58-2.2c1.85-.89,3.6-1.74,5.35-2.6q3.42-1.68,6.84-3.38c2.85-1.41,5.69-2.83,8.55-4.23a5,5,0,0,0,2.88-4.97c-0.04-6.61-.03-13.33-0.03-19.83v-11.14Zm-186.13-.61q0,4.005.01,7.92c0.01,6.88.03,13.38-.05,19.98-0.04,2.95,1.33,5.04,4.17,6.4l1.8,0.85c1.19,0.57,2.38,1.13,3.57,1.71,3.93,1.92,7.85,3.84,11.89,5.81l6.78,3.32v-6.84c0-8.03,0-15.61-.05-23.33a3.263,3.263,0,0,0-1.63-2.43c-6.63-4.01-13.47-8.09-19.5-11.68-1.06-.63-2.12-1.24-3.27-1.9l-1.69-.98-2.03-1.17v2.34Zm65.22,5.37c0,8.62-.01,16.76.04,25.01a3.366,3.366,0,0,0,1.71,2.63c4.14,2.14,8.32,4.2,11.86,5.94,2.81,1.38,5.63,2.74,8.56,4.15l5.91,2.86v-6.83c0-8,0-15.55-.03-23.21a3.131,3.131,0,0,0-1.41-2.45c-6.15-3.68-12.26-7.29-19.54-11.58-1.09-.64-2.19-1.26-3.36-1.91-0.55-.31-1.13-0.63-1.72-0.96l-2.02-1.14v7.49Zm65.11-.4c-0.01,8.84-.01,17.19.04,25.67a3.166,3.166,0,0,0,1.8,2.44c6.51,3.27,13.12,6.52,18.72,9.27,1.24,0.61,2.48,1.18,3.79,1.78,0.61,0.28,1.23.57,1.86,0.86l1.93,0.9v-6.91c0-7.93,0-15.41-.04-23.02a3.293,3.293,0,0,0-1.51-2.52c-0.85-.52-1.73-0.99-2.59-1.45-0.79-.42-1.55-0.82-2.28-1.26q-3.99-2.4-7.95-4.83c-2.29-1.39-4.57-2.78-6.86-4.16-1.04-.63-2.11-1.21-3.23-1.83-0.54-.29-1.09-0.6-1.67-0.92l-2.01-1.13v7.11Zm-99.89-27.12a3.3,3.3,0,0,0-1.6.38c-6.72,3.88-13.27,7.73-20.2,11.81l-7.22,4.25,2.46,1.04a5.112,5.112,0,0,0,.49.2,1.779,1.779,0,0,1,.27.12l8.28,5.05q6.675,4.08,13.34,8.14l0.1,0.06a8.321,8.321,0,0,0,4.24,1.59h0a5.014,5.014,0,0,0,2.6-.76l5.84-3.49,13.65-8.19c0.99-.6,1.97-1.22,3-1.88,0.49-.32,1-0.64,1.53-0.98l1.87-1.17-5.3-3.11c-2.39-1.41-4.69-2.76-6.98-4.11q-2.1-1.245-4.18-2.49c-3.3-1.97-6.72-4-10.11-5.95A4.355,4.355,0,0,0,1674.93,3130.62Zm65.06-.01a2.784,2.784,0,0,0-1.26.27c-1.58.75-3.08,1.65-4.53,2.52-0.52.31-1.04,0.62-1.56,0.92l-2.92,1.71q-4.575,2.655-9.13,5.34c-1.64.96-3.27,1.95-4.94,2.97-0.77.47-1.55,0.95-2.34,1.43l-1.98,1.19,2.02,1.13c0.27,0.16.53,0.3,0.77,0.43,0.47,0.26.88,0.48,1.29,0.73,3.04,1.83,6.07,3.68,9.11,5.52q6.105,3.69,12.22,7.39a6.573,6.573,0,0,0,3.44,1.08,5.164,5.164,0,0,0,2.71-.77c0.73-.43,1.45-0.88,2.17-1.32,0.7-.44,1.4-0.88,2.11-1.3,1.61-.96,3.22-1.91,4.84-2.87q3.345-1.965,6.68-3.97c1.84-1.1,3.66-2.22,5.52-3.37,0.83-.52,4.22-2.6,4.22-2.6l-1.57-1.19c-0.16-.12-0.31-0.24-0.44-0.35a9.459,9.459,0,0,0-.97-0.69c-2.45-1.45-4.9-2.88-7.35-4.32-1.78-1.05-3.55-2.09-5.33-3.13-1.02-.61-2.04-1.21-3.07-1.82-2.41-1.43-4.9-2.91-7.39-4.31A5,5,0,0,0,1739.99,3130.61Zm65.21-.02c-1.19,0-2.18.57-3.83,1.58-2.47,1.52-5.04,3-7.51,4.44q-2.265,1.3-4.51,2.62c-2.46,1.46-4.91,2.93-7.4,4.42l-5.29,3.17,1.84,1.17c0.48,0.31.95,0.61,1.41,0.91,1,0.65,1.95,1.26,2.94,1.86,2.25,1.35,4.5,2.68,6.76,4.02,3.87,2.3,7.86,4.67,11.76,7.05a6.177,6.177,0,0,0,7.77-.05c2.37-1.47,4.82-2.92,7.18-4.33,1.6-.95,3.19-1.89,4.77-2.86,2.45-1.48,4.88-2.98,7.36-4.51l5.21-3.22-1.83-1.15c-0.48-.3-0.94-0.6-1.4-0.9-1.01-.64-1.96-1.25-2.95-1.84q-3.33-1.95-6.65-3.88c-3.88-2.25-7.9-4.59-11.8-6.94C1807.45,3131.21,1806.42,3130.59,1805.2,3130.59Zm-62.54-35.49c-0.06.15-.1,0.25-0.14,0.33a1.922,1.922,0,0,0-.2.81l-0.01,3.22c-0.02,8.39-.03,17.06.01,25.59a3.486,3.486,0,0,0,1.71,2.6c5.5,3.33,10.93,6.55,15.06,8.98,2.03,1.2,4.08,2.37,6.21,3.6,0.99,0.56,5.06,2.91,5.06,2.91l-0.01-11.33c0-6.16-.01-12.52.03-18.78a4.812,4.812,0,0,0-2.84-5c-4.24-2.28-8.43-4.87-12.48-7.36-1.73-1.07-3.47-2.14-5.21-3.19-1.19-.72-2.39-1.41-3.6-2.1-0.55-.32-1.1-0.63-1.65-0.95l-1.36-.8Zm-65.09-.21c-0.05.08-.08,0.14-0.11,0.18a1.515,1.515,0,0,0-.29.86v3.02c-0.03,8.56-.05,17.42-0.03,26.13a3.074,3.074,0,0,0,1.39,2.43c5.37,3.22,11.16,6.64,18.74,11.09,1.3,0.76,2.6,1.48,3.99,2.25,0.64,0.36,1.3.72,1.98,1.11l2.01,1.13v-2.31q0-3.765-.01-7.47c-0.01-6.62-.02-12.86.05-19.22,0.03-2.49-.21-4.69-3.42-6.41-4.33-2.31-8.6-4.95-12.72-7.51-1.86-1.15-3.71-2.31-5.58-3.43-0.95-.58-1.94-1.11-2.88-1.63-0.44-.23-0.87-0.47-1.3-0.71l-1.15-.64Zm120.14,1.29c-2.18,1.31-4.28,2.57-6.4,3.82-2.01,1.17-4.03,2.34-6.04,3.51-3.03,1.76-6.05,3.51-9.05,5.29a3.056,3.056,0,0,0-1.38,2.43c-0.03,8.18-.03,16.23-0.03,24.74v6.69l1.83-.7c0.23-.08.43-0.15,0.61-0.21a6.138,6.138,0,0,0,1.19-.5q3.24-1.92,6.48-3.86c1.57-.94,3.15-1.88,4.72-2.81,0.9-.54,1.8-1.08,2.7-1.61,2.72-1.63,5.53-3.32,8.34-4.85a3.8,3.8,0,0,0,2.31-3.73c-0.04-6.41-.04-12.93-0.04-19.24q0.015-4.02,0-8.03a10.483,10.483,0,0,0-.07-1.1c-0.02-.19-0.04-0.4-0.06-0.64l-0.18-2.15S1798.71,3095.58,1797.71,3096.18Zm-87.95,13.6v32.73l1.77-.57q0.27-.09.48-0.15a3.892,3.892,0,0,0,1.05-.4c2.19-1.29,4.36-2.59,6.54-3.89q2.25-1.35,4.5-2.69c0.98-.58,1.95-1.16,2.92-1.75,2.69-1.62,5.48-3.31,8.28-4.82a4.114,4.114,0,0,0,2.52-4.02c-0.04-6.25-.04-12.62-0.03-18.78v-7.77c0-.41-0.03-0.83-0.06-1.34-0.01-.26-0.03-0.54-0.05-0.87l-0.11-2.23Zm-2.17-36.79a3.829,3.829,0,0,0-2.09.66c-2.68,1.69-5.48,3.32-8.18,4.9-0.84.48-1.68,0.97-2.51,1.46-3.22,1.89-6.45,3.77-9.71,5.68l-6.26,3.65,7.87,4.76c5.73,3.47,11.38,6.89,17.04,10.29a7.7,7.7,0,0,0,3.94,1.38h0a4.851,4.851,0,0,0,2.52-.72c0.76-.45,1.51-0.92,2.25-1.39s1.45-.92,2.19-1.36q2.565-1.515,5.13-3.02,3.135-1.845,6.26-3.7c1.82-1.09,3.62-2.21,5.53-3.39,0.88-.55,1.79-1.11,2.74-1.69l1.9-1.18-5.23-3.05c-2.33-1.37-4.57-2.68-6.8-4-2.48-1.46-4.95-2.94-7.42-4.41-2.38-1.42-4.77-2.84-7.15-4.26A3.862,3.862,0,0,0,1707.59,3072.99Zm65.07,0.1a3.533,3.533,0,0,0-1.4.28,21.413,21.413,0,0,0-2.32,1.29c-0.29.18-.58,0.35-0.87,0.52l-3.55,2.06c-2.58,1.5-5.16,2.99-7.72,4.5-2.49,1.46-4.96,2.94-7.48,4.45l-5.08,3.04,1.6,1.2c0.13,0.1.25,0.2,0.36,0.28a5.806,5.806,0,0,0,.76.54c0.98,0.58,1.96,1.15,2.95,1.72,1.61,0.94,3.28,1.91,4.9,2.89q4.395,2.655,8.78,5.33,3.015,1.845,6.03,3.67a5.707,5.707,0,0,0,3,.89h0a5.874,5.874,0,0,0,2.99-.86c0.79-.46,1.57-0.95,2.35-1.44,0.65-.41,1.3-0.81,1.95-1.21,1.62-.96,3.23-1.91,4.85-2.86q3.27-1.935,6.53-3.88c1.83-1.1,3.6-2.2,5.48-3.37,0.84-.52,1.69-1.05,2.55-1.58l1.64-1.01-1.52-1.19c-0.12-.1-0.22-0.18-0.32-0.26a5.241,5.241,0,0,0-.68-0.51l-1.88-1.11c-3.71-2.18-7.41-4.37-11.13-6.54-3.39-1.98-7.34-4.28-11.32-6.5A3.062,3.062,0,0,0,1772.66,3073.09Zm-62.95-28.08c0,7.81,0,15.19.03,22.65a2.917,2.917,0,0,0,1.29,2.32c5.86,3.5,12.15,7.23,19.23,11.39,1.18,0.69,2.38,1.34,3.64,2.02,0.61,0.33,1.24.67,1.89,1.03l2,1.11v-10.8c-0.01-5.23-.02-10.64.03-15.96,0.02-2.31-.22-4.35-3.25-5.94-4.28-2.24-8.48-4.85-12.54-7.38-1.76-1.09-3.52-2.19-5.29-3.26-1.03-.62-2.07-1.21-3.23-1.88-0.56-.31-1.15-0.65-1.77-1.01l-2.03-1.17v6.88Zm54.56-3.24c-3,1.79-5.91,3.52-8.81,5.26-1.07.64-2.13,1.3-3.19,1.96-2.41,1.5-4.9,3.05-7.45,4.31a4.084,4.084,0,0,0-2.57,4.28c0.03,5.72.03,11.55,0.02,17.18v10.18l1.75-.53a4.685,4.685,0,0,1,.53-0.14,4.547,4.547,0,0,0,1.19-.44q2.655-1.575,5.31-3.17,3.015-1.8,6.03-3.59c3.09-1.82,7.16-4.2,11.25-6.51a3.659,3.659,0,0,0,2.05-3.54c-0.04-5.93-.03-11.96-0.03-17.79l0.01-11.08Zm-24.36-23.47a5.707,5.707,0,0,0-3.7,1.47,4.3,4.3,0,0,1-.45.29c-1.3.76-2.6,1.51-3.9,2.27-2.62,1.52-5.23,3.03-7.84,4.57-2.42,1.43-4.83,2.88-7.32,4.38l-5.33,3.2,4.85,2.87c2.04,1.21,4.01,2.37,5.96,3.54,2.08,1.26,4.16,2.53,6.24,3.79q4.275,2.61,8.57,5.2a6.261,6.261,0,0,0,3.15.93,5.422,5.422,0,0,0,2.66-.72c0.87-.49,1.71-1.01,2.53-1.52,0.54-.35,1.08-0.69,1.63-1.02l6.57-3.9q4.305-2.565,8.62-5.13c1.04-.62,2.05-1.27,3.12-1.95,0.51-.32,1.02-0.65,1.56-0.99l1.84-1.15-1.85-1.13c-0.56-.35-1.1-0.68-1.62-1-1.08-.67-2.08-1.29-3.09-1.89q-2.8-1.635-5.61-3.25c-4.17-2.41-8.49-4.9-12.62-7.49A7.371,7.371,0,0,0,1739.91,3018.3Z" transform="translate(-1640.03 -3014)"/>
</svg>
