<svg xmlns="http://www.w3.org/2000/svg" width="200" height="200" viewBox="0 0 200 200">
  <defs>
    <style>
      .cls-1 {
        fill: #d9e1e7;
        fill-rule: evenodd;
      }
    </style>
  </defs>
  <path id="infographics-icn06.svg" class="cls-1" d="M1321.43,3578.99c-3.42-1.39-4.89-3.84-4.63-7.71,0.13-1.89.1-3.83,0.07-5.71-0.01-.85-0.03-1.71-0.03-2.58v-0.68h-28.21v0.68c0,1.19,0,2.36-.01,3.53-0.01,2.87-.03,5.57.04,8.34,0.05,2.01-.48,3.26-1.77,4.13h-1.95a4.205,4.205,0,0,1-1.7-3.97c0.07-2.82.06-5.69,0.04-8.47,0-1.17-.01-2.34-0.01-3.51v-0.68h-34.96v0.68c0,1.24-.01,2.45-0.01,3.66-0.02,2.93-.04,5.7.04,8.51,0.06,1.92-.52,3.06-1.92,3.78h-1.62a4.017,4.017,0,0,1-1.87-3.88c0.06-6.54.05-13.19,0.04-19.61v-10.04h-0.68c-0.44,0-.84,0-1.22.01h-1c-0.38,0-.76,0-1.13-0.02a9.449,9.449,0,0,1-8.96-6.65,9.354,9.354,0,0,1,1.05-7.77,9.5,9.5,0,0,1,6.71-4.26c0.11-.02.22-0.03,0.33-0.04a2.008,2.008,0,0,0,2.15-1.94c0.5-4.36,1.07-8.78,1.63-13.06,0.23-1.75.46-3.5,0.68-5.25l0.89-6.98c1.46-11.37,2.96-23.14,4.39-34.71a8.139,8.139,0,0,0-.37-3.52c-2.2-6.46-1.05-12.02,3.51-16.97a10.562,10.562,0,0,0,1.76-2.56c5.85-12.37,12.78-27.02,19.72-41.91a8.539,8.539,0,0,0,.77-3.85,16.185,16.185,0,0,1,9.4-15.48,26.947,26.947,0,0,1,2.91-1.07c0.44-.14.87-0.28,1.3-0.43h4.85c0.73,0.34,1.46.71,2.19,1.07a55.373,55.373,0,0,0,5.66,2.53,19.79,19.79,0,0,0,4.57.84c0.52,0.06,1.03.11,1.54,0.18,11.02,1.47,20.95,2.79,30.97,4.06a4.632,4.632,0,0,0,.65.04h0a5.838,5.838,0,0,0,2.32-.48,16.433,16.433,0,0,1,6.81-1.49,16.032,16.032,0,0,1,15.89,14.37,2.475,2.475,0,0,0,2.02,2.43c1.76,0.52,3.54,1.09,5.26,1.64l2.04,0.65a9.1,9.1,0,0,1,5.76,5.02c1.68,3.61,3.29,7.16,4.77,10.53,0.79,1.8.36,3.32-1.1,3.97a2.77,2.77,0,0,1-1.13.26,3,3,0,0,1-2.6-2c-1.42-3.05-2.93-6.32-4.35-9.65a5.57,5.57,0,0,0-3.83-3.36c-1.57-.45-3.11-0.93-4.74-1.44-0.7-.22-1.42-0.44-2.15-0.66l-0.52-.16-0.5.87c-0.17.31-.35,0.61-0.51,0.91-3.09,5.76-7.76,8.68-13.9,8.69q-0.465,0-.96-0.03h-0.26c-1.62,0-2.2.78-2.91,1.97-3.61,6.03-3.36,11.67.74,17.26a16.406,16.406,0,0,1,1.74,3.39l0.21,0.5a2.639,2.639,0,0,1-1.26,3.6,2.768,2.768,0,0,1-1.2.28,2.528,2.528,0,0,1-2.26-1.49c-2.23-4.3-4.11-8.09-5.73-11.58a8.06,8.06,0,0,1-.07-6.55c0.7-1.83,1.43-3.65,2.15-5.47l0.29-.73a4.346,4.346,0,0,0-.06-3.93,4.58,4.58,0,0,0-3.54-2.03c-3.76-.51-7.59-0.98-11.29-1.43l-4.11-.51q-2.565-.315-5.13-0.6c-3.94-.44-8.02-0.9-11.97-1.62a6.512,6.512,0,0,0-1.24-.12,10.727,10.727,0,0,0-4.4,1.2,13.75,13.75,0,0,1-2.62.94,2.094,2.094,0,0,0-1.18,1.61l-0.05.14c-4.45,12.61-8.8,24.97-13.14,37.4a5.69,5.69,0,0,0-.24,2.82,16.072,16.072,0,0,1-.81,8.35,7.714,7.714,0,0,0-.45,3.33c1.35,10.9,2.77,21.97,4.14,32.68l1.91,14.99q0.69,5.4,1.38,10.79c0.09,0.66.19,1.32,0.3,2l0.24,1.56h11.92l-0.07-.75c-0.79-7.73,1.39-14.23,6.48-19.33,4.49-4.51,10.07-6.7,17.07-6.7,0.79,0,1.6.03,2.42,0.08l0.72,0.05V3473.1c0.01-4.52,2.31-6.82,6.85-6.82q6.51-.015,13.02-0.01,6.165,0,12.34.01c4.34,0,6.63,2.29,6.65,6.62,0.02,5.58.01,11.16,0.01,16.75v9.98h8.08v-25.66c0-5.61,2.06-7.7,7.59-7.7h14.22q5.175,0,10.36.01c4.36,0,6.77,2.4,6.79,6.73q0.015,8.385.01,16.76l-0.01,10.01h0.68c1.22,0,2.41.02,3.59,0.03,1.16,0.01,2.3.03,3.44,0.03,1.69,0,3.07-.03,4.37-0.1,0.25-.01.51-0.02,0.75-0.02,3.61,0,5.92,1.46,7.28,4.58v70.13a8.072,8.072,0,0,1-4.57,4.56H1321.43Zm0.89-5.5h101.79v-11.31h-85.85l-1.06.01a10.73,10.73,0,0,1-1.21-.06,2.384,2.384,0,0,1-2.31-2.34,2.436,2.436,0,0,1,1.93-2.78,10.133,10.133,0,0,1,2.29-.17h0.08q29.07-.015,58.13-0.01h28.04v-11.22H1322.32v27.88Zm-33.52-16.81h27.97v-11.1H1288.8v11.1Zm-40.32,0h34.67l0.03-.65c0.01-.23.02-0.45,0.04-0.66,0.02-.45.05-0.85,0.05-1.25v-8.54h-34.79v11.1Zm72.08-51.55c-0.54,0-1.08,0-1.61.03a18,18,0,0,0-13.41,6.99,17.26,17.26,0,0,0-3.07,14.21c1.85,8.34,8.87,13.73,17.87,13.74q22.275,0.015,44.54.01c11.53,0,56.67-.01,56.67-0.01,0.44,0,.88-0.02,1.33-0.05,0.21-.01.42-0.03,0.64-0.04l0.64-.03v-34.85h-103.6Zm-80.64,26.9a9.022,9.022,0,0,0-1.76.13,3.767,3.767,0,0,0-3.21,3.83,3.685,3.685,0,0,0,2.9,3.86,11.859,11.859,0,0,0,2.89.25q20.7,0.015,41.41.01h21.94l-0.76-1.07c-0.41-.58-0.82-1.12-1.21-1.65a25.359,25.359,0,0,1-2.22-3.29,3.594,3.594,0,0,0-3.65-2.11c-12.52.03-25.25,0.04-37.23,0.04h-19.1Zm9.46-5.4c0.67,0,1.32,0,1.97.03h0.16c1.65,0,1.97-1.11,2.08-2.09,0.71-6.75,1.47-13.61,2.21-20.24l0.81-7.3c0.29-2.62.59-5.33,0.92-7.98a2.824,2.824,0,0,1,2.68-2.65h0.16a2.688,2.688,0,0,1,2.45,2.94,14.585,14.585,0,0,1-.14,1.71l-1.18,10.61q-1.29,11.475-2.57,22.96a4.468,4.468,0,0,0,.03.9c0.01,0.11.02,0.23,0.03,0.35l0.03,0.64h20.5l-7.4-57.96-0.88.5a17.826,17.826,0,0,1-8.82,2.54,17.167,17.167,0,0,1-8.76-2.55l-0.89-.52-7.41,58.12h2.53C1248.4,3526.63,1248.9,3526.63,1249.38,3526.63Zm79.59-26.97h27.97v-27.88h-11.25v0.68c0,0.66.01,1.31,0.01,1.95,0.01,1.41.02,2.74-.02,4.08-0.05,1.98-1.03,3.13-2.68,3.14-1.63,0-2.61-1.16-2.65-3.11-0.03-1.38-.02-2.74-0.02-4.18,0.01-.63.01-2.61,0.01-2.61h-11.37v27.93Zm47.02,0h27.99v-27.92h-10.75l-0.21.26a0.735,0.735,0,0,1-.09.12,0.857,0.857,0,0,0-.24.55c-0.01.75-.02,1.49-0.03,2.24-0.01,1.21-.02,2.43-0.04,3.65-0.04,1.93-1.03,3.08-2.65,3.08-1.66-.02-2.65-1.2-2.68-3.16-0.02-1.38-.02-2.77-0.01-4.18v-2.59h-11.29v27.95Zm-113.62-54.86a10.6,10.6,0,0,0-10.63,10.68,10.773,10.773,0,0,0,3.13,7.63,10.6,10.6,0,0,0,7.56,3.16h0.1a10.819,10.819,0,0,0,10.67-10.74,10.631,10.631,0,0,0-3.12-7.58,10.745,10.745,0,0,0-7.65-3.15h-0.06Zm0.07-5.33a16.426,16.426,0,0,1,11.45,4.66l0.76,0.69,11.64-33.04-10.45-6.51-16.19,34.37,1.17-.1C1261.37,3439.49,1261.91,3439.47,1262.44,3439.47Zm83.9-48.42a10.73,10.73,0,1,0-.01,21.46h0a10.73,10.73,0,0,0,.02-21.46h-0.01Zm-41.89-1.22a16.135,16.135,0,0,1-1.12,13.06l-0.45.87,28.3,3.49-0.26-.98a16.084,16.084,0,0,1,1.64-12.73l0.47-.87-28.9-3.86Zm-15.15-5.49a10.768,10.768,0,0,0-10.75,10.76,10.575,10.575,0,0,0,3.14,7.58,10.737,10.737,0,0,0,7.63,3.12h0.07a10.593,10.593,0,0,0,10.61-10.71,10.767,10.767,0,0,0-10.61-10.74Z" transform="translate(-1229.56 -3379)"/>
</svg>
