<svg xmlns="http://www.w3.org/2000/svg" width="200" height="200" viewBox="0 0 200 200">
  <defs>
    <style>
      .cls-1 {
        fill: #d9e1e7;
        fill-rule: evenodd;
      }
    </style>
  </defs>
  <path id="infographics-icn04.svg" class="cls-1" d="M2144.13,3524.99c-5.59-1.47-8.76-5.12-9.7-11.15-0.06-.34-0.15-0.65-0.23-0.96a3.452,3.452,0,0,1-.12-0.43l-0.84-3.3c-0.7-2.71-1.42-5.52-2.02-8.29-0.42-1.95-1.33-2.71-3.27-2.71h-0.12c-2.83.04-5.93,0.06-9.75,0.06-2.02,0-4.05,0-6.07-.01-1.67,0-3.34-.01-5.01-0.01-6.86,0-10.65-3.77-10.66-10.6,0-.4.01-0.8,0.01-1.2,0.01-.83.01-1.7-0.01-2.55-0.13-4.54,1.87-7.76,6.12-9.83,3.78-1.84,7.6-3.76,11.29-5.62,3.55-1.78,7.22-3.62,10.84-5.39a3.168,3.168,0,0,0,2.02-3.3c-0.04-7.35-.04-14.83-0.03-22.05v-9.92h-3.34q-8.97,0-17.96-.01t-17.96-.02c-11.51,0-20.83.03-29.34,0.1h-0.21c-6.38,0-10.01-2.34-11.77-7.58v-8.83c1.14-3.92,3.81-6.37,8.65-7.96,13.17-4.3,26.53-8.76,39.45-13.07,9.71-3.23,19.76-6.58,29.64-9.84,2.17-.72,2.93-1.78,2.9-4.06-0.13-8.11-.12-16.17,0-23.95a38.6,38.6,0,0,1,4.31-17.84,17.389,17.389,0,0,1,15.15-9.67,16.027,16.027,0,0,1,8.57,2.52,19.386,19.386,0,0,1,8.34,11.85,62.4,62.4,0,0,1,2.29,13.33c0.33,6.86.23,13.87,0.13,20.65l-0.04,3.27c-0.03,2.12.7,3.15,2.68,3.81,17.82,5.88,35.92,11.92,53.42,17.76l16.4,5.47c6.18,2.06,8.15,4.78,8.12,11.2l-0.01.73a24.257,24.257,0,0,1-.34,4.99,8.876,8.876,0,0,1-7.91,7.02,26.373,26.373,0,0,1-3.06.13h-69.1l-0.04.64c-0.02.29-.03,0.54-0.05,0.77-0.03.47-.06,0.86-0.06,1.25v8.15c0.01,6.98.01,14.21-.04,21.32a3.044,3.044,0,0,0,2.01,3.1c2.98,1.47,5.95,2.97,8.92,4.46,4.26,2.15,8.67,4.37,13.04,6.48,4.52,2.18,6.52,5.45,6.31,10.3-0.03.86-.03,1.73-0.02,2.57,0.01,0.47.02,0.93,0.01,1.39-0.03,6.06-3.98,10-10.06,10.03-3.54.01-7.09,0.03-10.63,0.03-4.04,0-7.57-.02-10.79-0.07h-0.12c-1.93,0-2.85.75-3.27,2.69-0.42,1.88-.92,3.77-1.4,5.6-0.63,2.4-1.29,4.89-1.76,7.38-1.18,6.19-4.28,9.74-9.75,11.17h-3.76Zm1.73-194.56c-4.3,0-8.06,2.55-10.32,7-2.46,4.84-3.61,10.44-3.61,17.64q-0.015,21.405-.01,42.79v16.36q0,7.665-.01,15.34c-0.01,13.78-.02,28.03.06,42.04a68.322,68.322,0,0,0,1.1,13.41c1.65,7.8,3.61,15.67,5.5,23.27,0.56,2.23,1.12,4.47,1.67,6.7a5.864,5.864,0,0,0,5.73,4.66,5.946,5.946,0,0,0,5.84-4.77c0.49-1.92.97-3.87,1.43-5.75,0.76-3.11,1.54-6.33,2.44-9.44a122.864,122.864,0,0,0,4.5-36.28c-0.21-15.13-.17-30.52-0.12-45.4q0.03-9.51.03-19.04v-13.17q0.015-15.33,0-30.65c-0.01-6.9-1.06-12.33-3.31-17.11-1.86-3.93-4.43-6.28-7.85-7.19A12.115,12.115,0,0,0,2145.86,3330.43Zm-20.71,138.32q-0.135.06-.3,0.12c-0.3.12-.65,0.26-0.99,0.43l-3.55,1.77c-4.01,2-8.17,4.06-12.24,6.12-0.74.38-1.39,0.69-1.96,0.97-4.35,2.13-4.48,2.34-4.43,7.45,0,0.6.01,1.29,0,2.06,0,1.93.36,3.15,1.18,3.98s2.05,1.19,3.98,1.19q4.17,0.015,8.34.01,5.64,0,11.3-.01a9.472,9.472,0,0,0,1.18-.1l0.13-.02,0.68-.06-2.47-24.27Zm38.38,24.04h0.75c1.94,0,3.9.01,5.87,0.01q3,0.015,6.05.01c4.07,0,7.36-.02,10.36-0.06,2.18-.03,3.65-1.63,3.76-4.08,0.03-.69.01-1.38,0-2.04-0.01-.85-0.03-1.65.04-2.45a5.131,5.131,0,0,0-3.27-5.46c-4.35-2.11-8.74-4.32-12.98-6.45l-5.79-2.91c-0.43-.21-0.87-0.39-1.18-0.52l-0.27-.11-0.85-.37Zm72.09-70.43c0.33,0,.71,0,1.1-0.03a3.961,3.961,0,0,0,3.94-4.06c0.05-.91.04-1.83,0.03-2.71,0-.36-0.01-0.71-0.01-1.06,0-3.55-.71-4.55-4.02-5.65q-34.155-11.385-68.33-22.75c-0.42-.14-0.84-0.26-1.28-0.38l-0.63-.18-0.87-.25v37.07h70.07Zm-110.64-36.62c-0.45.13-.88,0.25-1.3,0.39l-66.27,22.07c-5.91,1.97-6.08,2.21-6.08,8.46,0.01,4.53,1.2,5.7,5.79,5.7h69.34V3385.3Z" transform="translate(-2046 -3325)"/>
</svg>
