<svg xmlns="http://www.w3.org/2000/svg" width="200" height="200" viewBox="0 0 200 200">
  <defs>
    <style>
      .cls-1 {
        fill: #d9e1e7;
        fill-rule: evenodd;
      }
    </style>
  </defs>
  <path id="infographics-icn01.svg" class="cls-1" d="M2099.38,3181a3.752,3.752,0,0,1,.82-0.34,12.086,12.086,0,0,0,9.26-12.07q0.045-15.18.02-30.36l-0.01-16.15,0.97-.29a50.193,50.193,0,0,0,34.46-34.44l0.29-.96h85.56c9.43,0,14.53-3.88,17.05-12.98a1.627,1.627,0,0,1,.2-0.44v-78.84c-0.02-.07-0.05-0.14-0.08-0.22a10.513,10.513,0,0,1-.36-1.08,15.39,15.39,0,0,0-9.12-10.59,20.464,20.464,0,0,0-2.74-.9c-0.4-.11-0.8-0.22-1.2-0.34H2115.63a1.362,1.362,0,0,1-.44.19c-9.05,2.41-13.1,7.63-13.1,16.92q-0.015,5.895-.01,11.79v11.55c0,0.49-.03.99-0.06,1.5-0.01.24-.02,0.47-0.03,0.71l-0.06,1.29-2.86.01c-0.29,0-.56,0-0.83-0.01-0.29,0-.58-0.01-0.87-0.01a48.943,48.943,0,0,0-47.25,35.16,65.245,65.245,0,0,0-1.51,6.82c-0.2,1.04-.39,2.09-0.61,3.13v8.4c0.03,0.1.06,0.2,0.08,0.3a9.89,9.89,0,0,1,.28,1.19c3.01,19.97,14.12,33.75,33.02,40.94,0.63,0.24,1.26.45,1.94,0.67,0.32,0.1.64,0.21,0.96,0.32l0.91,0.31v15.66q0,15.375.02,30.75a11.756,11.756,0,0,0,6.76,11.13,16.419,16.419,0,0,0,2.28.93c0.32,0.12.64,0.23,0.95,0.35h4.18Zm6.02-22.19c0,1.12.01,2.23,0.02,3.34,0.03,2.58.06,5.01-.07,7.51a7.979,7.979,0,0,1-7.83,7.29h-0.18a7.915,7.915,0,0,1-7.97-6.96c-0.19-2.6-.14-5.25-0.1-7.8,0.02-1.12.04-2.25,0.04-3.38v-1.35h16.09v1.35Zm-0.07-5.65h-15.99v-12.52h15.99v12.52Zm0.02-16.86h-16v-12.91h16v12.91Zm31.83-41.23c-5.54,11.78-20.35,24.46-39.78,24.46a45.718,45.718,0,0,1-13.48-2.06,45.042,45.042,0,0,1-30.24-54.62,44.18,44.18,0,0,1,19.78-26.93,42.135,42.135,0,0,1,20.41-6.66l1.44-.09v4.28q0,6.54-.01,13.08c-0.01,9.92-.02,20.18.02,30.26,0.04,9.92,6.51,16.33,16.49,16.35h26.27Zm-5.41-49.53c0.15,0.08.26,0.14,0.35,0.18a1.908,1.908,0,0,1,.72.56c9.28,12.27,11.95,25.91,7.95,40.54a2.969,2.969,0,0,1-3.27,2.29c-4.42-.01-8.8-0.02-13.17-0.02l-12.39.01c-7.84-.01-12.53-4.67-12.54-12.47q-0.03-19.2-.01-38.38l0.01-5.54c0-.5.03-0.98,0.07-1.54,0.01-.27.04-0.57,0.05-0.91l0.09-1.55,1.53,0.3c0.86,0.17,1.71.35,2.53,0.52,1.88,0.38,3.66.74,5.44,1.03,2.79,0.46,3.1,2.42,3.1,3.85-0.07,12.63-.04,25.49-0.03,37.91l0.01,0.46a6.989,6.989,0,0,0,.26,2.26,1.567,1.567,0,0,0,1.66,1.17c0.12,0,.24-0.01.36-0.02a1.706,1.706,0,0,0,1.7-1.64,8.447,8.447,0,0,0,.05-1.45v-40.38l2.09,1.35c0.64,0.41,1.24.81,1.82,1.19,1.3,0.85,2.43,1.59,3.6,2.29a3.983,3.983,0,0,1,1.98,3.78c-0.07,5.31-.05,10.64-0.02,15.21,0,0.86.21,2.85,2.04,2.85,1.64-.03,1.99-1.52,2-2.76,0.02-2.22.02-4.45,0.01-6.76v-5.46Zm43.76-60.5q27.99,0,56,.01c7.66,0,12.43,4.77,12.43,12.46v72.42c-0.01,7.66-4.77,12.42-12.45,12.42h-85.06v-15.82l1.05-.25c2.28-.53,2.57-0.6,2.55-4.16-0.01-3.35-1.22-3.35-1.68-3.35a5.3,5.3,0,0,0-1.97.5l-1.12.49s-1.83-3.32-2.45-4.43c-1.71-3.09-3.48-6.27-5.17-9.43a8.248,8.248,0,0,1-1.11-3.71c-0.05-9.48-.04-19.12-0.04-28.44v-8.91a15.356,15.356,0,0,0-.05-1.69,1.874,1.874,0,0,0-1.91-1.86,1.087,1.087,0,0,0-.18-0.01,1.981,1.981,0,0,0-1.82,1.74,9.708,9.708,0,0,0-.1,1.75s0,24.55-.01,29.26c0,0.49-.03.96-0.06,1.51-0.02.26-.03,0.53-0.05,0.83l-0.12,2.58-2.05-1.58c-0.48-.37-0.92-0.74-1.35-1.09a13.255,13.255,0,0,0-2.28-1.67c-3.28-1.69-3.67-4.38-3.62-6.79,0.14-6.38.11-12.89,0.08-19.18l-0.03-4.92c0-1.51-.75-2.45-1.96-2.45-1.44.03-2.01,1.28-2.07,2.43-0.01.3-.01,0.6-0.01,0.91l0.01,0.41v24.45l-1.76-.55c-0.89-.28-1.75-0.57-2.6-0.85-1.94-.64-3.77-1.24-5.63-1.67-2.49-.59-2.82-2.23-2.81-3.76q0.03-6.945.02-13.88c0-3.82-.01-7.64.01-11.45,0.03-7.56,4.77-12.26,12.38-12.26Q2147.04,2985.035,2175.53,2985.04Zm53.62,81.1c1.72-.07,1.91-1.72,1.91-2.42q0.03-10.65.02-21.29v-37.9a9.864,9.864,0,0,0-.07-1.57,1.754,1.754,0,0,0-1.72-1.64c-0.12-.01-0.23-0.02-0.33-0.02a1.611,1.611,0,0,0-1.66,1.22,7.086,7.086,0,0,0-.26,2.27q-0.03,24.135-.02,48.28v9.86c0,0.26,0,.51.01,0.77,0.08,1.48.88,2.44,2.03,2.44h0.09Zm-81.14-16.95a1.725,1.725,0,0,0,1.88-1.42,6.955,6.955,0,0,0,.15-1.79q0.015-20.76.01-41.51a9.327,9.327,0,0,0-.07-1.36,1.966,1.966,0,0,0-1.81-1.82h-0.13a1.858,1.858,0,0,0-1.98,1.77,12.749,12.749,0,0,0-.08,1.79v0.19q-0.015,7.845-.01,15.7v9.61q0,7.7.01,15.4v0.11a7.513,7.513,0,0,0,.15,1.9,1.724,1.724,0,0,0,1.87,1.43h0.01Zm67.64,0.06a2.072,2.072,0,0,0,1.9-2.3c0.03-4.07.03-8.2,0.02-12.21v-15.92c0-4.96.01-10.1-.02-15.14,0-1.4-.81-2.41-1.9-2.41a2.119,2.119,0,0,0-.92.23c-0.77.37-1.22,0.95-1.22,2.75q0.03,9.12.01,18.24v11.41q0.015,6.33,0,12.66c-0.01,1.75.66,2.26,1.38,2.54A2.086,2.086,0,0,0,2215.65,3049.25Zm-13.55-.05c0.64-.01,1.97-0.03,1.97-2.89,0.01-5.04,0-10.07,0-15.11v-11.92c0-5.03.01-10.05,0-15.08,0-1.32-.35-2.9-1.99-2.93-1.85,0-2.05,1.99-2.05,2.85q-0.015,21.15,0,42.3c0.01,2.78,1.52,2.78,2.02,2.78h0.05Zm-13.52,0c1.26-.01,1.98-0.85,1.99-2.29,0.02-5.19.02-10.46,0.02-15.57l-0.01-6.17,0.01-6.02c0-5.02.01-10.22-.02-15.32-0.01-1.6-1-2.59-1.91-2.59a1.686,1.686,0,0,0-.94.32,3.085,3.085,0,0,0-1.1,1.96c-0.11,14.78-.09,30.03-0.06,43.48a1.908,1.908,0,0,0,1.98,2.2h0.04Zm-27.02.03a1.9,1.9,0,0,0,1.85-1.47,8.06,8.06,0,0,0,.16-1.99q0.015-17.175.01-34.35v-6.87q0.015-.315,0-0.63c-0.02-.62-0.24-2.64-2.03-2.64h-0.07c-1.68.05-1.94,1.64-1.94,2.59q-0.03,7.62-.02,15.26l0.01,11.9q0,7.77-.01,15.53c0,1.57.4,2.08,1.1,2.43A1.991,1.991,0,0,0,2161.56,3049.23Zm12.96-.22a3.383,3.383,0,0,0,2.06-.71,3.864,3.864,0,0,0,.47-2.28c0.05-8.03.05-16.19,0.04-24.09v-6.74c0-1.1,0-2.2.01-3.3,0-2.74.01-5.57-.03-8.34a2.1,2.1,0,0,0-2.03-2.27c-1.2.01-1.94,0.9-1.99,2.38-0.02.35-.01,0.71-0.01,1.07v25.52q0.015,8.325,0,16.65c0,1.27.39,1.97,1.18,2.09A2.661,2.661,0,0,0,2174.52,3049.01Zm41.12,17.13a1.951,1.951,0,0,0,1.89-1.9,29.228,29.228,0,0,0,.02-3.41,2.024,2.024,0,0,0-1.89-2.12h-0.11a2.082,2.082,0,0,0-2,2.05,7.079,7.079,0,0,0-.02,1.04c0.01,0.2.01,0.4,0.01,0.6v1.31h-0.01a4.674,4.674,0,0,0,.08.78,2.034,2.034,0,0,0,1.96,1.65h0.07Zm-40.56,0c0.61-.02,2.01-0.06,2.01-3.55v-0.52a9.346,9.346,0,0,0-.07-1.62,2.031,2.031,0,0,0-1.97-1.74h-0.11a1.993,1.993,0,0,0-1.87,1.98c-0.03.39-.03,0.79-0.02,1.22,0.01,0.22.01,0.44,0.01,0.65a4.754,4.754,0,0,0,.78,3.19,1.477,1.477,0,0,0,1.15.39h0.09Zm-13.55,0a1.984,1.984,0,0,0,1.96-1.75,17.652,17.652,0,0,0,.06-3.48,2.078,2.078,0,0,0-2.01-2.2c-1.4,0-1.95,1.2-2,2.33l0.02,1.31c0,0.22-.01.44-0.01,0.65a11.844,11.844,0,0,0,.01,1.2,1.974,1.974,0,0,0,1.9,1.94h0.07Zm40.57,0c0.64-.01,1.97-0.04,1.97-3.54l0.01-.51c0-.4.01-0.8-0.02-1.19a2.07,2.07,0,0,0-1.98-2.19,2.106,2.106,0,0,0-2.04,2.15c-0.02.35-.02,0.71-0.01,1.1,0.01,0.2.01,0.39,0.01,0.58a4.731,4.731,0,0,0,.81,3.19,1.5,1.5,0,0,0,1.18.41h0.07Zm-13.53.01c0.66-.01,2.01-0.03,2.01-3.72s-1.3-3.71-2-3.72h0a1.466,1.466,0,0,0-1.43.65,5.888,5.888,0,0,0-.61,3.15c0,3.64,1.39,3.64,1.99,3.64h0.04Zm-60.82,10.07c1.55,0,1.93-1.26,1.98-2.31,0.01-.34.01-0.69,0-1.04v-0.96a7.478,7.478,0,0,0-.01-0.82,1.989,1.989,0,0,0-1.93-2.21h0a2.04,2.04,0,0,0-2.08,2.08,20.746,20.746,0,0,0-.01,2.97,2.079,2.079,0,0,0,2.04,2.29h0.01Z" transform="translate(-2048 -2981)"/>
</svg>
