<svg xmlns="http://www.w3.org/2000/svg" width="200" height="200" viewBox="0 0 200 200">
  <defs>
    <style>
      .cls-1 {
        fill: #d9e1e7;
        fill-rule: evenodd;
      }
    </style>
  </defs>
  <path id="infographics-icn05.svg" class="cls-1" d="M1648.26,3551.99c-6.41,0-10.24-3.81-10.24-10.2v-26.54q0-26.04-.02-52.1a10.107,10.107,0,0,1,4.91-9.14c10.76-7.1,21.15-14.07,29.91-19.95a7.841,7.841,0,0,1,4.39-1.55,6.264,6.264,0,0,1,3.03.81c2.31,1.23,3.42,3.33,3.39,6.43-0.03,2.81-.02,5.61-0.01,8.57v5.2l1.03-.62c0.31-.19.59-0.34,0.83-0.49,0.49-.28.88-0.51,1.25-0.76l6.01-4c6.61-4.4,13.44-8.94,20.13-13.46a8.318,8.318,0,0,1,4.63-1.67,6.217,6.217,0,0,1,2.95.77c2.43,1.28,3.54,3.43,3.49,6.78-0.04,2.77-.03,5.5-0.02,8.39,0,1.26.01,2.55,0.01,3.86v1.21l1.03-.63c0.29-.18.56-0.33,0.8-0.48,0.48-.29.88-0.53,1.27-0.79q4.485-2.985,8.98-5.99,8.82-5.895,17.66-11.76a7.569,7.569,0,0,1,4.18-1.33,6.157,6.157,0,0,1,6.03,4.65,11.349,11.349,0,0,1,.25,2.83v0.1c0.02,3.66.01,7.31,0.01,11.09v4.81h2.34c0.54,0.01,1.07.01,1.6,0.01,1.26,0,2.23-.02,3.13-0.08,0.84-.05,1.52-1.29,1.61-1.94,0.8-6.06,1.59-12.23,2.35-18.19l0.89-6.94q2.805-21.825,5.62-43.64,0.465-3.585.98-7.17c0.7-5.06,1.43-10.28,1.91-15.45,0.53-5.69,3.01-9.07,7.81-10.64h18.67c4.83,1.54,7.32,4.77,7.84,10.16,0.48,5.06,1.19,10.19,1.87,15.14,0.3,2.23.61,4.46,0.9,6.69l5.79,44.86c1.09,8.4,2.21,17.08,3.35,25.62,0.08,0.54.33,1.83,1.14,2.16,2.83,1.15,4.7,3.28,6.06,6.9v80.79c-1.36,4.29-3.74,6.66-7.49,7.45a13.541,13.541,0,0,1-2.78.23q-55.965,0-111.93.01Zm165.7-72.56a7.33,7.33,0,0,1,5.38,1.95,7.684,7.684,0,0,1,1.92,5.68c-0.14,13.55-.11,27.33-0.09,40.65q0.015,7.9.02,15.79v3.16l4.54,0.01c0.75,0,1.5-.01,2.24-0.02,3.11-.04,4.68-1.6,4.68-4.64v-1.4c0.02-24.48.03-49.79-.06-74.69a5.519,5.519,0,0,0-1.9-3.77,4.917,4.917,0,0,0-3.19-.72h-0.37q-22.71-.03-45.31-0.02h-19.03c-3.21-.01-3.99-0.8-3.99-4.03-0.01-2.48-.01-4.95-0.01-7.43v-9.29c0-.46-0.03-0.92-0.07-1.46-0.01-.27-0.03-0.57-0.05-0.9l-0.06-1.16-0.98.61-0.81.5c-0.45.28-.81,0.5-1.17,0.74l-31.38,20.91-0.36.25a5.351,5.351,0,0,1-2.73,1.22,2.573,2.573,0,0,1-1.23-.34c-1.34-.73-1.39-1.85-1.37-3.63v-0.43q0.015-8.175,0-16.33c0-.46-0.03-0.92-0.07-1.46-0.02-.28-0.04-0.59-0.06-0.94l-0.07-1.15-1.86,1.18c-0.5.31-.9,0.56-1.29,0.81l-5.36,3.57q-13.26,8.835-26.5,17.69a4.707,4.707,0,0,1-2.49,1.02,2.524,2.524,0,0,1-1.18-.32c-1.22-.66-1.45-1.77-1.45-3.46,0.02-5.71.02-11.48,0-16.91,0-.47-0.03-0.91-0.08-1.47-0.02-.29-0.05-0.6-0.07-0.96l-0.08-1.16-3.09,2.03q-3.75,2.505-7.51,5.01c-6.91,4.61-14.06,9.38-21.12,14.02a5.987,5.987,0,0,0-2.98,5.59c0.04,19.93.04,40.2,0.04,59.8v17.67c0,4.13,1.32,5.46,5.45,5.46h133.52v-60.01c0-4.88,2.27-7.15,7.16-7.16h0.65c2.28,0,4.57.02,6.86,0.03s4.58,0.02,6.87.02c3.81,0,6.93-.03,9.81-0.1A2.715,2.715,0,0,1,1813.96,3479.43Zm-26.18,67.15h27.92v-61.6h-27.92v61.6Zm-9.8-90.62h47.58l-8.81-68.26h-29.97Zm9.54-73.85H1816l-1-7.82h-26.47Zm14.44-24.79q-3.8,0-7.6.03a3.772,3.772,0,0,0-4.01,3.27c-0.29,1.66-.49,3.3-0.71,5.03-0.1.75-.19,1.5-0.3,2.27l-0.1.77h25.04l-0.1-.77c-0.09-.76-0.18-1.51-0.27-2.24-0.19-1.64-.37-3.2-0.62-4.77a3.984,3.984,0,0,0-4.21-3.56C1806.71,3357.33,1804.33,3357.32,1801.96,3357.32Zm-50.34,154.46c-3.23,0-6.45-.02-9.67-0.04-4.16-.04-6.57-2.42-6.61-6.55-0.06-6.11-.06-12.35,0-19.06,0.03-4.25,2.42-6.61,6.72-6.63q4.575-.015,9.15-0.02,4.755,0,9.52.02c4.38,0.02,6.81,2.48,6.83,6.94,0.01,2.13,0,4.25,0,6.38v5.85q0.015,3.21-.01,6.44c-0.04,4.17-2.42,6.58-6.55,6.62C1757.99,3511.76,1754.83,3511.78,1751.62,3511.78Zm-8.49-26.97a2.594,2.594,0,0,0-1.89.59,2.7,2.7,0,0,0-.57,1.99c0.05,3.68.04,7.42,0.03,11.04v5.47a9.864,9.864,0,0,0,.11,1.23c0.02,0.17.04,0.34,0.06,0.52l0.07,0.61h21.14v-21.25l-0.63-.05c-0.21-.01-0.4-0.03-0.59-0.05-0.38-.03-0.74-0.06-1.11-0.06,0,0-7.7.01-9.01,0.01-3.02,0-5.33-.02-7.5-0.05h-0.11Zm-72.19,26.98c-3.19,0-6.5-.02-9.83-0.07-3.88-.05-6.23-2.46-6.27-6.44-0.03-2.27-.02-4.59-0.01-6.82v-5.99c-0.01-2.18-.02-4.43.01-6.64,0.06-3.85,2.44-6.27,6.21-6.32,3.17-.03,6.44-0.05,9.73-0.05,3.22,0,6.55.02,9.91,0.05,3.8,0.04,6.28,2.57,6.29,6.45,0.03,6.11.03,12.41,0,19.26-0.01,3.95-2.4,6.44-6.24,6.5C1677.56,3511.77,1674.26,3511.79,1670.94,3511.79Zm-10.64-5.54h21.23v-21.27H1660.3v21.27Zm50.91,5.54c-3.25,0-6.56-.02-9.85-0.07-3.87-.05-6.28-2.52-6.3-6.45-0.03-6.17-.03-12.65,0-19.26,0.02-3.98,2.49-6.47,6.45-6.5,3.19-.03,6.37-0.04,9.56-0.04q4.845,0,9.69.04c3.99,0.02,6.4,2.44,6.46,6.47,0.04,2.28.03,4.61,0.02,6.86-0.01.99-.01,1.97-0.01,2.96s0,1.99.01,2.99c0.01,2.17.02,4.42-.02,6.63-0.07,3.83-2.46,6.25-6.22,6.3C1717.77,3511.77,1714.48,3511.79,1711.21,3511.79Zm-10.73-5.53h21.28v-21.24h-21.28v21.24Z" transform="translate(-1638 -3352)"/>
</svg>
