<svg xmlns="http://www.w3.org/2000/svg" width="200" height="199" viewBox="0 0 200 199">
  <defs>
    <style>
      .cls-1 {
        fill: #d9e1e7;
        fill-rule: evenodd;
      }
    </style>
  </defs>
  <path id="infographics-icn03.svg" class="cls-1" d="M1240.42,3235c-0.25-.11-0.51-0.21-0.77-0.32-0.73-.3-1.42-0.58-2.08-0.91-2.54-1.26-4.26-3.46-5.57-7.11v-3.91c1.11-3.69,2.94-6.07,5.75-7.5a2.562,2.562,0,0,0,1.28-1.6c1.15-4.61,4.05-7.63,8.89-9.24l0.84-.28,0.07-.89q0.015-.18.03-0.33a7.551,7.551,0,0,0,.06-0.8v-5.04c0-37.52.01-76.33-.05-114.5a4.183,4.183,0,0,0-1.96-3.17,9.129,9.129,0,0,1-4.29-4.99,8.434,8.434,0,0,1,1.05-7.74,9.262,9.262,0,0,1,7.64-3.79q5.55-.045,11.1-0.04c2.75,0,5.5.01,8.25,0.01s5.5,0.01,8.25.01h3.76v-1.34c0-.61,0-1.2.01-1.79,0.01-1.62.02-3.16-.06-4.72a3.178,3.178,0,0,0-1.59-2.35c-4.19-2.44-5.89-6.06-4.79-10.19,1.1-4.11,4.47-6.47,9.25-6.47h93.01c4.78,0,8.15,2.36,9.25,6.47s-0.59,7.75-4.79,10.2a3.186,3.186,0,0,0-1.59,2.34c-0.07,1.56-.06,3.1-0.05,4.73,0,0.58.01,1.17,0.01,1.78v1.34s17.13-.01,19.76-0.01c3.93,0,7.86,0,11.8.03a8.7,8.7,0,0,1,8.67,6.5,8.532,8.532,0,0,1-3.96,9.63,4.363,4.363,0,0,0-2.56,4.36c0.03,33.17.03,66.89,0.03,99.5v21.21l0.92,0.3c4.91,1.63,7.84,4.66,8.98,9.26a2.606,2.606,0,0,0,1.28,1.62c2.74,1.38,4.57,3.77,5.75,7.5v3.54c-0.88,2.82-1.9,4.99-3.95,6.37a24.26,24.26,0,0,1-3.21,1.7l-1.32.63h-183.1Zm15.16-4.02c1.06,0.01,2.12.01,3.18,0.01,1.62,0,2.95-.02,4.2-0.06a6.392,6.392,0,0,0,4.6-2.14,6.271,6.271,0,0,0,1.58-4.66,6.444,6.444,0,0,0-6.54-5.9c-0.15,0-.32,0-0.48.01-0.23.02-.45,0.02-0.65,0.02-1.68,0-2.28-.36-2.51-2.54a8.011,8.011,0,0,0-7.92-7.51h-0.1a8.014,8.014,0,0,0-8.09,7.51,2.753,2.753,0,0,1-2.09,2.76c-3.28,1.13-5.11,3.87-4.65,6.97,0.49,3.31,3.16,5.48,6.8,5.52,1.24,0.01,2.48.02,3.72,0.02,0.96,0,7.14-.01,7.14-0.01v-0.02C1254.38,3230.97,1254.98,3230.97,1255.58,3230.98Zm146.06-12.71c-3.85,0-6.71,2.59-6.8,6.17a6.128,6.128,0,0,0,1.7,4.46,7.216,7.216,0,0,0,5.15,2.07c1.26,0.01,2.53.02,3.79,0.02,0.99,0,4.94-.01,5.92-0.01s4.92,0.01,5.91.01c1.27,0,2.54-.01,3.8-0.02,3.64-.04,6.3-2.22,6.78-5.56,0.44-3.09-1.45-5.88-4.71-6.94a2.549,2.549,0,0,1-2.03-2.67,7.77,7.77,0,0,0-4.09-6.55,8.03,8.03,0,0,0-12.02,6.23c-0.31,2.61-1.29,2.83-2.45,2.83-0.12,0-.25-0.01-0.38-0.02C1402.02,3218.28,1401.83,3218.27,1401.64,3218.27Zm-20.22,12.61h10.13l0.11-1.21a1.818,1.818,0,0,0-.01-0.9c-2.09-7.66.35-12.12,7.91-14.47a2.907,2.907,0,0,0,1.84-1.63,12.636,12.636,0,0,1,8.55-8.21l0.92-.31v-123.7h-29.39v12.68h5.45c1.33-.01,2.65-0.01,3.97-0.01,1.71,0,3.42.01,5.12,0.03a5.286,5.286,0,0,1,5.53,5.53c0.05,2.58.04,4.69-.01,6.64a5.207,5.207,0,0,1-5.2,5.25c-0.82.02-1.72,0.04-2.83,0.04-0.62,0-1.23-.01-1.85-0.01s-1.25-.01-1.87-0.01h-8.31v9.42h1.35c1.37,0,2.72-.01,4.07-0.01,1.31-.01,2.62-0.01,3.92-0.01,1.68,0,3.34.01,5.01,0.03,3.54,0.06,5.68,2.21,5.73,5.76,0.02,2.1.02,4.14-.01,6.06a5.309,5.309,0,0,1-5.44,5.66c-0.68.03-1.41,0.05-2.32,0.05-0.54,0-1.08-.01-1.63-0.01s-1.1-.01-1.66-0.01h-9.08v9.43h3.78c1.06,0,2.12-.01,3.18-0.01s2.11-.01,3.17-0.01c1.5,0,3,.01,4.5.04a5.23,5.23,0,0,1,5.5,5.53c0.04,2.01.04,4.05,0,6.26a5.354,5.354,0,0,1-5.63,5.65c-1.16.03-2.31,0.03-3.47,0.03h-2.65c-0.89-.01-1.77-0.01-2.66-0.01h-5.65v9.11l1.14,0.18,0.24,0.04a2.763,2.763,0,0,0,.53.06h4.29c2.66,0,5.32,0,7.97.02,3.83,0.02,5.87,2.07,5.9,5.92q0.015,2.745,0,5.49c-0.03,3.92-2.1,6.01-6,6.03h-14.14v39.59Zm-47.21-.01h15.88v-36.06h-15.88v36.06Zm5.19-53.71h15.25a17.189,17.189,0,0,1,2.37.18,8.549,8.549,0,0,1,7.34,7.98,8.669,8.669,0,0,1-6.53,9.07c-0.47.11-.96,0.19-1.47,0.27l-0.75.12-1.11.2v35.89h22.62V3053.58h-90.23v177.29h22.68v-35.85l-2.9-.55a8.6,8.6,0,0,1-6.08-4.48,8.445,8.445,0,0,1-.31-7.43c1.6-3.64,4.55-5.41,9.03-5.41q11.2,0.015,22.35.01h7.74Zm-86.34,26.78,0.78,0.36c5.54,2.52,6.2,3.14,8.78,8.35a4.036,4.036,0,0,0,2.46,1.74c4.48,1.3,7.1,4.02,7.8,8.08a18.735,18.735,0,0,1-.02,4.67c-0.06.76-.12,1.55-0.15,2.34l-0.04,1.39h9.85v-39.58h-5.48c-1.35.01-2.69,0.01-4.02,0.01-1.74,0-3.48,0-5.22-.03a5.225,5.225,0,0,1-5.35-5.29c-0.06-2.31-.03-4.64,0-6.84a5.47,5.47,0,0,1,.24-1.55,5.225,5.225,0,0,1,5.29-3.74c1.75-.01,3.51-0.01,5.26-0.01l9.29,0.01v-9.41h-5.38c-1.32.01-2.62,0.01-3.92,0.01-1.68,0-3.35,0-5.01-.02-3.58-.04-5.73-2.17-5.78-5.7-0.03-2.46-.05-4.52.02-6.63a5.16,5.16,0,0,1,4.99-5.1c0.54-.04,1.12-0.05,1.89-0.05,0.31,0,1.98.01,1.98,0.01h11.21v-9.43l-9.01-.01c-1.72,0-3.43.01-5.15,0.01a5.571,5.571,0,0,1-5.02-2.38c-1.37-1.97-1.37-10.79,0-12.75a5.6,5.6,0,0,1,5.01-2.39h14.23v-9.42h-1.35c-1.41,0-2.79,0-4.16.01h-3.97c-1.71,0-3.42,0-5.12-.02a5.22,5.22,0,0,1-5.55-5.48c-0.02-1.27-.02-2.58-0.01-3.83v-1.46c0.01-4.86,1.83-6.67,6.74-6.68h13.36v-12.6h-29.47v123.41Zm60.74,26.89h16.01v-35.97H1313.8v35.97Zm5.24-49.63c-3.27,0-6.53,0-9.8.01-3.46.01-5.54,1.76-5.56,4.67s2.02,4.68,5.47,4.76h44.97a12.428,12.428,0,0,0,2.33-.15,4.531,4.531,0,0,0,3.83-5.19c-0.18-1.52-1.15-4.08-5.57-4.09-3.31-.01-6.63-0.01-9.94-0.01l-12.79.01Zm62.38,5.96h16v-9.15h-16v9.15Zm-114.85-.04h16v-9.14h-16v9.14Zm0.09-26.82h15.91v-9.16h-15.91v9.16Zm114.77-.02h15.93v-9.19h-15.93v9.19Zm0.05-26.92h15.9v-9.22h-15.9v9.22Zm-114.9-.05h15.99v-9.15h-15.99v9.15Zm0.07-26.85h15.89v-9.16h-15.89v9.16Zm114.77-.01h15.99v-9.15h-15.99v9.15Zm24.01-30.13c2.07,0,4.81-.01,7.57-0.04a4.517,4.517,0,0,0,4.73-4.37,4.642,4.642,0,0,0-4.35-4.97,8.7,8.7,0,0,0-1-.04l-10.04-.01q-9.18,0-18.38.01a6.029,6.029,0,0,0-.99.1c-0.12.02-.25,0.04-0.38,0.06l-1.18.14v9.11h17.34Zm-146.46-9.43q-3.63,0-7.27.01c-3.27.02-5.36,1.76-5.45,4.56a4.521,4.521,0,0,0,1.21,3.37,5.441,5.441,0,0,0,4,1.47q5.985,0.015,11.97.01,6.825,0,13.63-.01h3.06a4.787,4.787,0,0,0,1.02-.13,2.5,2.5,0,0,1,.29-0.05l1.13-.18v-9.05h-23.59Zm26.36-26.87a7.845,7.845,0,0,0-1.47.11,4.741,4.741,0,0,0-3.87,4.71,4.67,4.67,0,0,0,4.32,4.55c0.33,0.03.67,0.04,1.1,0.04l1.01-.01h91.19l0.99,0.01a9.372,9.372,0,0,0,1.13-.05,4.645,4.645,0,0,0,4.26-4.32,4.7,4.7,0,0,0-3.91-4.94,7.828,7.828,0,0,0-1.39-.1l-0.82.01-44.66-.01-47.13.01Zm48.01,97.51h0l-1.35-.02c-0.36,0-.72.01-1.08,0.01s-0.69.01-1.04,0.01c-0.39,0-.78,0-1.17-0.02-3.35-.19-5.35-2.2-5.49-5.5-0.1-2.36-.1-4.51.01-6.57,0.16-3.27,2.24-5.29,5.57-5.42,1.07-.03,2.16-0.05,3.22-0.05s2.15,0.02,3.2.05a5.383,5.383,0,0,1,5.57,5.44c0.09,1.77.06,3.6,0.03,5.37l-0.01.64c-0.06,3.93-2.1,5.97-6.07,6.06h-1.39Zm-5.92-4.18h9.2v-9.18h-9.2v9.18Zm31.77,4.22c-0.97,0-2-.02-3.26-0.06-3.59-.11-5.6-2.18-5.66-5.83-0.01-.67,0-1.35,0-2.02v-1.96c-0.01-.69-0.01-1.38.01-2.07,0.08-3.33,2.07-5.42,5.33-5.59,1.1-.06,2.24-0.09,3.38-0.09,1.11,0,2.26.03,3.41,0.09a5.4,5.4,0,0,1,5.42,5.54c0.06,2.2.06,4.36,0,6.43a5.3,5.3,0,0,1-5.29,5.47C1361.5,3137.54,1360.4,3137.57,1359.19,3137.57Zm-4.76-4.23h9.19v-9.17h-9.19v9.17Zm-49.51,4.18c-1.46,0-2.92-.07-4.34-0.19-2.51-.22-4.32-2.39-4.4-5.27-0.06-1.94-.06-4.05-0.01-6.43a5.4,5.4,0,0,1,5.37-5.59c1.1-.06,2.24-0.09,3.38-0.09,1.11,0,2.26.03,3.41,0.09a5.335,5.335,0,0,1,5.39,5.54c0.01,0.59.01,1.18,0.01,1.77h-0.01l-0.03,1.34c0,0.42.01,0.84,0.01,1.25,0.02,0.91.03,1.76-.02,2.61a4.876,4.876,0,0,1-4.27,4.77C1307.92,3137.45,1306.41,3137.52,1304.92,3137.52Zm-4.55-4.17h9.14v-9.18h-9.14v9.18Zm4.68-22.73c-1.19,0-2.42-.02-3.66-0.06a5.21,5.21,0,0,1-5.2-5.11c-0.11-2.41-.11-4.82.01-7.15a5.328,5.328,0,0,1,5.4-5.15c0.96-.03,1.96-0.04,3.08-0.04s2.26,0.01,3.39.03c3.45,0.06,5.56,2.16,5.65,5.63,0.01,0.59.01,1.18,0.01,1.78h-0.01l-0.02,1.34c0,0.4,0,.79.01,1.19,0.01,0.86.02,1.67-.02,2.47a5.137,5.137,0,0,1-5.07,5.01C1307.46,3110.6,1306.26,3110.62,1305.05,3110.62Zm-4.72-4.18h9.25v-9.12h-9.25v9.12Zm56.45,4.16c-0.43,0-.85-0.01-1.27-0.03a5.175,5.175,0,0,1-5.2-5.06c-0.09-2.3-.09-4.72-0.01-7.18a5.255,5.255,0,0,1,5.31-5.18c1.14-.03,2.29-0.05,3.42-0.05s2.29,0.02,3.42.05a5.286,5.286,0,0,1,5.33,5.03,63.933,63.933,0,0,1,.01,7.33,5.261,5.261,0,0,1-5.26,5.06c-0.43.02-.86,0.02-1.28,0.02h-1.11c-0.37-.01-0.75-0.01-1.12-0.01s-0.75,0-1.13.01S1357.15,3110.6,1356.78,3110.6Zm-2.34-4.14h9.18v-9.14h-9.18v9.14Zm-20.23,57.99c-0.39,0-.78-0.01-1.16-0.01-0.4-.01-0.8-0.02-1.2-0.02h-1.35v0.02c-0.22.01-.43,0.01-0.64,0.01-0.38,0-.75-0.01-1.12-0.02a5.355,5.355,0,0,1-5.51-5.29,61.619,61.619,0,0,1,0-6.93c0.18-3.19,2.23-5.14,5.49-5.24,1.11-.03,2.21-0.04,3.28-0.04,1.14,0,2.27.02,3.36,0.05,3.05,0.1,5.09,1.93,5.33,4.78a48.736,48.736,0,0,1,0,7.83,5.2,5.2,0,0,1-5.17,4.82C1335.13,3164.44,1334.71,3164.45,1334.21,3164.45Zm-6.82-4.14h9.2v-9.22h-9.2v9.22Zm31.99-76.55c-1.15,0-2.29-.02-3.43-0.03-3.47-.05-5.59-2.14-5.67-5.6-0.02-.59-0.02-1.18-0.01-1.77h0l0.01-1.35v-1.12c-0.01-.82-0.02-1.59.01-2.36a5.192,5.192,0,0,1,5.24-5.23c1.07-.03,2.2-0.04,3.36-0.04s2.33,0.01,3.5.04a5.28,5.28,0,0,1,5.4,5.1,71.042,71.042,0,0,1,0,7.15,5.312,5.312,0,0,1-5.37,5.17C1361.41,3083.75,1360.39,3083.76,1359.38,3083.76Zm-4.9-4.22h9.18v-9.13h-9.18v9.13Zm-22.46,4.19-2.01.01c-0.38,0-.76,0-1.13-0.01a5.344,5.344,0,0,1-5.65-5.3,65.7,65.7,0,0,1-.02-6.75c0.16-3.33,2.29-5.35,5.71-5.39,1.15-.01,2.29-0.03,3.44-0.03,1.2,0,2.25.02,3.23,0.05a4.955,4.955,0,0,1,5.03,4.42,46.1,46.1,0,0,1,.02,8.39,5.107,5.107,0,0,1-5.3,4.6c-0.41.02-.82,0.02-1.23,0.02C1333.78,3083.74,1332.02,3083.73,1332.02,3083.73Zm-4.6-4.12h9.19v-9.22h-9.19v9.22Zm-22.3,4.16c-1.17,0-2.34-.02-3.52-0.05a5.371,5.371,0,0,1-5.42-5.32c-0.08-2.19-.08-4.47,0-6.79a5.331,5.331,0,0,1,5.39-5.31c1.05-.02,2.09-0.03,3.14-0.03,1.11,0,2.23.01,3.34,0.02,3.46,0.05,5.58,2.13,5.67,5.57,0.01,0.59.01,1.19,0.01,1.77h-0.01l-0.02,1.35c0,0.4,0,.79.01,1.19,0.01,0.86.02,1.67-.02,2.48a5.245,5.245,0,0,1-5.24,5.07C1307.39,3083.75,1306.27,3083.77,1305.12,3083.77Zm-4.75-4.21h9.19v-9.15h-9.19v9.15Zm31.54,31.03c-0.34,0-1.67.01-2,.01-0.41,0-.82-0.01-1.22-0.02-3.11-.09-5.18-1.97-5.41-4.91a50.28,50.28,0,0,1-.02-7.47,5.27,5.27,0,0,1,5.49-5.06q1.605-.03,3.21-0.03c1.09,0,2.17.01,3.26,0.03a5.3,5.3,0,0,1,5.51,5.04,53.658,53.658,0,0,1,.02,7.29c-0.21,3.13-2.3,5.04-5.61,5.12-0.37,0-.75.01-1.12,0.01S1331.91,3110.59,1331.91,3110.59Zm-4.52-4.12h9.21v-9.22h-9.21v9.22Zm-22.44,58.01c-1.13,0-2.28-.02-3.39-0.07a5.381,5.381,0,0,1-5.39-5.58c-0.05-2.06-.03-4.12,0-6.05,0.04-3.62,2.18-5.74,5.86-5.82,0.36-.01.71-0.01,1.07-0.01h0.52v0.01l1.35,0.02c0.4,0,.8,0,1.2-0.01,0.38,0,.77-0.01,1.16-0.01q0.66,0,1.32.03a5.132,5.132,0,0,1,5.04,5.05c0.08,2.1.08,4.38,0.01,7a5.259,5.259,0,0,1-5.34,5.37C1307.22,3164.46,1306.08,3164.48,1304.95,3164.48Zm-4.67-4.18h9.25v-9.13h-9.25v9.13Zm58.71,4.19c-1.15,0-2.32-.03-3.46-0.08a5.273,5.273,0,0,1-5.24-5.47c-0.05-2.03-.06-4.13-0.01-6.44,0.07-3.35,2.13-5.42,5.52-5.53,0.4-.02.8-0.02,1.21-0.02h0.76v0.01l1.35,0.02c0.38,0,.76-0.01,1.14-0.01,0.36-.01.73-0.01,1.09-0.01,0.42,0,.84,0,1.26.03a5.2,5.2,0,0,1,5.17,4.97,66.269,66.269,0,0,1,.01,7.33,5.327,5.327,0,0,1-5.27,5.11C1361.35,3164.46,1360.16,3164.49,1358.99,3164.49Zm-4.49-4.15h9.18v-9.21h-9.18v9.21Z" transform="translate(-1232 -3036)"/>
</svg>
