<svg xmlns="http://www.w3.org/2000/svg" width="132" height="200" viewBox="0 0 132 200">
  <defs>
    <style>
      .cls-1 {
        fill: #d9e1e7;
        fill-rule: evenodd;
      }
    </style>
  </defs>
  <path id="infographics-icn07.svg" class="cls-1" d="M2205.64,3869c-3.97-1.25-6.4-4.01-7.86-8.91-1.75-5.85-3.71-11.74-5.6-17.43-0.8-2.4-1.6-4.8-2.38-7.2l-4.88-14.91-0.7.33a10.1,10.1,0,0,1-4.42,1.06,10.782,10.782,0,0,1-4.46-1.03l-0.68-.3-0.51,1.52c-0.18.51-.33,0.96-0.47,1.41l-3.39,10.29c-2.83,8.59-5.76,17.47-8.49,26.26-1.54,4.94-3.97,7.69-7.87,8.91h-3.69c-2.81-.89-5.13-2.77-7.29-5.91-1.44-2.11-3.1-4.27-4.91-6.43a3.829,3.829,0,0,0-2.58-1.29,0.915,0.915,0,0,0-.17.01c-3.55.3-7.13,0.8-10.29,1.24a13.521,13.521,0,0,1-1.76.13,8.855,8.855,0,0,1-7.53-3.89,9.03,9.03,0,0,1-.64-10.04q5.865-11.49,11.77-22.96l4.59-8.94c0.51-.99,1.02-1.99,1.52-2.98,1.28-2.51,2.6-5.11,3.97-7.63a2.733,2.733,0,0,0-.48-3.67,80.183,80.183,0,0,1-20.86-40.57,100.447,100.447,0,0,1-1.66-17.24c-0.17-10.54-.14-21.26-0.1-31.62q0.015-6,.02-12c0.01-6.86,3.53-10.51,10.48-10.86,17.5-.88,32.63-4.64,46.24-11.5,1.74-.88,3.46-1.78,5.18-2.67,0.75-.4,1.51-0.79,2.26-1.18h3.59c1.94,0.9,3.89,1.84,5.78,2.75,4.33,2.09,8.81,4.25,13.38,6,9.82,3.75,20.66,5.85,34.11,6.61a19.3,19.3,0,0,1,4.27.58,9.162,9.162,0,0,1,6.57,9.1c-0.01,4.7.02,9.48,0.05,14.1,0.07,12.51.15,25.45-.48,38.13-0.91,18.33-8.1,34.99-21.37,49.5-1.72,1.88-1.9,3.34-.72,5.6,5.07,9.72,10.16,19.64,15.08,29.23q3.03,5.94,6.09,11.87c1.93,3.77,1.77,7.27-.49,10.4a8.83,8.83,0,0,1-7.5,3.88,12.254,12.254,0,0,1-1.97-.16c-0.73-.11-1.47-0.16-2.19-0.22a14.686,14.686,0,0,1-3.32-.48,11.382,11.382,0,0,0-3.28-.54c-2.96,0-5.15,1.53-6.71,4.68a8.165,8.165,0,0,1-1.17,1.62,14.277,14.277,0,0,0-1,1.29c-2.14,3.23-4.48,5.16-7.38,6.06h-3.7Zm-67.93-19.33a3.639,3.639,0,0,1,3.15,1.78c1.35,1.84,2.75,3.67,4.11,5.45,1.07,1.41,2.15,2.83,3.21,4.26,0.9,1.2,2.01,2.49,3.85,2.49h0a4.72,4.72,0,0,0,.64-0.05c2.29-.36,3.06-2.18,3.61-3.87q3.63-11.25,7.32-22.49l5.96-18.28-0.59-.23a91.615,91.615,0,0,1-26.39-16.06l-0.65-.56-4.6,8.96c-5.78,11.24-11.75,22.87-17.51,34.28a4.81,4.81,0,0,0,.27,4.3,4.894,4.894,0,0,0,3.65,1.64,2.437,2.437,0,0,0,.27-0.01c3.85-.29,8.04-0.79,12.82-1.54A5.567,5.567,0,0,1,2137.71,3849.67Zm79.28-46.99a91.952,91.952,0,0,1-26.26,16.01l-0.5.2,0.08,0.53c0.02,0.14.04,0.26,0.05,0.37a3.5,3.5,0,0,0,.12.66l4.85,14.85q4.125,12.615,8.23,25.23c0.63,1.94,1.81,3.01,3.32,3.01,0.07,0,.14-0.01.22-0.01a5.747,5.747,0,0,0,3.76-1.83c2.24-2.71,4.38-5.58,6.45-8.36,0.56-.74,1.12-1.49,1.68-2.23a3.125,3.125,0,0,1,2.59-1.48,3.671,3.671,0,0,1,.46.03c1.45,0.18,2.91.36,4.36,0.53,2.76,0.34,5.61.68,8.4,1.07a9.419,9.419,0,0,0,1.38.12,3.915,3.915,0,0,0,3.45-1.7c1.26-1.8.65-3.53-.19-5.13-1.41-2.69-2.81-5.44-4.17-8.1-0.61-1.19-1.22-2.39-1.83-3.58l-15.8-30.76Zm-37.21-128.33c-0.92,0-1.74.47-3.23,1.32-0.73.41-1.64,0.93-2.82,1.55-14.11,7.4-30.14,11.47-49,12.47-4.38.23-5.58,1.47-5.58,5.79v43.45a74.951,74.951,0,0,0,4.36,26.45c9.4,25.36,27.88,42.5,54.94,50.95a3.963,3.963,0,0,0,1.18.16,7.437,7.437,0,0,0,2.05-.33,82.673,82.673,0,0,0,35.27-20.71c14.4-14.35,22.2-31.57,23.21-51.2,0.28-5.45.2-11,.13-16.38-0.03-2.21-.06-4.5-0.07-6.75l0.2-.01v-7.91q0.015-9.165-.01-18.31c0-3.46-1.35-4.91-4.78-5.17-0.89-.06-1.79-0.13-2.68-0.19-2.56-.17-5.2-0.36-7.78-0.66-15.03-1.78-27.89-5.6-39.32-11.66-1.08-.57-1.93-1.05-2.62-1.45C2181.56,3674.82,2180.72,3674.35,2179.78,3674.35Zm-0.05,133.51a8.921,8.921,0,0,1-3.01-.53c-20.5-7.45-35.2-20.77-43.7-39.59a68.27,68.27,0,0,1-5.84-28.75v-31.46c0.01-6.5,2.94-9.9,9.22-10.69a125.538,125.538,0,0,0,39.12-11.46,9.5,9.5,0,0,1,4.18-1,11.35,11.35,0,0,1,4.97,1.26,121.241,121.241,0,0,0,34.91,10.67c1.31,0.19,2.71.38,4.27,0.58a9.188,9.188,0,0,1,8.5,9.36c0.09,4.57.07,9.21,0.05,13.7-0.01,1.99-.02,3.97-0.02,5.95v0.67h0.22c-0.06,2.09-.09,4.19-0.11,6.24-0.07,4.94-.14,10.05-0.69,15.01-2.22,19.96-11.93,36.46-28.85,49.04a76.161,76.161,0,0,1-19.44,10.27A11.036,11.036,0,0,1,2179.73,3807.86Zm0.04-118.07a5.094,5.094,0,0,0-2.24.55,129.578,129.578,0,0,1-40.38,11.81c-3.68.46-4.63,1.57-4.64,5.41v18.28c0,1.14,0,2.28.01,3.41,0,2.49.01,5.07-.02,7.59a68.537,68.537,0,0,0,2,18.89c6.13,22.18,20.76,37.77,43.48,46.32a4.641,4.641,0,0,0,1.65.27,7.148,7.148,0,0,0,2.36-.41,66.4,66.4,0,0,0,19.79-10.86c15.64-12.51,24.08-28.51,25.07-47.53,0.36-6.81.3-13.74,0.25-20.45-0.02-2.97-.05-6.05-0.04-9.07l0.01-1.48c0.01-1.97.02-4-.03-6.01-0.07-2.56-1.29-3.93-3.86-4.29-0.63-.09-1.26-0.17-1.9-0.25s-1.31-.17-1.96-0.27a128.156,128.156,0,0,1-37.13-11.3A5.515,5.515,0,0,0,2179.77,3689.79Z" transform="translate(-2113.81 -3669)"/>
</svg>
