<svg xmlns="http://www.w3.org/2000/svg" width="32" height="32" viewBox="0 0 32 32">
  <defs>
    <style>
      .cls-1 {
        fill: #032f9b;
        fill-rule: evenodd;
      }
    </style>
  </defs>
  <path id="list-icn_check.svg" class="cls-1" d="M451.755,1356.37h-0.007a16,16,0,0,1,.006-31.99h0.006a15.983,15.983,0,0,1,8.843,2.67l-1.363,2.05a13.455,13.455,0,0,0-7.481-2.26h0a13.535,13.535,0,0,0,0,27.07h0.006a13.549,13.549,0,0,0,13.53-13.53,13.056,13.056,0,0,0-.6-3.96l2.35-.74a15.693,15.693,0,0,1,.707,4.7A16.01,16.01,0,0,1,451.755,1356.37Zm-0.8-10.63-6.168-6.17,1.74-1.74,4.428,4.43,13.371-13.38,1.74,1.74Z" transform="translate(-435.75 -1324.38)"/>
</svg>
