<svg xmlns="http://www.w3.org/2000/svg" viewBox="0 0 339.61 35.45"><defs><style>.cls-1{fill:#040000;}</style></defs><g id="レイヤー_2" data-name="レイヤー 2"><g id="レイヤー_1-2" data-name="レイヤー 1"><path class="cls-1" d="M232,1.43h-5.77V31H243.8V26H232ZM254.9,7.57a10.49,10.49,0,0,0-8,3.59A11.39,11.39,0,0,0,244,18.49a11.63,11.63,0,0,0,2.75,7.29c1.82,2.27,4.53,3.51,8,3.67h0a10.58,10.58,0,0,0,10.33-7,.14.14,0,0,0,0-.14.16.16,0,0,0-.12-.06h-5.16a.16.16,0,0,0-.13.06,5.65,5.65,0,0,1-2.13,1.88,6.73,6.73,0,0,1-2.92.6,5.62,5.62,0,0,1-3.93-1.49,4.84,4.84,0,0,1-1.48-3.07h16.44a.14.14,0,0,0,.15-.15V17.64a10,10,0,0,0-3-6.7,11.09,11.09,0,0,0-7.93-3.37m-5.43,8.61a5.36,5.36,0,0,1,1.95-2.83A6,6,0,0,1,255,12.17a5.87,5.87,0,0,1,3.51,1.14,5.24,5.24,0,0,1,1.94,2.87ZM333.9,8.34,326.21,21.5,318.62,8.34h-5.5L323,27.05l-4.85,8.4h5.64L339.61,8.34Zm-30.2-.62a9.46,9.46,0,0,0-3.67.69,11,11,0,0,0-2.73,1.7V8.34h-4.71V35.45h4.71V27.12A8,8,0,0,0,300,28.75a10.48,10.48,0,0,0,3.47.55q5.32-.21,8.09-3.46a11,11,0,0,0,2.78-7.27,11.46,11.46,0,0,0-2.78-7.33,10.21,10.21,0,0,0-7.87-3.52m4.2,14.86a5.79,5.79,0,0,1-8.8.11,6.54,6.54,0,0,1-1.58-4.27,6.33,6.33,0,0,1,1.5-4.06,5.4,5.4,0,0,1,4.21-1.94,6,6,0,0,1,4.64,2,6.18,6.18,0,0,1,1.54,4,6.64,6.64,0,0,1-1.51,4.16M285,10.8A7.48,7.48,0,0,0,282,8.44a9.25,9.25,0,0,0-3.79-.72c-3.52.15-6.14,1.36-7.88,3.62a11.56,11.56,0,0,0-2.61,7.15,11.3,11.3,0,0,0,2.71,7.31q2.69,3.27,7.86,3.5a10.13,10.13,0,0,0,4.22-.77A5.26,5.26,0,0,0,285,26.28v2.55h4.56V8.34H285Zm-2.07,11.79a5.58,5.58,0,0,1-4.34,2,5.45,5.45,0,0,1-4.46-2.15,7.11,7.11,0,0,1-1.47-4.24,5.93,5.93,0,0,1,1.57-3.81,5.75,5.75,0,0,1,8.69,0,6.23,6.23,0,0,1,1.55,3.91,6.67,6.67,0,0,1-1.54,4.25"/><path class="cls-1" d="M202.41,0l-18.1,31.35H220.5Zm10.45,22.1H200.15l6.36-11ZM202.41,4l2.94,5.1-7.51,13H192ZM190.8,24.1H214l3,5.25H187.77Z"/><path class="cls-1" d="M7.53,10a6.9,6.9,0,0,1,2.67.46A4.9,4.9,0,0,1,12,11.67a4.64,4.64,0,0,1,1,1.71,6.29,6.29,0,0,1,0,4,4.6,4.6,0,0,1-1,1.72,5,5,0,0,1-1.78,1.21,7.1,7.1,0,0,1-2.67.45H3.67v6H0V10Zm-1,7.86a8,8,0,0,0,1.22-.09,3,3,0,0,0,1-.37,1.93,1.93,0,0,0,.71-.76,2.62,2.62,0,0,0,.27-1.28,2.69,2.69,0,0,0-.27-1.29,1.93,1.93,0,0,0-.71-.76,2.8,2.8,0,0,0-1-.36,8,8,0,0,0-1.22-.09H3.67v5Z"/><path class="cls-1" d="M24.84,10a5.39,5.39,0,0,1,2,.36,4.87,4.87,0,0,1,1.55,1,4.37,4.37,0,0,1,1,1.46,4.79,4.79,0,0,1,.34,1.79,5.07,5.07,0,0,1-.62,2.55,4,4,0,0,1-2,1.64v0a3,3,0,0,1,1.12.57,3.23,3.23,0,0,1,.72.92,3.93,3.93,0,0,1,.41,1.15,9.47,9.47,0,0,1,.18,1.27c0,.26,0,.57,0,.93s.05.73.09,1.1a8.52,8.52,0,0,0,.18,1.07,2.56,2.56,0,0,0,.39.85H26.55a6.32,6.32,0,0,1-.38-1.89c0-.74-.11-1.44-.21-2.11a3.35,3.35,0,0,0-.79-1.92,2.77,2.77,0,0,0-2-.6H19.51v6.52H15.84V10Zm-1.31,7.56A2.74,2.74,0,0,0,25.42,17a2.29,2.29,0,0,0,.64-1.82,2.21,2.21,0,0,0-.64-1.77,2.84,2.84,0,0,0-1.89-.54h-4v4.7Z"/><path class="cls-1" d="M32.86,15a8.34,8.34,0,0,1,1.61-2.8,7.56,7.56,0,0,1,2.59-1.87,9.12,9.12,0,0,1,6.91,0,7.58,7.58,0,0,1,2.57,1.87A8.34,8.34,0,0,1,48.15,15a10.27,10.27,0,0,1,.56,3.47,9.9,9.9,0,0,1-.56,3.4,8,8,0,0,1-1.61,2.75A7.5,7.5,0,0,1,44,26.42a9.37,9.37,0,0,1-6.91,0,7.49,7.49,0,0,1-2.59-1.84,8,8,0,0,1-1.61-2.75,9.9,9.9,0,0,1-.56-3.4A10.27,10.27,0,0,1,32.86,15Zm3.35,5.52A5.68,5.68,0,0,0,37,22.27a4,4,0,0,0,1.4,1.27,4.86,4.86,0,0,0,4.21,0A4,4,0,0,0,44,22.27a5.68,5.68,0,0,0,.79-1.79A8.77,8.77,0,0,0,45,18.43a9.4,9.4,0,0,0-.24-2.13A5.8,5.8,0,0,0,44,14.47a3.94,3.94,0,0,0-1.4-1.29,4.86,4.86,0,0,0-4.21,0A3.94,3.94,0,0,0,37,14.47a5.8,5.8,0,0,0-.79,1.83A9.4,9.4,0,0,0,36,18.43,8.77,8.77,0,0,0,36.21,20.48Z"/><path class="cls-1" d="M58.92,10a8.46,8.46,0,0,1,3,.52,6.43,6.43,0,0,1,2.41,1.54,7.09,7.09,0,0,1,1.59,2.57,10.48,10.48,0,0,1,.57,3.63A11.23,11.23,0,0,1,66,21.63a7.42,7.42,0,0,1-1.41,2.67,6.64,6.64,0,0,1-2.36,1.77,8,8,0,0,1-3.34.64h-7.2V10Zm-.25,13.61a4.73,4.73,0,0,0,1.54-.25,3.47,3.47,0,0,0,1.33-.86A4.23,4.23,0,0,0,62.48,21a7,7,0,0,0,.35-2.34,9.42,9.42,0,0,0-.25-2.28,4.5,4.5,0,0,0-.8-1.74,3.49,3.49,0,0,0-1.49-1.11A5.83,5.83,0,0,0,58,13.1H55.39V23.62Z"/><path class="cls-1" d="M81.77,25.44a7.78,7.78,0,0,1-5.24,1.64,7.69,7.69,0,0,1-5.25-1.63,6.39,6.39,0,0,1-1.86-5.05V10h3.67V20.4a7.39,7.39,0,0,0,.12,1.33,2.62,2.62,0,0,0,.49,1.16,2.7,2.7,0,0,0,1,.81,4.07,4.07,0,0,0,1.79.32,3.41,3.41,0,0,0,2.71-.88A4.15,4.15,0,0,0,80,20.4V10h3.67V20.4A6.34,6.34,0,0,1,81.77,25.44Z"/><path class="cls-1" d="M98,14.47a3.72,3.72,0,0,0-1.93-1.55,4.08,4.08,0,0,0-1.3-.22,4.3,4.3,0,0,0-2.11.48,4,4,0,0,0-1.4,1.29,5.56,5.56,0,0,0-.78,1.83,8.87,8.87,0,0,0-.25,2.13,8.28,8.28,0,0,0,.25,2.05,5.44,5.44,0,0,0,.78,1.79,4.07,4.07,0,0,0,1.4,1.27,4.3,4.3,0,0,0,2.11.48,3.38,3.38,0,0,0,2.63-1,4.75,4.75,0,0,0,1.16-2.71h3.55a8.41,8.41,0,0,1-.72,2.83,6.77,6.77,0,0,1-1.55,2.15,6.7,6.7,0,0,1-2.24,1.36,8.28,8.28,0,0,1-2.83.46,8.63,8.63,0,0,1-3.45-.66,7.45,7.45,0,0,1-2.58-1.84,8,8,0,0,1-1.62-2.75,10.15,10.15,0,0,1-.56-3.4A10.52,10.52,0,0,1,87.1,15a8.37,8.37,0,0,1,1.62-2.8,7.52,7.52,0,0,1,2.58-1.87,8.46,8.46,0,0,1,3.45-.68,8.59,8.59,0,0,1,2.61.4,7.07,7.07,0,0,1,2.19,1.16,6.23,6.23,0,0,1,1.61,1.88,6.79,6.79,0,0,1,.79,2.57H98.4A3.24,3.24,0,0,0,98,14.47Z"/><path class="cls-1" d="M117.54,10V13.1h-8.81v3.58h8.09v2.85h-8.09v4.09h9v3.09H105.06V10Z"/><path class="cls-1" d="M128.06,10a8.45,8.45,0,0,1,3,.52,6.43,6.43,0,0,1,2.41,1.54,7.09,7.09,0,0,1,1.59,2.57,10.48,10.48,0,0,1,.57,3.63,11.57,11.57,0,0,1-.46,3.36,7.6,7.6,0,0,1-1.42,2.67,6.64,6.64,0,0,1-2.36,1.77,8,8,0,0,1-3.33.64h-7.21V10Zm-.26,13.61a4.73,4.73,0,0,0,1.54-.25,3.5,3.5,0,0,0,1.34-.86,4.22,4.22,0,0,0,.93-1.55,6.71,6.71,0,0,0,.35-2.34,10,10,0,0,0-.24-2.28,4.51,4.51,0,0,0-.81-1.74,3.46,3.46,0,0,0-1.48-1.11,5.9,5.9,0,0,0-2.28-.39h-2.62V23.62Z"/><path class="cls-1" d="M153.71,10a10.47,10.47,0,0,1,2.18.21,4.72,4.72,0,0,1,1.68.69,3.24,3.24,0,0,1,1.09,1.28,4.42,4.42,0,0,1,.38,2,3.69,3.69,0,0,1-.57,2.11,4.21,4.21,0,0,1-1.69,1.38,4,4,0,0,1,2.3,1.55,4.6,4.6,0,0,1,.76,2.68,4.6,4.6,0,0,1-.49,2.19,4.34,4.34,0,0,1-1.32,1.5,6,6,0,0,1-1.9.87,8.41,8.41,0,0,1-2.18.28h-8.1V10Zm-.46,6.76a2.65,2.65,0,0,0,1.61-.47,1.77,1.77,0,0,0,.63-1.52,2,2,0,0,0-.21-1,1.56,1.56,0,0,0-.56-.58,2.37,2.37,0,0,0-.81-.29,4.87,4.87,0,0,0-.95-.08h-3.43v3.9Zm.21,7.09a4.83,4.83,0,0,0,1-.11,2.6,2.6,0,0,0,.87-.35,1.77,1.77,0,0,0,.6-.67,2.39,2.39,0,0,0,.22-1.07,2.15,2.15,0,0,0-.73-1.84,3.12,3.12,0,0,0-1.91-.55h-4v4.59Z"/><path class="cls-1" d="M160.47,10h4.12l3.9,6.6,3.88-6.6h4.1l-6.2,10.29v6.41H166.6v-6.5Z"/></g></g></svg>