<svg xmlns="http://www.w3.org/2000/svg" width="266" height="32" viewBox="0 0 266 32">
  <g id="グループ_6640" data-name="グループ 6640" transform="translate(-16493 18221)">
    <g id="グループ_6636" data-name="グループ 6636" transform="translate(0 -0.289)">
      <path id="パス_13243" data-name="パス 13243" d="M98.178,36.717v-8.14a.729.729,0,0,0-.238-.534.845.845,0,0,0-.573-.221H92.129V25.9a.708.708,0,0,0-.079-.326.769.769,0,0,0-.224-.262.846.846,0,0,0-.324-.146.862.862,0,0,0-.36,0L78.1,27.841a.846.846,0,0,0-.274.109l-.016.012a.748.748,0,0,0-.1.075c-.008.007-.015.015-.023.022a.878.878,0,0,0-.074.085l-.021.03a.672.672,0,0,0-.054.089l-.016.032a.718.718,0,0,0-.036.109.118.118,0,0,0-.008.025.658.658,0,0,0-.017.146V53.029a.645.645,0,0,0,.017.145.137.137,0,0,0,.008.03.736.736,0,0,0,.034.1l.02.04a.646.646,0,0,0,.049.085.4.4,0,0,0,.028.038.727.727,0,0,0,.063.072l.034.033a.745.745,0,0,0,.085.062c.012.008.022.017.035.025a.993.993,0,0,0,.108.054l.024.012a.86.86,0,0,0,.138.041h.012L91.15,56.447a.874.874,0,0,0,.176.018.846.846,0,0,0,.573-.222.73.73,0,0,0,.239-.534V53.784h5.238a.846.846,0,0,0,.573-.222.732.732,0,0,0,.238-.534V44.89H96.557v7.385H92.131V29.333h4.426v7.385Z" transform="translate(16419.049 -18245.852)" fill="#ffeb47"/>
      <path id="パス_13244" data-name="パス 13244" d="M107.544,41h-3.776V38.656l-6.757,4.313,6.757,4.313V44.939h3.776Z" transform="translate(16416.033 -18247.936)" fill="#ffeb47"/>
      <path id="パス_13245" data-name="パス 13245" d="M133.946,44.037c-1.548,1.242-2.284,2.308-2.284,3.3,0,1.472,1.752,2.132,5.709,2.132a27.1,27.1,0,0,0,8.245-1.117l.279,4.161a21.783,21.783,0,0,0-2.283.228,39.976,39.976,0,0,1-5.734.406,19.5,19.5,0,0,1-6.673-.837c-2.283-.863-3.4-2.334-3.4-4.415s1.039-3.856,3.451-5.785ZM129.455,33.1a38.062,38.062,0,0,0,8.194.634,34.046,34.046,0,0,0,6.647-.457l.127,3.349a47.534,47.534,0,0,0-6.927,4.339l-2.588-1.929c.888-.583,2.613-1.649,3.349-2.08a22.418,22.418,0,0,1-2.892.153,47.652,47.652,0,0,1-5.252-.3,4.4,4.4,0,0,0-.887-.076ZM142.7,38.709a12.735,12.735,0,0,1,2.258,3.2l-2.081,1.219a13.939,13.939,0,0,0-2.258-3.248Zm2.791-1.522a14.76,14.76,0,0,1,2.258,3.07l-2.03,1.192A16.421,16.421,0,0,0,143.51,38.3Z" transform="translate(16411.283 -18247.078)" fill="#fff"/>
      <path id="パス_13246" data-name="パス 13246" d="M163.751,35.127a26.379,26.379,0,0,0-2.663.153V31.753a14.777,14.777,0,0,0,2.612.151h4.364a14.432,14.432,0,0,0,2.283-.127c-.051.66-.076,1.066-.076,1.6a19.689,19.689,0,0,0,7.1,15.3,18.485,18.485,0,0,0,3.3,2.308,13.029,13.029,0,0,0-2.461,3.426,24.329,24.329,0,0,1-5.683-5.353,19.927,19.927,0,0,1-3.806-7.434A20.766,20.766,0,0,1,165.045,49a23.6,23.6,0,0,1-6.114,5.43,10.618,10.618,0,0,0-2.386-3.12,20.211,20.211,0,0,0,4.644-3.553,17.663,17.663,0,0,0,4.465-7.56,17.451,17.451,0,0,0,.888-5.074Z" transform="translate(16406.85 -18246.873)" fill="#fff"/>
      <path id="パス_13247" data-name="パス 13247" d="M194.932,39.492a27.3,27.3,0,0,1-3.83,1.98,10.812,10.812,0,0,0-1.675-3.147,21.562,21.562,0,0,0,6.115-3.2,15.761,15.761,0,0,0,4.136-4.187H203.2a15.337,15.337,0,0,0,4.288,4.085,24.2,24.2,0,0,0,6.291,3.121,15.044,15.044,0,0,0-1.572,3.4,23.731,23.731,0,0,1-4.059-2.08v1.725a20.974,20.974,0,0,0-2.36-.1h-8.6a21.436,21.436,0,0,0-2.258.1Zm-1.319,6.419a24.215,24.215,0,0,0-3.019.152V42.689c.863.076,1.878.127,3.019.127H209.52c1.218,0,2.182-.051,3.019-.127v3.374a24.5,24.5,0,0,0-3.019-.152h-8.575a30.619,30.619,0,0,1-2.436,4.491c5.1-.255,5.1-.255,7.256-.508-.811-.913-1.217-1.37-2.435-2.639l3.044-1.269a53.874,53.874,0,0,1,5.76,6.774l-2.969,1.878c-.71-1.116-.938-1.446-1.345-2.056-2.436.331-2.486.331-3.882.457-1.242.128-8.676.787-9.64.837-1.167.076-2.207.2-2.791.305l-.431-3.628c.762.05,1.142.05,1.776.05.254,0,.863,0,1.8-.025a32.221,32.221,0,0,0,2.486-4.668Zm12.381-7.84a19.908,19.908,0,0,1-4.492-4.211,19.425,19.425,0,0,1-4.465,4.211Z" transform="translate(16401.777 -18246.746)" fill="#fff"/>
      <path id="パス_13248" data-name="パス 13248" d="M229.515,32.407a35.43,35.43,0,0,0-1.675,7.712,48.832,48.832,0,0,0-.329,4.9c0,.507-.026,1.5-.026,1.9.559-1.37.736-1.827,1.143-2.639l2.157.863a20.059,20.059,0,0,0-2.283,7.738c0,.1.025.355.051.812l-3.628.178c-.025-.33-.025-.482-.1-1.015a51.338,51.338,0,0,1-.685-8.322,45.494,45.494,0,0,1,.482-6.824c.1-.761.1-.761.608-3.5a14.081,14.081,0,0,0,.305-2.157ZM230.86,36.7a22.438,22.438,0,0,0,4.744.381c.711,0,1.167,0,2.03-.026,0-1.877,0-1.877-.025-3.577a6.476,6.476,0,0,0-.1-1.319h3.755a28.854,28.854,0,0,0-.178,4.643,21.5,21.5,0,0,0,4.11-.837l.127,3.45a6.382,6.382,0,0,0-.99.153,29.189,29.189,0,0,1-3.222.507c.025,2.054.051,2.613.255,5.86a20.5,20.5,0,0,1,3.881,2.208c.381.254.456.3.735.481l-1.395,3.654a15.292,15.292,0,0,0-3.273-2.612,2.923,2.923,0,0,1,.025.43c0,2.233-2.03,3.654-5.252,3.654-3.5,0-5.632-1.675-5.632-4.415s2.207-4.541,5.556-4.541a7.614,7.614,0,0,1,1.828.2c-.026-.862-.076-2-.153-4.694-.735.026-1.167.026-1.725.026-.913,0-3.171-.076-4.262-.152-.407-.025-.407-.025-.736-.025a.444.444,0,0,0-.152.025Zm5.2,11.188c-1.345,0-2.233.558-2.233,1.422,0,.812.762,1.318,2,1.318,1.472,0,2.107-.558,2.107-1.827a2.291,2.291,0,0,0-.026-.533,4.567,4.567,0,0,0-1.852-.381" transform="translate(16396.422 -18246.918)" fill="#fff"/>
      <path id="パス_13249" data-name="パス 13249" d="M262.707,44.007c-1.549,1.242-2.285,2.308-2.285,3.3,0,1.472,1.752,2.132,5.709,2.132a27.068,27.068,0,0,0,8.245-1.117l.279,4.161a21.687,21.687,0,0,0-2.283.229,40.081,40.081,0,0,1-5.734.405,19.505,19.505,0,0,1-6.673-.837c-2.282-.863-3.4-2.334-3.4-4.415s1.04-3.856,3.451-5.785Zm-4.491-10.935a38.056,38.056,0,0,0,8.194.634,34.037,34.037,0,0,0,6.647-.457l.127,3.349a47.606,47.606,0,0,0-6.927,4.339l-2.588-1.928c.889-.584,2.613-1.649,3.35-2.08a22.73,22.73,0,0,1-2.893.151,47.624,47.624,0,0,1-5.251-.3,4.4,4.4,0,0,0-.889-.076Z" transform="translate(16391.42 -18247.074)" fill="#fff"/>
      <path id="パス_13250" data-name="パス 13250" d="M284.847,34.729a27.147,27.147,0,0,0,5.48.431,22.474,22.474,0,0,0,.66-4.009l4.009.3c-.052.2-.355,1.395-.939,3.653a45.879,45.879,0,0,0,9.59-1.039l.152,3.653c-.71.052-.71.052-3.221.3s-4.516.381-7.383.457a30.336,30.336,0,0,1-1.725,4.542,12,12,0,0,1,5.987-1.4c4.643,0,7.358,1.979,7.358,5.379,0,3.907-3.754,6.418-9.59,6.418a24.775,24.775,0,0,1-6.5-.862,15.429,15.429,0,0,0-.355-3.78,20.967,20.967,0,0,0,6.7,1.218c3.552,0,5.81-1.167,5.81-3.019,0-1.4-1.422-2.182-3.907-2.182a11.7,11.7,0,0,0-5.353,1.218,3.856,3.856,0,0,0-1.751,1.4L286.217,46.2a39.316,39.316,0,0,0,3.3-7.764H288.4c-.254,0-.406-.025-2.537-.178-.381-.025-.634-.025-.837-.025H284.8Z" transform="translate(16387.064 -18246.779)" fill="#fff"/>
      <path id="パス_13251" data-name="パス 13251" d="M321.593,36.61c-.279.99-.863,4.289-1.167,6.6A11.824,11.824,0,0,1,327.833,41c4.516,0,7.409,2.207,7.409,5.633a6.233,6.233,0,0,1-2.739,5.124,11.66,11.66,0,0,1-6.927,1.8,26.278,26.278,0,0,1-6.444-.812,15,15,0,0,0-.457-3.856,21.694,21.694,0,0,0,6.673,1.217c3.552,0,5.936-1.345,5.936-3.348,0-1.548-1.446-2.461-3.882-2.461A11.3,11.3,0,0,0,321.39,46a4.885,4.885,0,0,0-1.294,1.141l-3.679-.126c.051-.331.051-.355.1-.685.228-1.878.66-5.074,1.167-8.423.076-.61.1-.94.152-1.522Zm-.025-5.277a40.181,40.181,0,0,0,9.844,2.867l-1.219,3.5a49.073,49.073,0,0,1-10.4-3.248Z" transform="translate(16382.187 -18246.807)" fill="#fff"/>
      <path id="パス_13252" data-name="パス 13252" d="M375.385,35.819l-1.92,1.92,6.309,6.309-6.309,6.309,1.92,1.921,8.229-8.23Z" transform="translate(16373.386 -18247.5)" fill="#fff"/>
      <path id="パス_13253" data-name="パス 13253" d="M375.385,35.819l-1.92,1.92,6.309,6.309-6.309,6.309,1.92,1.921,8.229-8.23Z" transform="translate(16373.386 -18247.5)" fill="none" stroke="#fff" stroke-linecap="round" stroke-linejoin="round" stroke-width="1"/>
    </g>
    <g id="グループ_6637" data-name="グループ 6637" transform="translate(0 -0.289)">
      <path id="パス_13243-2" data-name="パス 13243" d="M98.178,36.717v-8.14a.729.729,0,0,0-.238-.534.845.845,0,0,0-.573-.221H92.129V25.9a.708.708,0,0,0-.079-.326.769.769,0,0,0-.224-.262.846.846,0,0,0-.324-.146.862.862,0,0,0-.36,0L78.1,27.841a.846.846,0,0,0-.274.109l-.016.012a.748.748,0,0,0-.1.075c-.008.007-.015.015-.023.022a.878.878,0,0,0-.074.085l-.021.03a.672.672,0,0,0-.054.089l-.016.032a.718.718,0,0,0-.036.109.118.118,0,0,0-.008.025.658.658,0,0,0-.017.146V53.029a.645.645,0,0,0,.017.145.137.137,0,0,0,.008.03.736.736,0,0,0,.034.1l.02.04a.646.646,0,0,0,.049.085.4.4,0,0,0,.028.038.727.727,0,0,0,.063.072l.034.033a.745.745,0,0,0,.085.062c.012.008.022.017.035.025a.993.993,0,0,0,.108.054l.024.012a.86.86,0,0,0,.138.041h.012L91.15,56.447a.874.874,0,0,0,.176.018.846.846,0,0,0,.573-.222.73.73,0,0,0,.239-.534V53.784h5.238a.846.846,0,0,0,.573-.222.732.732,0,0,0,.238-.534V44.89H96.557v7.385H92.131V29.333h4.426v7.385Z" transform="translate(16419.049 -18245.852)" fill="#ffeb47"/>
      <path id="パス_13244-2" data-name="パス 13244" d="M107.544,41h-3.776V38.656l-6.757,4.313,6.757,4.313V44.939h3.776Z" transform="translate(16416.033 -18247.936)" fill="#ffeb47"/>
      <path id="パス_13245-2" data-name="パス 13245" d="M133.946,44.037c-1.548,1.242-2.284,2.308-2.284,3.3,0,1.472,1.752,2.132,5.709,2.132a27.1,27.1,0,0,0,8.245-1.117l.279,4.161a21.783,21.783,0,0,0-2.283.228,39.976,39.976,0,0,1-5.734.406,19.5,19.5,0,0,1-6.673-.837c-2.283-.863-3.4-2.334-3.4-4.415s1.039-3.856,3.451-5.785ZM129.455,33.1a38.062,38.062,0,0,0,8.194.634,34.046,34.046,0,0,0,6.647-.457l.127,3.349a47.534,47.534,0,0,0-6.927,4.339l-2.588-1.929c.888-.583,2.613-1.649,3.349-2.08a22.418,22.418,0,0,1-2.892.153,47.652,47.652,0,0,1-5.252-.3,4.4,4.4,0,0,0-.887-.076ZM142.7,38.709a12.735,12.735,0,0,1,2.258,3.2l-2.081,1.219a13.939,13.939,0,0,0-2.258-3.248Zm2.791-1.522a14.76,14.76,0,0,1,2.258,3.07l-2.03,1.192A16.421,16.421,0,0,0,143.51,38.3Z" transform="translate(16411.283 -18247.078)" fill="#fff"/>
      <path id="パス_13246-2" data-name="パス 13246" d="M163.751,35.127a26.379,26.379,0,0,0-2.663.153V31.753a14.777,14.777,0,0,0,2.612.151h4.364a14.432,14.432,0,0,0,2.283-.127c-.051.66-.076,1.066-.076,1.6a19.689,19.689,0,0,0,7.1,15.3,18.485,18.485,0,0,0,3.3,2.308,13.029,13.029,0,0,0-2.461,3.426,24.329,24.329,0,0,1-5.683-5.353,19.927,19.927,0,0,1-3.806-7.434A20.766,20.766,0,0,1,165.045,49a23.6,23.6,0,0,1-6.114,5.43,10.618,10.618,0,0,0-2.386-3.12,20.211,20.211,0,0,0,4.644-3.553,17.663,17.663,0,0,0,4.465-7.56,17.451,17.451,0,0,0,.888-5.074Z" transform="translate(16406.85 -18246.873)" fill="#fff"/>
      <path id="パス_13247-2" data-name="パス 13247" d="M194.932,39.492a27.3,27.3,0,0,1-3.83,1.98,10.812,10.812,0,0,0-1.675-3.147,21.562,21.562,0,0,0,6.115-3.2,15.761,15.761,0,0,0,4.136-4.187H203.2a15.337,15.337,0,0,0,4.288,4.085,24.2,24.2,0,0,0,6.291,3.121,15.044,15.044,0,0,0-1.572,3.4,23.731,23.731,0,0,1-4.059-2.08v1.725a20.974,20.974,0,0,0-2.36-.1h-8.6a21.436,21.436,0,0,0-2.258.1Zm-1.319,6.419a24.215,24.215,0,0,0-3.019.152V42.689c.863.076,1.878.127,3.019.127H209.52c1.218,0,2.182-.051,3.019-.127v3.374a24.5,24.5,0,0,0-3.019-.152h-8.575a30.619,30.619,0,0,1-2.436,4.491c5.1-.255,5.1-.255,7.256-.508-.811-.913-1.217-1.37-2.435-2.639l3.044-1.269a53.874,53.874,0,0,1,5.76,6.774l-2.969,1.878c-.71-1.116-.938-1.446-1.345-2.056-2.436.331-2.486.331-3.882.457-1.242.128-8.676.787-9.64.837-1.167.076-2.207.2-2.791.305l-.431-3.628c.762.05,1.142.05,1.776.05.254,0,.863,0,1.8-.025a32.221,32.221,0,0,0,2.486-4.668Zm12.381-7.84a19.908,19.908,0,0,1-4.492-4.211,19.425,19.425,0,0,1-4.465,4.211Z" transform="translate(16401.777 -18246.746)" fill="#fff"/>
      <path id="パス_13248-2" data-name="パス 13248" d="M229.515,32.407a35.43,35.43,0,0,0-1.675,7.712,48.832,48.832,0,0,0-.329,4.9c0,.507-.026,1.5-.026,1.9.559-1.37.736-1.827,1.143-2.639l2.157.863a20.059,20.059,0,0,0-2.283,7.738c0,.1.025.355.051.812l-3.628.178c-.025-.33-.025-.482-.1-1.015a51.338,51.338,0,0,1-.685-8.322,45.494,45.494,0,0,1,.482-6.824c.1-.761.1-.761.608-3.5a14.081,14.081,0,0,0,.305-2.157ZM230.86,36.7a22.438,22.438,0,0,0,4.744.381c.711,0,1.167,0,2.03-.026,0-1.877,0-1.877-.025-3.577a6.476,6.476,0,0,0-.1-1.319h3.755a28.854,28.854,0,0,0-.178,4.643,21.5,21.5,0,0,0,4.11-.837l.127,3.45a6.382,6.382,0,0,0-.99.153,29.189,29.189,0,0,1-3.222.507c.025,2.054.051,2.613.255,5.86a20.5,20.5,0,0,1,3.881,2.208c.381.254.456.3.735.481l-1.395,3.654a15.292,15.292,0,0,0-3.273-2.612,2.923,2.923,0,0,1,.025.43c0,2.233-2.03,3.654-5.252,3.654-3.5,0-5.632-1.675-5.632-4.415s2.207-4.541,5.556-4.541a7.614,7.614,0,0,1,1.828.2c-.026-.862-.076-2-.153-4.694-.735.026-1.167.026-1.725.026-.913,0-3.171-.076-4.262-.152-.407-.025-.407-.025-.736-.025a.444.444,0,0,0-.152.025Zm5.2,11.188c-1.345,0-2.233.558-2.233,1.422,0,.812.762,1.318,2,1.318,1.472,0,2.107-.558,2.107-1.827a2.291,2.291,0,0,0-.026-.533,4.567,4.567,0,0,0-1.852-.381" transform="translate(16396.422 -18246.918)" fill="#fff"/>
      <path id="パス_13249-2" data-name="パス 13249" d="M262.707,44.007c-1.549,1.242-2.285,2.308-2.285,3.3,0,1.472,1.752,2.132,5.709,2.132a27.068,27.068,0,0,0,8.245-1.117l.279,4.161a21.687,21.687,0,0,0-2.283.229,40.081,40.081,0,0,1-5.734.405,19.505,19.505,0,0,1-6.673-.837c-2.282-.863-3.4-2.334-3.4-4.415s1.04-3.856,3.451-5.785Zm-4.491-10.935a38.056,38.056,0,0,0,8.194.634,34.037,34.037,0,0,0,6.647-.457l.127,3.349a47.606,47.606,0,0,0-6.927,4.339l-2.588-1.928c.889-.584,2.613-1.649,3.35-2.08a22.73,22.73,0,0,1-2.893.151,47.624,47.624,0,0,1-5.251-.3,4.4,4.4,0,0,0-.889-.076Z" transform="translate(16391.42 -18247.074)" fill="#fff"/>
      <path id="パス_13250-2" data-name="パス 13250" d="M284.847,34.729a27.147,27.147,0,0,0,5.48.431,22.474,22.474,0,0,0,.66-4.009l4.009.3c-.052.2-.355,1.395-.939,3.653a45.879,45.879,0,0,0,9.59-1.039l.152,3.653c-.71.052-.71.052-3.221.3s-4.516.381-7.383.457a30.336,30.336,0,0,1-1.725,4.542,12,12,0,0,1,5.987-1.4c4.643,0,7.358,1.979,7.358,5.379,0,3.907-3.754,6.418-9.59,6.418a24.775,24.775,0,0,1-6.5-.862,15.429,15.429,0,0,0-.355-3.78,20.967,20.967,0,0,0,6.7,1.218c3.552,0,5.81-1.167,5.81-3.019,0-1.4-1.422-2.182-3.907-2.182a11.7,11.7,0,0,0-5.353,1.218,3.856,3.856,0,0,0-1.751,1.4L286.217,46.2a39.316,39.316,0,0,0,3.3-7.764H288.4c-.254,0-.406-.025-2.537-.178-.381-.025-.634-.025-.837-.025H284.8Z" transform="translate(16387.064 -18246.779)" fill="#fff"/>
      <path id="パス_13251-2" data-name="パス 13251" d="M321.593,36.61c-.279.99-.863,4.289-1.167,6.6A11.824,11.824,0,0,1,327.833,41c4.516,0,7.409,2.207,7.409,5.633a6.233,6.233,0,0,1-2.739,5.124,11.66,11.66,0,0,1-6.927,1.8,26.278,26.278,0,0,1-6.444-.812,15,15,0,0,0-.457-3.856,21.694,21.694,0,0,0,6.673,1.217c3.552,0,5.936-1.345,5.936-3.348,0-1.548-1.446-2.461-3.882-2.461A11.3,11.3,0,0,0,321.39,46a4.885,4.885,0,0,0-1.294,1.141l-3.679-.126c.051-.331.051-.355.1-.685.228-1.878.66-5.074,1.167-8.423.076-.61.1-.94.152-1.522Zm-.025-5.277a40.181,40.181,0,0,0,9.844,2.867l-1.219,3.5a49.073,49.073,0,0,1-10.4-3.248Z" transform="translate(16382.187 -18246.807)" fill="#fff"/>
      <path id="パス_13252-2" data-name="パス 13252" d="M375.385,35.819l-1.92,1.92,6.309,6.309-6.309,6.309,1.92,1.921,8.229-8.23Z" transform="translate(16373.386 -18247.5)" fill="#fff"/>
      <path id="パス_13253-2" data-name="パス 13253" d="M375.385,35.819l-1.92,1.92,6.309,6.309-6.309,6.309,1.92,1.921,8.229-8.23Z" transform="translate(16373.386 -18247.5)" fill="none" stroke="#fff" stroke-linecap="round" stroke-linejoin="round" stroke-width="1"/>
    </g>
    <rect id="長方形_3906" data-name="長方形 3906" width="266" height="32" transform="translate(16493 -18221)" fill="none"/>
  </g>
</svg>
