<svg xmlns="http://www.w3.org/2000/svg" width="147" height="32" viewBox="0 0 147 32">
  <g id="グループ_6639" data-name="グループ 6639" transform="translate(-16493 18269)">
    <g id="グループ_6638" data-name="グループ 6638" transform="translate(-89.777 322.921)">
      <path id="パス_13238" data-name="パス 13238" d="M567.09,32.093a5.908,5.908,0,0,0-.127-1.421h3.6a5.721,5.721,0,0,0-.127,1.471v.837H576.4a26.458,26.458,0,0,0,3.374-.151v3.323c-.863-.075-2.131-.127-3.324-.127H561.788c0,10.453-.66,14.462-2.968,18.318a14.711,14.711,0,0,0-2.665-2.663c1.827-3.07,2.334-6.292,2.334-14.995,0-2-.024-2.942-.1-3.83.938.076,1.953.126,3.171.126h5.531Zm1.066,7.053a19.844,19.844,0,0,0-.1-2.588h3.375a15.911,15.911,0,0,0-.1,2.334h5.1a22.251,22.251,0,0,0,2.791-.128v3.222c-.762-.076-1.7-.127-2.665-.127h-5.226v2.309h4.516a17.7,17.7,0,0,0,2.284-.1A20.992,20.992,0,0,0,578,46.757v4.237a27.75,27.75,0,0,0,.152,3.374h-3.425v-1.04h-8.651v1.04h-3.4a25.14,25.14,0,0,0,.152-3.2V46.326c0-.939-.025-1.624-.076-2.258a17.951,17.951,0,0,0,2.283.1h3.121Zm-2.081,11.188h8.651V47.188h-8.651Z" transform="translate(16062.883 -18618.416)" fill="#13293a"/>
      <path id="パス_13239" data-name="パス 13239" d="M602.588,35.968q-1.408,0-2.284.076c-.152.329-.152.329-.71,1.446a13.129,13.129,0,0,1-4.212-4.136,19.145,19.145,0,0,1-3.73,4.363,10.039,10.039,0,0,0,1.294.052h1.041a14.508,14.508,0,0,0-.1-2.182h3.171a13.809,13.809,0,0,0-.1,2.182h1.091a7.457,7.457,0,0,0,1.5-.076v2.714a7.32,7.32,0,0,0-1.5-.076h-1.091V41.8h.99A13.517,13.517,0,0,0,600,41.7v2.892a18.089,18.089,0,0,0-2.03-.076H591.78a15.765,15.765,0,0,0-2.081.1V41.676a11.794,11.794,0,0,0,2.081.127h2.208V40.331h-1.016a12.129,12.129,0,0,0-1.573.076v-2.46c-.405.3-.558.43-1.116.812a13.567,13.567,0,0,0-1.219-3.171,12.961,12.961,0,0,0,2.741-2.107,10.407,10.407,0,0,0,1.9-2.612h3.2a11.172,11.172,0,0,0,3.222,3.121V32.948a15.772,15.772,0,0,0,2.486.128H605.1v-.381a10.7,10.7,0,0,0-.126-2.031h3.045a10.613,10.613,0,0,0-.128,2.031v.381h1.675a13.647,13.647,0,0,0-.913-1.827l2.435-.787a17.533,17.533,0,0,1,1.142,2.588c.331-.026.457-.026.863-.076v3.1a15.2,15.2,0,0,0-2.055-.1H607.89v1.37h2.563a16.716,16.716,0,0,0,2.233-.077c-.05.761-.076,1.192-.076,2.664V51.9c0,1.624-.71,2.156-2.841,2.156-.229,0-.457,0-.99-.025a7.461,7.461,0,0,0-.583-2.841c.634.05.863.076,1.192.076.355,0,.43-.1.43-.559V48.729H607.89V51.6c0,1.219.025,1.777.077,2.386h-2.943c.051-.634.075-1.167.075-2.334V48.729h-1.826v2.689a25.056,25.056,0,0,0,.1,2.892h-2.994a21.8,21.8,0,0,0,.127-2.866V39.9a23.355,23.355,0,0,0-.076-2.639c.685.052,1.192.077,2.587.077h2.08v-1.37Zm-6.216,18.088v-.786H593.86v1.015h-3.248a12.129,12.129,0,0,0,.128-2.157V47.638a16.168,16.168,0,0,0-.1-2.03c.533.051,1.167.076,2.054.076h4.871a16.771,16.771,0,0,0,1.878-.076c-.025.431-.051.888-.051,1.827v4.871a14.223,14.223,0,0,0,.076,1.75Zm-2.512-3.424h2.512V48.348H593.86Zm9.413-8.855H605.1v-1.7h-1.826Zm1.826,2.588h-1.826v1.776H605.1Zm2.791-2.588h1.928v-1.7H607.89Zm1.928,2.588H607.89v1.776h1.928Z" transform="translate(16057.807 -18618.383)" fill="#13293a"/>
      <path id="パス_13240" data-name="パス 13240" d="M639.221,40.449h3.221a17.163,17.163,0,0,0,2.207-.1c-.075.836-.1,1.369-.1,2.055v3.349a15.574,15.574,0,0,0,.1,1.953,20.963,20.963,0,0,0-2.359-.1h-2.36a10.537,10.537,0,0,0,6.445,3.552,10.364,10.364,0,0,0-1.522,3.3,12.707,12.707,0,0,1-7.079-5.3c-1.345,2.639-3.222,4.136-6.7,5.277a10.216,10.216,0,0,0-1.751-3.1,9.242,9.242,0,0,0,3.906-1.472,5.749,5.749,0,0,0,1.955-2.258h-1.8a20.016,20.016,0,0,0-2.309.1c.025-.66.051-1.066.051-1.649v-3.7a16.867,16.867,0,0,0-1.142,2.766,15.351,15.351,0,0,1-1.5-2.842c.076.71.1,1.675.1,2.994v6.013a27.446,27.446,0,0,0,.152,3.2h-3.4a27.561,27.561,0,0,0,.152-3.2V46.944c0-.71.052-1.979.127-2.918a23.131,23.131,0,0,1-2.106,5.024,13.791,13.791,0,0,0-1.42-3.475,21.478,21.478,0,0,0,3.145-7.359H624.4a7.309,7.309,0,0,0-1.674.128V35.071a7.312,7.312,0,0,0,1.674.127h1.066V33.4a17.641,17.641,0,0,0-.152-2.664h3.425a17.733,17.733,0,0,0-.152,2.639V35.2h.661a6.1,6.1,0,0,0,1.268-.1v1.217a18.042,18.042,0,0,0,2.486-1.8,11.562,11.562,0,0,0,2.969-3.627h3.3a9.917,9.917,0,0,0,3.1,3.222,16.114,16.114,0,0,0,4.136,2.258,12.262,12.262,0,0,0-1.471,3.018,18.5,18.5,0,0,1-2.69-1.5v1.37a17.2,17.2,0,0,0-1.954-.076h-1.166Zm-3.882-1.268a17.963,17.963,0,0,0-1.929.076V38.014a15.651,15.651,0,0,1-2.384,1.547,12.7,12.7,0,0,0-.584-1.269,7.949,7.949,0,0,0-1.142-.076h-.584a12.678,12.678,0,0,0,2.41,3.882c0-.659-.025-1.141-.076-1.7.609.051.863.051,2.157.051H636.2V39.181Zm-1.319,3.8v2.08h1.954a15.314,15.314,0,0,0,.178-2.08Zm6.241-6.6a12.236,12.236,0,0,1-2.562-2.842,16.8,16.8,0,0,1-2.334,2.842Zm-1.09,6.6c-.025.889-.077,1.32-.153,2.08h2.537v-2.08Z" transform="translate(16052.711 -18618.424)" fill="#13293a"/>
      <path id="パス_13241" data-name="パス 13241" d="M664.432,49.684a18.167,18.167,0,0,1-6.292,4.389,10.735,10.735,0,0,0-2.384-2.588,12.132,12.132,0,0,0,5.937-3.4Zm8.753-8.829a5.153,5.153,0,0,0-.812.761,32.381,32.381,0,0,1-3.526,3.324c.963-.026,2.436-.1,4.439-.2-.381-.431-.634-.685-1.319-1.371l2.461-1.624A46.374,46.374,0,0,1,679.1,47.1l-2.613,1.978c-.609-.99-.863-1.344-1.193-1.852-4.11.331-4.694.381-6.368.457v4.06a14.981,14.981,0,0,0,.152,2.664h-3.73a15.488,15.488,0,0,0,.153-2.664V47.833c-3.451.151-4.644.2-5.659.228a15.217,15.217,0,0,0-2.993.178l-.406-3.324a36.925,36.925,0,0,0,4.668.178c.355,0,1.345-.025,3.02-.05a36.5,36.5,0,0,0-4.694-2.766l2.029-2.232c.787.405.989.507,1.548.812a15.094,15.094,0,0,0,1.243-1.574h-4.694v2.766h-3.4a10.869,10.869,0,0,0,.127-1.827V38.344a11.934,11.934,0,0,0-.1-1.878c.964.076,1.674.1,2.791.1h6.545V35.2h-6.368a25.848,25.848,0,0,0-3.222.127v-3.1a26.515,26.515,0,0,0,3.272.152h6.318a8.3,8.3,0,0,0-.152-1.649h3.679a10.635,10.635,0,0,0-.1,1.649h6.622a26.349,26.349,0,0,0,3.248-.152v3.1c-.736-.076-1.827-.127-3.2-.127h-6.672v1.37h6.825a26.943,26.943,0,0,0,2.816-.1,10.023,10.023,0,0,0-.077,1.725v2a10.1,10.1,0,0,0,.128,1.853h-3.425V39.281H668.01a31.368,31.368,0,0,1-2.562,3.07c.584.381.762.483,1.32.863a17.487,17.487,0,0,0,3.094-3.756Zm-.863,6.824a19.442,19.442,0,0,0,6.748,3.476,13.747,13.747,0,0,0-2.1,2.842,27.139,27.139,0,0,1-7-4.363Z" transform="translate(16047.518 -18618.424)" fill="#13293a"/>
      <path id="パス_13242" data-name="パス 13242" d="M536.143,51.5c-1.65-1.647-3.32-3.271-5.014-4.937.327-.572.571-.941.76-1.338a9.5,9.5,0,0,0-.983-10.446,9.822,9.822,0,1,0-13.888,13.675A9.4,9.4,0,0,0,527.558,49.5a1.2,1.2,0,0,1,1.687.249l0,.005c1.39,1.472,2.845,2.885,4.284,4.313,1.046,1.036,1.363,1.015,2.486-.106,1.152-1.154,1.178-1.413.123-2.468m-12.949-4.585a6.164,6.164,0,1,1,6.1-6.23v.075a6.206,6.206,0,0,1-6.1,6.154" transform="translate(16069.497 -18618.455)" fill="#13293a"/>
    </g>
    <rect id="長方形_3907" data-name="長方形 3907" width="147" height="32" transform="translate(16493 -18269)" fill="none"/>
  </g>
</svg>
